%TF.GenerationSoftware,KiCad,Pcbnew,10.0.3*%
%TF.CreationDate,2026-08-09T18:35:11+05:30*%
%TF.ProjectId,signal detector,7369676e-616c-4206-9465-746563746f72,rev?*%
%TF.SameCoordinates,Original*%
%TF.FileFunction,Copper,L2,Bot*%
%TF.FilePolarity,Positive*%
%FSLAX46Y46*%
G04 Gerber Fmt 4.6, Leading zero omitted, Abs format (unit mm)*
G04 Created by KiCad (PCBNEW 10.0.3) date 2026-08-09 18:35:11*
%MOMM*%
%LPD*%
G01*
G04 APERTURE LIST*
G04 Aperture macros list*
%AMRoundRect*
0 Rectangle with rounded corners*
0 $1 Rounding radius*
0 $2 $3 $4 $5 $6 $7 $8 $9 X,Y pos of 4 corners*
0 Add a 4 corners polygon primitive as box body*
4,1,4,$2,$3,$4,$5,$6,$7,$8,$9,$2,$3,0*
0 Add four circle primitives for the rounded corners*
1,1,$1+$1,$2,$3*
1,1,$1+$1,$4,$5*
1,1,$1+$1,$6,$7*
1,1,$1+$1,$8,$9*
0 Add four rect primitives between the rounded corners*
20,1,$1+$1,$2,$3,$4,$5,0*
20,1,$1+$1,$4,$5,$6,$7,0*
20,1,$1+$1,$6,$7,$8,$9,0*
20,1,$1+$1,$8,$9,$2,$3,0*%
G04 Aperture macros list end*
%TA.AperFunction,ComponentPad*%
%ADD10RoundRect,0.249999X0.850001X-0.850001X0.850001X0.850001X-0.850001X0.850001X-0.850001X-0.850001X0*%
%TD*%
%TA.AperFunction,ComponentPad*%
%ADD11C,2.200000*%
%TD*%
%TA.AperFunction,ComponentPad*%
%ADD12C,4.000000*%
%TD*%
%TA.AperFunction,ComponentPad*%
%ADD13R,1.500000X1.500000*%
%TD*%
%TA.AperFunction,ComponentPad*%
%ADD14C,1.500000*%
%TD*%
%TA.AperFunction,ComponentPad*%
%ADD15R,1.700000X1.700000*%
%TD*%
%TA.AperFunction,ComponentPad*%
%ADD16C,1.700000*%
%TD*%
%TA.AperFunction,ComponentPad*%
%ADD17R,2.000000X2.000000*%
%TD*%
%TA.AperFunction,ComponentPad*%
%ADD18C,2.000000*%
%TD*%
%TA.AperFunction,ComponentPad*%
%ADD19R,1.800000X1.800000*%
%TD*%
%TA.AperFunction,ComponentPad*%
%ADD20C,1.800000*%
%TD*%
%TA.AperFunction,ComponentPad*%
%ADD21R,3.200000X2.000000*%
%TD*%
%TA.AperFunction,ComponentPad*%
%ADD22RoundRect,0.250000X0.625000X-0.350000X0.625000X0.350000X-0.625000X0.350000X-0.625000X-0.350000X0*%
%TD*%
%TA.AperFunction,ComponentPad*%
%ADD23O,1.750000X1.200000*%
%TD*%
%TA.AperFunction,ComponentPad*%
%ADD24O,1.000000X2.100000*%
%TD*%
%TA.AperFunction,ComponentPad*%
%ADD25O,1.000000X1.600000*%
%TD*%
%TA.AperFunction,HeatsinkPad*%
%ADD26C,0.600000*%
%TD*%
%TA.AperFunction,ViaPad*%
%ADD27C,0.600000*%
%TD*%
%TA.AperFunction,Conductor*%
%ADD28C,0.200000*%
%TD*%
G04 APERTURE END LIST*
D10*
%TO.P,D2,1,K_1*%
%TO.N,/VBAT_SYS*%
X154500000Y-136080000D03*
D11*
%TO.P,D2,2,A_2*%
%TO.N,Net-(D2-A)*%
X154500000Y-125920000D03*
%TD*%
D12*
%TO.P,U3,*%
%TO.N,*%
X108030000Y-90020000D03*
X142130000Y-90020000D03*
X108030000Y-28820000D03*
X142130000Y-28820000D03*
D13*
%TO.P,U3,1,VCC_1*%
%TO.N,+3V3*%
X114920000Y-91520000D03*
D14*
%TO.P,U3,2,GND_2*%
%TO.N,GND*%
X117460000Y-91520000D03*
%TO.P,U3,3,~{CS}_3*%
%TO.N,/GPIO_10*%
X120000000Y-91520000D03*
%TO.P,U3,4,RESET_4*%
%TO.N,Net-(U3-RESET)*%
X122540000Y-91520000D03*
%TO.P,U3,5,D/~{C}_5*%
%TO.N,Net-(U3-D{slash}~{C})*%
X125080000Y-91520000D03*
%TO.P,U3,6,MOSI_6*%
%TO.N,Net-(U3-MOSI)*%
X127620000Y-91520000D03*
%TO.P,U3,7,SCK_7*%
%TO.N,Net-(U3-SCK)*%
X130160000Y-91520000D03*
%TO.P,U3,8,LED_8*%
%TO.N,+3V3*%
X132700000Y-91520000D03*
%TO.P,U3,9,MISO_9*%
%TO.N,unconnected-(U3-MISO-Pad9)*%
X135240000Y-91520000D03*
%TO.P,U3,10,SD_CS_10*%
%TO.N,unconnected-(U3-SD_CS-Pad10)*%
X120000000Y-28000000D03*
%TO.P,U3,11,SD_MOSI_11*%
%TO.N,unconnected-(U3-SD_MOSI-Pad11)*%
X122540000Y-28000000D03*
%TO.P,U3,12,SD_MISO_12*%
%TO.N,unconnected-(U3-SD_MISO-Pad12)*%
X125080000Y-28000000D03*
%TO.P,U3,13,SD_SCK_13*%
%TO.N,unconnected-(U3-SD_SCK-Pad13)*%
X127620000Y-28000000D03*
%TO.P,U3,14,FLASH_CD_14*%
%TO.N,unconnected-(U3-FLASH_CD-Pad14)*%
X130160000Y-28000000D03*
%TD*%
D15*
%TO.P,J2,1,Pin_1_1*%
%TO.N,+3V3*%
X108920000Y-111500000D03*
D16*
%TO.P,J2,2,Pin_2_2*%
%TO.N,GND*%
X111460000Y-111500000D03*
%TO.P,J2,3,Pin_3_3*%
%TO.N,/SDA*%
X114000000Y-111500000D03*
%TO.P,J2,4,Pin_4_4*%
%TO.N,/SCL*%
X116540000Y-111500000D03*
%TO.P,J2,5,Pin_5_5*%
%TO.N,Net-(J2-Pin_5)*%
X119080000Y-111500000D03*
%TD*%
D17*
%TO.P,BZ1,1,+_1*%
%TO.N,+3V3*%
X100500000Y-141100000D03*
D18*
%TO.P,BZ1,2,-_2*%
%TO.N,Net-(BZ1--)*%
X100500000Y-133500000D03*
%TD*%
D19*
%TO.P,D4,1,K_1*%
%TO.N,Net-(D4-K)*%
X148000000Y-126040000D03*
D20*
%TO.P,D4,2,A_2*%
%TO.N,Net-(D4-A)*%
X148000000Y-123500000D03*
%TD*%
D17*
%TO.P,SW5,A,A_A*%
%TO.N,/IO0*%
X96250000Y-164400000D03*
D18*
%TO.P,SW5,B,B_B*%
%TO.N,/IO1*%
X96250000Y-169400000D03*
%TO.P,SW5,C,C_C*%
%TO.N,GND*%
X96250000Y-166900000D03*
D21*
%TO.P,SW5,MP*%
%TO.N,N/C*%
X103750000Y-161300000D03*
X103750000Y-172500000D03*
D18*
%TO.P,SW5,S1,S1_S1*%
%TO.N,/IO2*%
X110750000Y-169400000D03*
%TO.P,SW5,S2,S2_S2*%
%TO.N,GND*%
X110750000Y-164400000D03*
%TD*%
D22*
%TO.P,BT1,1,+_1*%
%TO.N,Net-(BT1-+)*%
X151450000Y-155400000D03*
D23*
%TO.P,BT1,2,-_2*%
%TO.N,GND*%
X151450000Y-153400000D03*
%TD*%
D24*
%TO.P,J1,SH,SHIELD_SH*%
%TO.N,unconnected-(J1-SHIELD-PadSH)_2*%
X120570000Y-140030000D03*
D25*
%TO.N,unconnected-(J1-SHIELD-PadSH)*%
X120570000Y-135850000D03*
D24*
%TO.N,unconnected-(J1-SHIELD-PadSH)_3*%
X111930000Y-140030000D03*
D25*
%TO.N,unconnected-(J1-SHIELD-PadSH)_1*%
X111930000Y-135850000D03*
%TD*%
D26*
%TO.P,U4,19,GND_19*%
%TO.N,GND*%
X127500000Y-155450000D03*
X127500000Y-154350000D03*
X126950000Y-156000000D03*
X126950000Y-154900000D03*
X126950000Y-153800000D03*
X126400000Y-155450000D03*
X126400000Y-154350000D03*
X125850000Y-156000000D03*
X125850000Y-154900000D03*
X125850000Y-153800000D03*
X125300000Y-155450000D03*
X125300000Y-154350000D03*
%TD*%
D27*
%TO.N,Net-(Q3-G)*%
X141400000Y-113800000D03*
X145100000Y-114000000D03*
%TO.N,GND*%
X137000000Y-146100000D03*
X119600000Y-141000000D03*
X104700000Y-157300000D03*
X140600000Y-112400000D03*
X106900000Y-106900000D03*
X125400000Y-138300000D03*
X137200000Y-112200000D03*
X123800000Y-144000000D03*
X135700000Y-149100000D03*
X156300000Y-161400000D03*
X137400000Y-107500000D03*
X137400000Y-105300000D03*
X143600000Y-114700000D03*
X112100000Y-142900000D03*
X141600000Y-139100000D03*
X110800000Y-159200000D03*
X137800000Y-145100000D03*
X154200000Y-165600000D03*
X143400000Y-134300000D03*
X131900000Y-149100000D03*
X105400000Y-116600000D03*
X155400000Y-160500000D03*
X107800000Y-107800000D03*
X126100000Y-140300000D03*
X141200000Y-114700000D03*
X112900000Y-141000000D03*
X154400000Y-164200000D03*
X104400000Y-155900000D03*
X107600000Y-112800000D03*
X141600000Y-137700000D03*
X121500000Y-144000000D03*
X112200000Y-148700000D03*
X112200000Y-150500000D03*
X145200000Y-136100000D03*
%TO.N,Net-(Q2-G)*%
X114000000Y-153000000D03*
X155100000Y-121500000D03*
%TO.N,Net-(J3-In)*%
X116000000Y-113500000D03*
X106800000Y-113800000D03*
X104700000Y-113800000D03*
X132400000Y-113700000D03*
X114700000Y-113500000D03*
X133700000Y-113700000D03*
%TO.N,Net-(D2-A)*%
X143400000Y-118500000D03*
X145200000Y-120300000D03*
%TO.N,/VBAT_SYS*%
X140300000Y-132100000D03*
X132400000Y-131800000D03*
X143400000Y-132100000D03*
X143300000Y-128700000D03*
X145200000Y-132100000D03*
%TO.N,+5V*%
X133974591Y-161746823D03*
X122600000Y-137900000D03*
X156800000Y-164900000D03*
X117100000Y-138100000D03*
X127600000Y-143900000D03*
X122800000Y-140900000D03*
X119300000Y-137900000D03*
X114600000Y-138400000D03*
X155000000Y-164900000D03*
X134100000Y-159600000D03*
%TO.N,+3V3*%
X102300000Y-156300000D03*
X104700000Y-152500000D03*
X112500000Y-121300000D03*
X137600000Y-102000000D03*
X106200000Y-105800000D03*
X105600000Y-151600000D03*
X104000000Y-107800000D03*
X140700000Y-159600000D03*
X108900000Y-115000000D03*
X136600000Y-105600000D03*
X145500000Y-149600000D03*
X106900000Y-108700000D03*
X111400000Y-120400000D03*
X143700000Y-147800000D03*
X106000000Y-107800000D03*
X106800000Y-103600000D03*
X109300000Y-98800000D03*
X140700000Y-161000000D03*
%TO.N,/BAT_SENSE*%
X126200000Y-139300000D03*
X121800000Y-124800000D03*
X113300000Y-118600000D03*
X126300000Y-132700000D03*
X120500000Y-160100000D03*
X119200000Y-159900000D03*
X126500000Y-130400000D03*
%TO.N,/GPIO_10*%
X122100000Y-140500000D03*
X119200000Y-145700000D03*
X103000000Y-147100000D03*
X118200000Y-112800000D03*
X118200000Y-114100000D03*
%TO.N,Net-(J2-Pin_5)*%
X103900000Y-110800000D03*
X119100000Y-114100000D03*
X142400000Y-146700000D03*
X140000000Y-149100000D03*
X137700000Y-134700000D03*
X132400000Y-133600000D03*
%TO.N,/SDA*%
X111500000Y-146300000D03*
X118100000Y-144200000D03*
X116700000Y-139600000D03*
X113100000Y-114200000D03*
%TO.N,/SCL*%
X111500000Y-147900000D03*
X113900000Y-114100000D03*
X117600000Y-147900000D03*
X117600000Y-139600000D03*
X117600000Y-143000000D03*
%TO.N,/IO1*%
X106400000Y-156500000D03*
X103700000Y-159200000D03*
%TO.N,Net-(Q1-G)*%
X97000000Y-151500000D03*
X97000000Y-149700000D03*
%TO.N,/IO0*%
X102400000Y-157900000D03*
X103800000Y-156500000D03*
%TO.N,/IO2*%
X108100000Y-160600000D03*
X108100000Y-156500000D03*
%TO.N,Net-(D3-DIN)*%
X132400000Y-143800000D03*
X136200000Y-145100000D03*
%TO.N,Net-(U4-EN)*%
X136110000Y-159600000D03*
X98000000Y-109700000D03*
%TO.N,/GPIO-0*%
X121500000Y-142200000D03*
X122400000Y-143100000D03*
%TD*%
%TO.N,Net-(Q3-G)*%
D28*
X141400000Y-113800000D02*
X144900000Y-113800000D01*
X144900000Y-113800000D02*
X145100000Y-114000000D01*
%TO.N,GND*%
X104700000Y-157300000D02*
X104700000Y-156200000D01*
X141600000Y-139100000D02*
X141600000Y-137700000D01*
X154400000Y-164200000D02*
X154400000Y-164400000D01*
X126100000Y-140300000D02*
X125400000Y-139600000D01*
X137000000Y-146100000D02*
X137000000Y-145900000D01*
X123800000Y-144000000D02*
X121500000Y-144000000D01*
X125400000Y-138700000D02*
X121000000Y-138700000D01*
X154400000Y-164400000D02*
X154200000Y-164600000D01*
X120900000Y-138600000D02*
X119500000Y-138600000D01*
X137000000Y-145900000D02*
X137800000Y-145100000D01*
X118400000Y-139200000D02*
X118400000Y-139800000D01*
X137400000Y-107500000D02*
X137400000Y-105300000D01*
X140600000Y-114100000D02*
X140600000Y-112400000D01*
X118000000Y-138800000D02*
X117500000Y-138800000D01*
X140600000Y-112400000D02*
X137400000Y-112400000D01*
X141200000Y-114700000D02*
X143600000Y-114700000D01*
X137400000Y-112400000D02*
X137200000Y-112200000D01*
X119500000Y-138600000D02*
X119300000Y-138800000D01*
X112900000Y-142100000D02*
X112100000Y-142900000D01*
X107600000Y-114400000D02*
X107600000Y-112800000D01*
X121000000Y-138700000D02*
X120900000Y-138600000D01*
X112200000Y-148700000D02*
X112200000Y-150500000D01*
X118400000Y-139800000D02*
X119600000Y-141000000D01*
X155400000Y-160500000D02*
X156300000Y-161400000D01*
X143400000Y-134300000D02*
X145200000Y-136100000D01*
X141200000Y-114700000D02*
X140600000Y-114100000D01*
X118800000Y-138800000D02*
X118400000Y-139200000D01*
X107800000Y-107800000D02*
X106900000Y-106900000D01*
X112900000Y-141000000D02*
X112900000Y-142100000D01*
X105400000Y-116600000D02*
X107600000Y-114400000D01*
X110800000Y-159200000D02*
X110800000Y-164400000D01*
X104700000Y-156200000D02*
X104400000Y-155900000D01*
X131900000Y-149100000D02*
X135700000Y-149100000D01*
X117000000Y-138900000D02*
X116900000Y-138800000D01*
X125400000Y-139600000D02*
X125400000Y-138300000D01*
X119300000Y-138800000D02*
X118800000Y-138800000D01*
X154200000Y-164600000D02*
X154200000Y-165600000D01*
X114200000Y-141000000D02*
X112900000Y-141000000D01*
X117500000Y-138800000D02*
X117400000Y-138900000D01*
X118400000Y-139200000D02*
X118000000Y-138800000D01*
X117400000Y-138900000D02*
X117000000Y-138900000D01*
X116400000Y-138800000D02*
X114200000Y-141000000D01*
X116900000Y-138800000D02*
X116400000Y-138800000D01*
%TO.N,Net-(Q2-G)*%
X145800000Y-130800000D02*
X145800000Y-138148529D01*
X155100000Y-121500000D02*
X145800000Y-130800000D01*
X135448529Y-148500000D02*
X118500000Y-148500000D01*
X145800000Y-138148529D02*
X135448529Y-148500000D01*
X118500000Y-148500000D02*
X114000000Y-153000000D01*
%TO.N,Net-(J3-In)*%
X104700000Y-113800000D02*
X106800000Y-113800000D01*
X132400000Y-113700000D02*
X133700000Y-113700000D01*
X114700000Y-113500000D02*
X116000000Y-113500000D01*
%TO.N,Net-(D2-A)*%
X145200000Y-120300000D02*
X143400000Y-118500000D01*
%TO.N,/VBAT_SYS*%
X143400000Y-132100000D02*
X145200000Y-132100000D01*
X143300000Y-132100000D02*
X143300000Y-128700000D01*
X140300000Y-132100000D02*
X143400000Y-132100000D01*
X132400000Y-131800000D02*
X140000000Y-131800000D01*
X140000000Y-131800000D02*
X140300000Y-132100000D01*
%TO.N,+5V*%
X114900000Y-138100000D02*
X114600000Y-138400000D01*
X122600000Y-137900000D02*
X119300000Y-137900000D01*
X155000000Y-164900000D02*
X156800000Y-164900000D01*
X133974591Y-160625409D02*
X134100000Y-160500000D01*
X133974591Y-161746823D02*
X133974591Y-160625409D01*
X134100000Y-160500000D02*
X134100000Y-159600000D01*
X117100000Y-138100000D02*
X114900000Y-138100000D01*
X127600000Y-143900000D02*
X125800000Y-143900000D01*
X125800000Y-143900000D02*
X122800000Y-140900000D01*
%TO.N,+3V3*%
X111600000Y-120400000D02*
X112500000Y-121300000D01*
X136600000Y-105000000D02*
X136600000Y-105600000D01*
X106200000Y-105800000D02*
X106800000Y-105200000D01*
X111400000Y-120400000D02*
X111600000Y-120400000D01*
X106800000Y-101300000D02*
X109300000Y-98800000D01*
X145500000Y-149600000D02*
X143700000Y-147800000D01*
X137600000Y-104000000D02*
X136600000Y-105000000D01*
X102300000Y-156300000D02*
X102300000Y-154900000D01*
X106800000Y-105200000D02*
X106800000Y-103600000D01*
X137600000Y-102000000D02*
X137600000Y-104000000D01*
X106800000Y-103600000D02*
X106800000Y-101300000D01*
X106000000Y-107800000D02*
X104000000Y-107800000D01*
X106900000Y-108700000D02*
X106000000Y-107800000D01*
X108900000Y-115000000D02*
X108900000Y-111500000D01*
X102300000Y-154900000D02*
X105600000Y-151600000D01*
X140700000Y-161000000D02*
X140700000Y-159600000D01*
%TO.N,/BAT_SENSE*%
X126500000Y-132500000D02*
X126500000Y-130400000D01*
X121800000Y-124800000D02*
X119500000Y-124800000D01*
X120500000Y-160100000D02*
X119400000Y-160100000D01*
X126300000Y-132700000D02*
X126300000Y-139200000D01*
X126300000Y-132700000D02*
X126500000Y-132500000D01*
X119500000Y-124800000D02*
X113300000Y-118600000D01*
X119400000Y-160100000D02*
X119200000Y-159900000D01*
%TO.N,/GPIO_10*%
X119200000Y-143400000D02*
X122100000Y-140500000D01*
X119200000Y-145700000D02*
X113200000Y-145700000D01*
X118200000Y-114100000D02*
X118200000Y-112800000D01*
X113200000Y-145700000D02*
X111800000Y-147100000D01*
X119200000Y-145700000D02*
X119200000Y-143400000D01*
X111800000Y-147100000D02*
X103000000Y-147100000D01*
%TO.N,Net-(J2-Pin_5)*%
X117900000Y-110300000D02*
X107900000Y-110300000D01*
X142400000Y-146700000D02*
X140000000Y-149100000D01*
X107400000Y-110800000D02*
X103900000Y-110800000D01*
X136600000Y-133600000D02*
X137700000Y-134700000D01*
X119100000Y-111500000D02*
X119100000Y-114100000D01*
X132400000Y-133600000D02*
X136600000Y-133600000D01*
X107900000Y-110300000D02*
X107400000Y-110800000D01*
X119100000Y-111500000D02*
X117900000Y-110300000D01*
%TO.N,/SDA*%
X117300000Y-143800000D02*
X116700000Y-143200000D01*
X114600000Y-143200000D02*
X111500000Y-146300000D01*
X118100000Y-144200000D02*
X117700000Y-143800000D01*
X113100000Y-112400000D02*
X114000000Y-111500000D01*
X117700000Y-143800000D02*
X117300000Y-143800000D01*
X116700000Y-143200000D02*
X116700000Y-139600000D01*
X116700000Y-143200000D02*
X114600000Y-143200000D01*
X113100000Y-114200000D02*
X113100000Y-112400000D01*
%TO.N,/SCL*%
X115400000Y-112600000D02*
X116500000Y-111500000D01*
X117600000Y-147900000D02*
X111500000Y-147900000D01*
X117600000Y-143000000D02*
X117600000Y-139600000D01*
X113900000Y-113200000D02*
X114500000Y-112600000D01*
X113900000Y-114100000D02*
X113900000Y-113200000D01*
X114500000Y-112600000D02*
X115400000Y-112600000D01*
%TO.N,/IO1*%
X106400000Y-156500000D02*
X103700000Y-159200000D01*
%TO.N,Net-(Q1-G)*%
X97000000Y-149700000D02*
X97000000Y-151500000D01*
%TO.N,/IO0*%
X102400000Y-157900000D02*
X103800000Y-156500000D01*
%TO.N,/IO2*%
X108100000Y-156500000D02*
X108100000Y-160600000D01*
%TO.N,Net-(D3-DIN)*%
X133700000Y-145100000D02*
X132400000Y-143800000D01*
X136200000Y-145100000D02*
X133700000Y-145100000D01*
%TO.N,Net-(U4-EN)*%
X155700000Y-121251471D02*
X155700000Y-121748529D01*
X144148529Y-109700000D02*
X155700000Y-121251471D01*
X136400000Y-159600000D02*
X136110000Y-159600000D01*
X155700000Y-121748529D02*
X146200000Y-131248529D01*
X146200000Y-131248529D02*
X146200000Y-149800000D01*
X98000000Y-109700000D02*
X144148529Y-109700000D01*
X146200000Y-149800000D02*
X136400000Y-159600000D01*
%TO.N,/GPIO-0*%
X121500000Y-142200000D02*
X122400000Y-143100000D01*
%TD*%
M02*
