%TF.GenerationSoftware,KiCad,Pcbnew,10.0.3*%
%TF.CreationDate,2026-08-16T11:47:07+05:30*%
%TF.ProjectId,signal detector,7369676e-616c-4206-9465-746563746f72,rev?*%
%TF.SameCoordinates,Original*%
%TF.FileFunction,Copper,L2,Bot*%
%TF.FilePolarity,Positive*%
%FSLAX46Y46*%
G04 Gerber Fmt 4.6, Leading zero omitted, Abs format (unit mm)*
G04 Created by KiCad (PCBNEW 10.0.3) date 2026-08-16 11:47:07*
%MOMM*%
%LPD*%
G01*
G04 APERTURE LIST*
G04 Aperture macros list*
%AMRoundRect*
0 Rectangle with rounded corners*
0 $1 Rounding radius*
0 $2 $3 $4 $5 $6 $7 $8 $9 X,Y pos of 4 corners*
0 Add a 4 corners polygon primitive as box body*
4,1,4,$2,$3,$4,$5,$6,$7,$8,$9,$2,$3,0*
0 Add four circle primitives for the rounded corners*
1,1,$1+$1,$2,$3*
1,1,$1+$1,$4,$5*
1,1,$1+$1,$6,$7*
1,1,$1+$1,$8,$9*
0 Add four rect primitives between the rounded corners*
20,1,$1+$1,$2,$3,$4,$5,0*
20,1,$1+$1,$4,$5,$6,$7,0*
20,1,$1+$1,$6,$7,$8,$9,0*
20,1,$1+$1,$8,$9,$2,$3,0*%
G04 Aperture macros list end*
%TA.AperFunction,ComponentPad*%
%ADD10RoundRect,0.249999X0.850001X-0.850001X0.850001X0.850001X-0.850001X0.850001X-0.850001X-0.850001X0*%
%TD*%
%TA.AperFunction,ComponentPad*%
%ADD11C,2.200000*%
%TD*%
%TA.AperFunction,ComponentPad*%
%ADD12C,4.000000*%
%TD*%
%TA.AperFunction,ComponentPad*%
%ADD13R,1.500000X1.500000*%
%TD*%
%TA.AperFunction,ComponentPad*%
%ADD14C,1.500000*%
%TD*%
%TA.AperFunction,ComponentPad*%
%ADD15R,1.700000X1.700000*%
%TD*%
%TA.AperFunction,ComponentPad*%
%ADD16C,1.700000*%
%TD*%
%TA.AperFunction,ComponentPad*%
%ADD17R,2.000000X2.000000*%
%TD*%
%TA.AperFunction,ComponentPad*%
%ADD18C,2.000000*%
%TD*%
%TA.AperFunction,ComponentPad*%
%ADD19R,1.800000X1.800000*%
%TD*%
%TA.AperFunction,ComponentPad*%
%ADD20C,1.800000*%
%TD*%
%TA.AperFunction,ComponentPad*%
%ADD21R,3.200000X2.000000*%
%TD*%
%TA.AperFunction,ComponentPad*%
%ADD22RoundRect,0.250000X0.625000X-0.350000X0.625000X0.350000X-0.625000X0.350000X-0.625000X-0.350000X0*%
%TD*%
%TA.AperFunction,ComponentPad*%
%ADD23O,1.750000X1.200000*%
%TD*%
%TA.AperFunction,ComponentPad*%
%ADD24O,1.000000X2.100000*%
%TD*%
%TA.AperFunction,ComponentPad*%
%ADD25O,1.000000X1.600000*%
%TD*%
%TA.AperFunction,HeatsinkPad*%
%ADD26C,0.600000*%
%TD*%
%TA.AperFunction,ViaPad*%
%ADD27C,0.600000*%
%TD*%
%TA.AperFunction,Conductor*%
%ADD28C,0.200000*%
%TD*%
%TA.AperFunction,Conductor*%
%ADD29C,0.199800*%
%TD*%
G04 APERTURE END LIST*
D10*
%TO.P,D2,1,K_1*%
%TO.N,/VBAT_SYS*%
X154500000Y-136080000D03*
D11*
%TO.P,D2,2,A_2*%
%TO.N,Net-(D2-A)*%
X154500000Y-125920000D03*
%TD*%
D12*
%TO.P,U3,*%
%TO.N,*%
X108030000Y-90020000D03*
X142130000Y-90020000D03*
X108030000Y-28820000D03*
X142130000Y-28820000D03*
D13*
%TO.P,U3,1,VCC_1*%
%TO.N,+3V3*%
X114920000Y-91520000D03*
D14*
%TO.P,U3,2,GND_2*%
%TO.N,GND*%
X117460000Y-91520000D03*
%TO.P,U3,3,~{CS}_3*%
%TO.N,/GPIO_10*%
X120000000Y-91520000D03*
%TO.P,U3,4,RESET_4*%
%TO.N,Net-(U3-RESET)*%
X122540000Y-91520000D03*
%TO.P,U3,5,D/~{C}_5*%
%TO.N,Net-(U3-D{slash}~{C})*%
X125080000Y-91520000D03*
%TO.P,U3,6,MOSI_6*%
%TO.N,Net-(U3-MOSI)*%
X127620000Y-91520000D03*
%TO.P,U3,7,SCK_7*%
%TO.N,Net-(U3-SCK)*%
X130160000Y-91520000D03*
%TO.P,U3,8,LED_8*%
%TO.N,+3V3*%
X132700000Y-91520000D03*
%TO.P,U3,9,MISO_9*%
%TO.N,unconnected-(U3-MISO-Pad9)*%
X135240000Y-91520000D03*
%TO.P,U3,10,SD_CS_10*%
%TO.N,unconnected-(U3-SD_CS-Pad10)*%
X120000000Y-28000000D03*
%TO.P,U3,11,SD_MOSI_11*%
%TO.N,unconnected-(U3-SD_MOSI-Pad11)*%
X122540000Y-28000000D03*
%TO.P,U3,12,SD_MISO_12*%
%TO.N,unconnected-(U3-SD_MISO-Pad12)*%
X125080000Y-28000000D03*
%TO.P,U3,13,SD_SCK_13*%
%TO.N,unconnected-(U3-SD_SCK-Pad13)*%
X127620000Y-28000000D03*
%TO.P,U3,14,FLASH_CD_14*%
%TO.N,unconnected-(U3-FLASH_CD-Pad14)*%
X130160000Y-28000000D03*
%TD*%
D15*
%TO.P,J2,1,Pin_1_1*%
%TO.N,+3V3*%
X108920000Y-111500000D03*
D16*
%TO.P,J2,2,Pin_2_2*%
%TO.N,GND*%
X111460000Y-111500000D03*
%TO.P,J2,3,Pin_3_3*%
%TO.N,/SDA*%
X114000000Y-111500000D03*
%TO.P,J2,4,Pin_4_4*%
%TO.N,/SCL*%
X116540000Y-111500000D03*
%TO.P,J2,5,Pin_5_5*%
%TO.N,Net-(J2-Pin_5)*%
X119080000Y-111500000D03*
%TD*%
D17*
%TO.P,BZ1,1,+_1*%
%TO.N,+3V3*%
X100500000Y-141100000D03*
D18*
%TO.P,BZ1,2,-_2*%
%TO.N,Net-(BZ1--)*%
X100500000Y-133500000D03*
%TD*%
D19*
%TO.P,D4,1,K_1*%
%TO.N,Net-(D4-K)*%
X148000000Y-126040000D03*
D20*
%TO.P,D4,2,A_2*%
%TO.N,Net-(D4-A)*%
X148000000Y-123500000D03*
%TD*%
D17*
%TO.P,SW5,A,A_A*%
%TO.N,/IO0*%
X91500000Y-165000000D03*
D18*
%TO.P,SW5,B,B_B*%
%TO.N,/IO1*%
X91500000Y-170000000D03*
%TO.P,SW5,C,C_C*%
%TO.N,GND*%
X91500000Y-167500000D03*
D21*
%TO.P,SW5,MP*%
%TO.N,N/C*%
X99000000Y-161900000D03*
X99000000Y-173100000D03*
D18*
%TO.P,SW5,S1,S1_S1*%
%TO.N,/IO2*%
X106000000Y-170000000D03*
%TO.P,SW5,S2,S2_S2*%
%TO.N,GND*%
X106000000Y-165000000D03*
%TD*%
D22*
%TO.P,BT1,1,+_1*%
%TO.N,Net-(BT1-+)*%
X151450000Y-155400000D03*
D23*
%TO.P,BT1,2,-_2*%
%TO.N,GND*%
X151450000Y-153400000D03*
%TD*%
D24*
%TO.P,J1,SH,SHIELD_SH*%
%TO.N,unconnected-(J1-SHIELD-PadSH)_2*%
X120570000Y-140030000D03*
D25*
%TO.N,unconnected-(J1-SHIELD-PadSH)*%
X120570000Y-135850000D03*
D24*
%TO.N,unconnected-(J1-SHIELD-PadSH)_3*%
X111930000Y-140030000D03*
D25*
%TO.N,unconnected-(J1-SHIELD-PadSH)_1*%
X111930000Y-135850000D03*
%TD*%
D26*
%TO.P,U4,19,GND_19*%
%TO.N,GND*%
X127500000Y-155450000D03*
X127500000Y-154350000D03*
X126950000Y-156000000D03*
X126950000Y-154900000D03*
X126950000Y-153800000D03*
X126400000Y-155450000D03*
X126400000Y-154350000D03*
X125850000Y-156000000D03*
X125850000Y-154900000D03*
X125850000Y-153800000D03*
X125300000Y-155450000D03*
X125300000Y-154350000D03*
%TD*%
D27*
%TO.N,Net-(Q3-G)*%
X145100000Y-114000000D03*
X141400000Y-113800000D03*
%TO.N,GND*%
X107800000Y-107800000D03*
X126787400Y-147027500D03*
X137143400Y-148246700D03*
X107600000Y-112800000D03*
X138505000Y-142151700D03*
X137400000Y-107500000D03*
X120483900Y-141759500D03*
X137200000Y-112200000D03*
X155650800Y-153591600D03*
X125603600Y-135221400D03*
X99851200Y-165016700D03*
X142500000Y-132500000D03*
X99746800Y-152728200D03*
X147500000Y-138440000D03*
X111031900Y-154028100D03*
X122921000Y-139960200D03*
X96500000Y-146171500D03*
X141200000Y-114700000D03*
X98848300Y-164328200D03*
X140600000Y-112400000D03*
X128000000Y-146961300D03*
X105400000Y-116600000D03*
X107455000Y-153878500D03*
X106900000Y-106900000D03*
X147500000Y-141117500D03*
X137400000Y-105300000D03*
X143600000Y-114700000D03*
X124102300Y-136353400D03*
X113000000Y-142176600D03*
X121325000Y-145201300D03*
%TO.N,Net-(Q2-G)*%
X115080300Y-145042500D03*
X151909800Y-119541900D03*
%TO.N,Net-(J3-In)*%
X133700000Y-113700000D03*
X104700000Y-113800000D03*
X116000000Y-113500000D03*
X132400000Y-113700000D03*
X114700000Y-113500000D03*
X106800000Y-113800000D03*
%TO.N,Net-(D2-A)*%
X143400000Y-118500000D03*
X145200000Y-120300000D03*
%TO.N,/VBAT_SYS*%
X148500000Y-133922700D03*
X122907800Y-127860000D03*
X143300000Y-128700000D03*
%TO.N,Net-(BT1-+)*%
X151754500Y-149450000D03*
X159096200Y-157022400D03*
X153304400Y-142919400D03*
%TO.N,+5V*%
X118700000Y-142614900D03*
X128000000Y-143035900D03*
X157500000Y-171925100D03*
X157000000Y-165824900D03*
%TO.N,Net-(U1-PROG)*%
X152963100Y-172124400D03*
X156409700Y-164302400D03*
%TO.N,+3V3*%
X106900000Y-108700000D03*
X137600000Y-102000000D03*
X104000000Y-107800000D03*
X106200000Y-105800000D03*
X136600000Y-105600000D03*
X112500000Y-121300000D03*
X106000000Y-107800000D03*
X102250200Y-152937500D03*
X109300000Y-98800000D03*
X137403400Y-160815000D03*
X111400000Y-120400000D03*
X106800000Y-103600000D03*
X108900000Y-115000000D03*
X141685700Y-158847500D03*
X140010000Y-145015700D03*
%TO.N,/BAT_SENSE*%
X126500000Y-130400000D03*
X121800000Y-124800000D03*
X126300000Y-132700000D03*
X113300000Y-118600000D03*
X122883800Y-143016700D03*
%TO.N,/GPIO_10*%
X102000000Y-146490000D03*
X119681800Y-112918200D03*
X117576600Y-148213800D03*
%TO.N,Net-(U3-RESET)*%
X133712000Y-118248300D03*
%TO.N,Net-(U3-SCK)*%
X134295400Y-117260800D03*
%TO.N,+3.3V*%
X140764200Y-136905900D03*
X136104500Y-143102900D03*
%TO.N,Net-(J2-Pin_5)*%
X132400000Y-133600000D03*
X119100000Y-114100000D03*
X103900000Y-110800000D03*
X137700000Y-134700000D03*
%TO.N,/SDA*%
X106820000Y-126831900D03*
X106820000Y-152544900D03*
X117361600Y-151860000D03*
X113100000Y-114200000D03*
%TO.N,/SCL*%
X117374000Y-150397400D03*
X108090000Y-152211100D03*
X109234700Y-122507200D03*
%TO.N,/IO1*%
X106820000Y-157193900D03*
%TO.N,Net-(BZ1--)*%
X98809900Y-149595800D03*
%TO.N,/IO0*%
X100780700Y-158847500D03*
%TO.N,Net-(D3-DIN)*%
X142622700Y-150862700D03*
X127500000Y-139917200D03*
%TO.N,Net-(U4-EN)*%
X137347200Y-159335300D03*
X96402900Y-109140400D03*
X149750000Y-161920000D03*
X149750000Y-164757500D03*
%TO.N,/GPIO-0*%
X123511700Y-141899200D03*
X116892200Y-129479700D03*
%TO.N,Net-(D1-A)*%
X157500000Y-168060400D03*
X158375800Y-156631900D03*
%TD*%
%TO.N,Net-(Q3-G)*%
D28*
X144900000Y-113800000D02*
X145100000Y-114000000D01*
X141400000Y-113800000D02*
X144900000Y-113800000D01*
%TO.N,GND*%
D29*
X107604600Y-154028100D02*
X111031900Y-154028100D01*
X113417100Y-141759500D02*
X113000000Y-142176600D01*
X126787400Y-147027500D02*
X124961200Y-145201300D01*
D28*
X140600000Y-112400000D02*
X137400000Y-112400000D01*
D29*
X128000000Y-146961300D02*
X135858000Y-146961300D01*
X99867900Y-165000000D02*
X99851200Y-165016700D01*
X94671800Y-164328200D02*
X98848300Y-164328200D01*
X155459200Y-153400000D02*
X155650800Y-153591600D01*
X142500000Y-132500000D02*
X147500000Y-137500000D01*
D28*
X107800000Y-107800000D02*
X106900000Y-106900000D01*
D29*
X100897100Y-153878500D02*
X107455000Y-153878500D01*
X121121700Y-141759500D02*
X122921000Y-139960200D01*
D28*
X141200000Y-114700000D02*
X143600000Y-114700000D01*
D29*
X127500000Y-155450000D02*
X126950000Y-156000000D01*
X96500000Y-146171500D02*
X96500000Y-149481400D01*
X127500000Y-155450000D02*
X126950000Y-154900000D01*
X139539200Y-141117500D02*
X147500000Y-141117500D01*
X126400000Y-154350000D02*
X126950000Y-153800000D01*
D28*
X107600000Y-114400000D02*
X107600000Y-112800000D01*
D29*
X126400000Y-154350000D02*
X125850000Y-153800000D01*
D28*
X141200000Y-114700000D02*
X140600000Y-114100000D01*
D29*
X138505000Y-142151700D02*
X139539200Y-141117500D01*
X107455000Y-153878500D02*
X107604600Y-154028100D01*
X135858000Y-146961300D02*
X137143400Y-148246700D01*
X124961200Y-145201300D02*
X121325000Y-145201300D01*
X106000000Y-165000000D02*
X99867900Y-165000000D01*
D28*
X137400000Y-107500000D02*
X137400000Y-105300000D01*
D29*
X125300000Y-154350000D02*
X125850000Y-153800000D01*
X120483900Y-141759500D02*
X113417100Y-141759500D01*
X151450000Y-153400000D02*
X155459200Y-153400000D01*
D28*
X137400000Y-112400000D02*
X137200000Y-112200000D01*
D29*
X126950000Y-156000000D02*
X126400000Y-155450000D01*
X120483900Y-141759500D02*
X121121700Y-141759500D01*
X147500000Y-137500000D02*
X147500000Y-138440000D01*
D28*
X105400000Y-116600000D02*
X107600000Y-114400000D01*
D29*
X99746800Y-152728200D02*
X100897100Y-153878500D01*
X124471600Y-136353400D02*
X125603600Y-135221400D01*
X126400000Y-155450000D02*
X125850000Y-156000000D01*
X124102300Y-136353400D02*
X124471600Y-136353400D01*
X126400000Y-155450000D02*
X125850000Y-154900000D01*
X96500000Y-149481400D02*
X99746800Y-152728200D01*
D28*
X140600000Y-114100000D02*
X140600000Y-112400000D01*
D29*
X127500000Y-154350000D02*
X126950000Y-153800000D01*
X125850000Y-156000000D02*
X125300000Y-155450000D01*
X91500000Y-167500000D02*
X94671800Y-164328200D01*
%TO.N,Net-(Q2-G)*%
X114968100Y-145042500D02*
X115080300Y-145042500D01*
X112365600Y-142440000D02*
X114968100Y-145042500D01*
X149533400Y-121918300D02*
X125589500Y-121918300D01*
X114801700Y-130688800D02*
X114801700Y-139546400D01*
X116924800Y-128565700D02*
X114801700Y-130688800D01*
X114801700Y-139546400D02*
X112365600Y-141982500D01*
X118942100Y-128565700D02*
X116924800Y-128565700D01*
X151909800Y-119541900D02*
X149533400Y-121918300D01*
X125589500Y-121918300D02*
X118942100Y-128565700D01*
X112365600Y-141982500D02*
X112365600Y-142440000D01*
%TO.N,Net-(J3-In)*%
D28*
X132400000Y-113700000D02*
X133700000Y-113700000D01*
X114700000Y-113500000D02*
X116000000Y-113500000D01*
X104700000Y-113800000D02*
X106800000Y-113800000D01*
%TO.N,Net-(D2-A)*%
X145200000Y-120300000D02*
X143400000Y-118500000D01*
%TO.N,/VBAT_SYS*%
D29*
X142437300Y-127860000D02*
X148500000Y-133922700D01*
X150657300Y-136080000D02*
X148500000Y-133922700D01*
X154500000Y-136080000D02*
X150657300Y-136080000D01*
D28*
X143300000Y-132100000D02*
X143300000Y-128700000D01*
D29*
X122907800Y-127860000D02*
X142437300Y-127860000D01*
%TO.N,Net-(BT1-+)*%
X158024500Y-155400000D02*
X151450000Y-155400000D01*
X151754500Y-149450000D02*
X153304400Y-147900100D01*
X151450000Y-155400000D02*
X150282900Y-154232900D01*
X150282900Y-154232900D02*
X150282900Y-150921600D01*
X159096200Y-156471700D02*
X158024500Y-155400000D01*
X159096200Y-157022400D02*
X159096200Y-156471700D01*
X150282900Y-150921600D02*
X151754500Y-149450000D01*
X153304400Y-147900100D02*
X153304400Y-142919400D01*
%TO.N,+5V*%
X156873700Y-171298800D02*
X156873700Y-165951200D01*
X129883700Y-147709600D02*
X127919000Y-147709600D01*
X157500000Y-171925100D02*
X156873700Y-171298800D01*
X135888300Y-153714200D02*
X129883700Y-147709600D01*
X152494400Y-159523500D02*
X141481400Y-159523500D01*
X127379700Y-143656200D02*
X119741300Y-143656200D01*
X119741300Y-143656200D02*
X118700000Y-142614900D01*
X127379700Y-147170300D02*
X127379700Y-143656200D01*
X135888300Y-153930400D02*
X135888300Y-153714200D01*
X157000000Y-165824900D02*
X157000000Y-164029100D01*
X127919000Y-147709600D02*
X127379700Y-147170300D01*
X141481400Y-159523500D02*
X135888300Y-153930400D01*
X156873700Y-165951200D02*
X157000000Y-165824900D01*
X157000000Y-164029100D02*
X152494400Y-159523500D01*
X127379700Y-143656200D02*
X128000000Y-143035900D01*
%TO.N,Net-(U1-PROG)*%
X152963100Y-172124400D02*
X156409700Y-168677800D01*
X156409700Y-168677800D02*
X156409700Y-164302400D01*
%TO.N,+3V3*%
D28*
X106800000Y-103600000D02*
X106800000Y-101300000D01*
X106900000Y-108700000D02*
X106000000Y-107800000D01*
D29*
X140010000Y-145015700D02*
X143221700Y-148227400D01*
X143221700Y-148227400D02*
X143221700Y-157311500D01*
D28*
X106000000Y-107800000D02*
X104000000Y-107800000D01*
X111400000Y-120400000D02*
X111600000Y-120400000D01*
D29*
X121920200Y-160815000D02*
X137403400Y-160815000D01*
X114358000Y-153252800D02*
X121920200Y-160815000D01*
X143221700Y-157311500D02*
X141685700Y-158847500D01*
D28*
X106800000Y-105200000D02*
X106800000Y-103600000D01*
D29*
X102565500Y-153252800D02*
X114358000Y-153252800D01*
D28*
X106800000Y-101300000D02*
X109300000Y-98800000D01*
X106200000Y-105800000D02*
X106800000Y-105200000D01*
D29*
X108920000Y-111500000D02*
X108900000Y-111500000D01*
D28*
X137600000Y-102000000D02*
X137600000Y-104000000D01*
X137600000Y-104000000D02*
X136600000Y-105000000D01*
X111600000Y-120400000D02*
X112500000Y-121300000D01*
D29*
X102250200Y-152937500D02*
X102565500Y-153252800D01*
D28*
X136600000Y-105000000D02*
X136600000Y-105600000D01*
X108900000Y-115000000D02*
X108900000Y-111500000D01*
%TO.N,/BAT_SENSE*%
X126300000Y-132700000D02*
X126500000Y-132500000D01*
D29*
X122883800Y-143016700D02*
X123232800Y-143016700D01*
D28*
X121800000Y-124800000D02*
X119500000Y-124800000D01*
X119500000Y-124800000D02*
X113300000Y-118600000D01*
D29*
X123232800Y-143016700D02*
X126300000Y-139949500D01*
D28*
X126300000Y-132700000D02*
X126300000Y-139200000D01*
X126500000Y-132500000D02*
X126500000Y-130400000D01*
D29*
X126300000Y-139949500D02*
X126300000Y-139200000D01*
%TO.N,/GPIO_10*%
D28*
X113540990Y-118018200D02*
X113059010Y-118018200D01*
X117428810Y-148213800D02*
X117576600Y-148213800D01*
D29*
X103723800Y-148213800D02*
X117576600Y-148213800D01*
D28*
X114420000Y-120542790D02*
X114420000Y-139388294D01*
X112718200Y-118359010D02*
X112718200Y-118840990D01*
X111983900Y-142768890D02*
X117428810Y-148213800D01*
X111983900Y-141824395D02*
X111983900Y-142768890D01*
X119681800Y-112918200D02*
X119681800Y-124159010D01*
X113059010Y-118018200D02*
X112718200Y-118359010D01*
X112718200Y-118840990D02*
X114420000Y-120542790D01*
X119681800Y-124159010D02*
X113540990Y-118018200D01*
X114420000Y-139388294D02*
X111983900Y-141824395D01*
D29*
X102000000Y-146490000D02*
X103723800Y-148213800D01*
%TO.N,Net-(U3-RESET)*%
X122540000Y-107076300D02*
X122540000Y-91520000D01*
X133712000Y-118248300D02*
X122540000Y-107076300D01*
%TO.N,Net-(U3-SCK)*%
X130160000Y-113125400D02*
X134295400Y-117260800D01*
X130160000Y-91520000D02*
X130160000Y-113125400D01*
%TO.N,+3.3V*%
X140764200Y-138443200D02*
X136104500Y-143102900D01*
X140764200Y-136905900D02*
X140764200Y-138443200D01*
%TO.N,Net-(J2-Pin_5)*%
D28*
X117900000Y-110300000D02*
X107900000Y-110300000D01*
X119100000Y-111500000D02*
X119100000Y-114100000D01*
X136600000Y-133600000D02*
X137700000Y-134700000D01*
D29*
X119080000Y-111500000D02*
X119100000Y-111500000D01*
D28*
X107400000Y-110800000D02*
X103900000Y-110800000D01*
X107900000Y-110300000D02*
X107400000Y-110800000D01*
X119100000Y-111500000D02*
X117900000Y-110300000D01*
X132400000Y-133600000D02*
X136600000Y-133600000D01*
%TO.N,/SDA*%
D29*
X108649400Y-118650600D02*
X108649400Y-125002500D01*
X108649400Y-125002500D02*
X106820000Y-126831900D01*
D28*
X113100000Y-114200000D02*
X113100000Y-112400000D01*
D29*
X107102000Y-152826900D02*
X106820000Y-152544900D01*
D28*
X113100000Y-112400000D02*
X114000000Y-111500000D01*
D29*
X113100000Y-114200000D02*
X108649400Y-118650600D01*
X116394700Y-152826900D02*
X107102000Y-152826900D01*
X117361600Y-151860000D02*
X116394700Y-152826900D01*
%TO.N,/SCL*%
X113805200Y-113567000D02*
X113805200Y-114497700D01*
X109234700Y-119068200D02*
X109234700Y-122507200D01*
X115560300Y-152211100D02*
X108090000Y-152211100D01*
X115872200Y-111500000D02*
X113805200Y-113567000D01*
X117374000Y-150397400D02*
X115560300Y-152211100D01*
X113805200Y-114497700D02*
X109234700Y-119068200D01*
X116540000Y-111500000D02*
X115872200Y-111500000D01*
%TO.N,/IO1*%
X106820000Y-157193900D02*
X94013900Y-170000000D01*
X94013900Y-170000000D02*
X91500000Y-170000000D01*
%TO.N,Net-(BZ1--)*%
X100500000Y-133500000D02*
X98809900Y-135190100D01*
X98809900Y-135190100D02*
X98809900Y-149595800D01*
%TO.N,/IO0*%
X91500000Y-165000000D02*
X92783400Y-165000000D01*
X98935900Y-158847500D02*
X92783400Y-165000000D01*
X100780700Y-158847500D02*
X98935900Y-158847500D01*
%TO.N,Net-(D3-DIN)*%
X131677200Y-139917200D02*
X127500000Y-139917200D01*
X142622700Y-150862700D02*
X131677200Y-139917200D01*
%TO.N,Net-(U4-EN)*%
X149149900Y-161319900D02*
X149750000Y-161920000D01*
X116857600Y-148871200D02*
X103544500Y-148871200D01*
X101411600Y-145959500D02*
X101809300Y-145561800D01*
X101411600Y-146738300D02*
X101411600Y-145959500D01*
X101809300Y-145561800D02*
X101809300Y-114546800D01*
X103544500Y-148871200D02*
X101411600Y-146738300D01*
X137347200Y-159335300D02*
X127321700Y-159335300D01*
X139331800Y-161319900D02*
X149149900Y-161319900D01*
X137347200Y-159335300D02*
X139331800Y-161319900D01*
X127321700Y-159335300D02*
X116857600Y-148871200D01*
X101809300Y-114546800D02*
X96402900Y-109140400D01*
%TO.N,/GPIO-0*%
X116892200Y-129479700D02*
X123511700Y-136099200D01*
X123511700Y-136099200D02*
X123511700Y-141899200D01*
%TO.N,Net-(D1-A)*%
X158375800Y-156631900D02*
X158375800Y-167184600D01*
X158375800Y-167184600D02*
X157500000Y-168060400D01*
%TD*%
%TA.AperFunction,Conductor*%
%TO.N,GND*%
G36*
X96818834Y-161916172D02*
G01*
X96874767Y-161958044D01*
X96899184Y-162023508D01*
X96899500Y-162032354D01*
X96899500Y-162947870D01*
X96899501Y-162947876D01*
X96905908Y-163007483D01*
X96956202Y-163142328D01*
X96956206Y-163142335D01*
X97042452Y-163257544D01*
X97042455Y-163257547D01*
X97157664Y-163343793D01*
X97157671Y-163343797D01*
X97292517Y-163394091D01*
X97292516Y-163394091D01*
X97299444Y-163394835D01*
X97352127Y-163400500D01*
X99464944Y-163400499D01*
X99531983Y-163420184D01*
X99577738Y-163472987D01*
X99587682Y-163542146D01*
X99558657Y-163605702D01*
X99552625Y-163612180D01*
X93801526Y-169363281D01*
X93740203Y-169396766D01*
X93713845Y-169399600D01*
X92954119Y-169399600D01*
X92887080Y-169379915D01*
X92843634Y-169331895D01*
X92783342Y-169213566D01*
X92644517Y-169022490D01*
X92477510Y-168855483D01*
X92421259Y-168814614D01*
X92378595Y-168759284D01*
X92373902Y-168727455D01*
X91629408Y-167982962D01*
X91692993Y-167965925D01*
X91807007Y-167900099D01*
X91900099Y-167807007D01*
X91965925Y-167692993D01*
X91982962Y-167629409D01*
X92722658Y-168369105D01*
X92722658Y-168369104D01*
X92782914Y-168286169D01*
X92782918Y-168286163D01*
X92890102Y-168075802D01*
X92963065Y-167851247D01*
X93000000Y-167618052D01*
X93000000Y-167381947D01*
X92963065Y-167148752D01*
X92890102Y-166924197D01*
X92782914Y-166713828D01*
X92713394Y-166618142D01*
X92689914Y-166552335D01*
X92705739Y-166484281D01*
X92739401Y-166445989D01*
X92742329Y-166443796D01*
X92742331Y-166443796D01*
X92857546Y-166357546D01*
X92943796Y-166242331D01*
X92994091Y-166107483D01*
X93000500Y-166047873D01*
X93000499Y-165639530D01*
X93020183Y-165572492D01*
X93062502Y-165532142D01*
X93070999Y-165527237D01*
X93152054Y-165480440D01*
X93263840Y-165368654D01*
X93263840Y-165368652D01*
X93274044Y-165358449D01*
X93274047Y-165358444D01*
X96687821Y-161944671D01*
X96749142Y-161911188D01*
X96818834Y-161916172D01*
G37*
%TD.AperFunction*%
%TA.AperFunction,Conductor*%
G36*
X159442539Y-25020185D02*
G01*
X159488294Y-25072989D01*
X159499500Y-25124500D01*
X159499500Y-155726544D01*
X159479815Y-155793583D01*
X159427011Y-155839338D01*
X159357853Y-155849282D01*
X159294297Y-155820257D01*
X159287819Y-155814225D01*
X158512010Y-155038417D01*
X158512008Y-155038414D01*
X158393156Y-154919562D01*
X158393154Y-154919560D01*
X158256248Y-154840517D01*
X158256247Y-154840516D01*
X158242780Y-154836908D01*
X158229315Y-154833300D01*
X158229312Y-154833299D01*
X158176156Y-154819056D01*
X158103545Y-154799600D01*
X158103544Y-154799600D01*
X152870955Y-154799600D01*
X152803916Y-154779915D01*
X152765335Y-154735745D01*
X152763605Y-154736813D01*
X152753488Y-154720410D01*
X152667712Y-154581344D01*
X152543656Y-154457288D01*
X152543655Y-154457287D01*
X152499988Y-154430353D01*
X152479018Y-154417419D01*
X152432294Y-154365472D01*
X152421071Y-154296510D01*
X152448914Y-154232428D01*
X152456434Y-154224199D01*
X152564035Y-154116598D01*
X152665804Y-153976524D01*
X152744408Y-153822255D01*
X152797914Y-153657584D01*
X152799115Y-153650000D01*
X151730330Y-153650000D01*
X151750075Y-153630255D01*
X151799444Y-153544745D01*
X151825000Y-153449370D01*
X151825000Y-153350630D01*
X151799444Y-153255255D01*
X151750075Y-153169745D01*
X151730330Y-153150000D01*
X152799115Y-153150000D01*
X152799115Y-153149999D01*
X152797914Y-153142415D01*
X152744408Y-152977744D01*
X152665804Y-152823475D01*
X152564032Y-152683397D01*
X152441602Y-152560967D01*
X152301524Y-152459195D01*
X152147257Y-152380591D01*
X151982584Y-152327085D01*
X151811571Y-152300000D01*
X151700000Y-152300000D01*
X151700000Y-153119670D01*
X151680255Y-153099925D01*
X151594745Y-153050556D01*
X151499370Y-153025000D01*
X151400630Y-153025000D01*
X151305255Y-153050556D01*
X151219745Y-153099925D01*
X151200000Y-153119670D01*
X151200000Y-152300000D01*
X151088428Y-152300000D01*
X151026697Y-152309777D01*
X150957404Y-152300822D01*
X150903952Y-152255826D01*
X150883313Y-152189074D01*
X150883300Y-152187304D01*
X150883300Y-151221655D01*
X150902985Y-151154616D01*
X150919619Y-151133974D01*
X151254962Y-150798631D01*
X151768986Y-150284607D01*
X151830307Y-150251124D01*
X151832474Y-150250673D01*
X151889555Y-150239318D01*
X151987997Y-150219737D01*
X152133679Y-150159394D01*
X152264789Y-150071789D01*
X152376289Y-149960289D01*
X152463894Y-149829179D01*
X152524237Y-149683497D01*
X152555000Y-149528842D01*
X152555173Y-149527973D01*
X152587558Y-149466062D01*
X152589052Y-149464540D01*
X153784840Y-148268754D01*
X153863884Y-148131846D01*
X153904800Y-147979144D01*
X153904800Y-143499315D01*
X153924485Y-143432276D01*
X153925698Y-143430424D01*
X154013790Y-143298585D01*
X154013790Y-143298584D01*
X154013794Y-143298579D01*
X154074137Y-143152897D01*
X154104900Y-142998242D01*
X154104900Y-142840558D01*
X154104900Y-142840555D01*
X154104899Y-142840553D01*
X154081814Y-142724499D01*
X154074137Y-142685903D01*
X154072619Y-142682238D01*
X154013797Y-142540227D01*
X154013790Y-142540214D01*
X153926189Y-142409111D01*
X153926186Y-142409107D01*
X153814692Y-142297613D01*
X153814688Y-142297610D01*
X153683585Y-142210009D01*
X153683572Y-142210002D01*
X153537901Y-142149664D01*
X153537889Y-142149661D01*
X153383245Y-142118900D01*
X153383242Y-142118900D01*
X153225558Y-142118900D01*
X153225555Y-142118900D01*
X153070910Y-142149661D01*
X153070898Y-142149664D01*
X152925227Y-142210002D01*
X152925214Y-142210009D01*
X152794111Y-142297610D01*
X152794107Y-142297613D01*
X152682613Y-142409107D01*
X152682610Y-142409111D01*
X152595009Y-142540214D01*
X152595002Y-142540227D01*
X152534664Y-142685898D01*
X152534661Y-142685910D01*
X152503900Y-142840553D01*
X152503900Y-142998246D01*
X152534661Y-143152889D01*
X152534664Y-143152901D01*
X152595002Y-143298572D01*
X152595009Y-143298585D01*
X152683102Y-143430424D01*
X152703980Y-143497101D01*
X152704000Y-143499315D01*
X152704000Y-147600044D01*
X152684315Y-147667083D01*
X152667681Y-147687725D01*
X151740016Y-148615390D01*
X151678693Y-148648875D01*
X151676527Y-148649326D01*
X151521008Y-148680261D01*
X151520998Y-148680264D01*
X151375327Y-148740602D01*
X151375314Y-148740609D01*
X151244211Y-148828210D01*
X151244207Y-148828213D01*
X151132713Y-148939707D01*
X151132710Y-148939711D01*
X151045109Y-149070814D01*
X151045102Y-149070827D01*
X150984764Y-149216498D01*
X150984761Y-149216508D01*
X150953826Y-149372026D01*
X150921441Y-149433937D01*
X150919890Y-149435515D01*
X149914248Y-150441158D01*
X149802462Y-150552943D01*
X149802458Y-150552949D01*
X149733172Y-150672956D01*
X149723417Y-150689851D01*
X149694270Y-150798631D01*
X149682500Y-150842555D01*
X149682500Y-154311944D01*
X149696766Y-154365186D01*
X149723416Y-154464647D01*
X149723417Y-154464648D01*
X149802460Y-154601554D01*
X149802462Y-154601556D01*
X149921311Y-154720405D01*
X149921317Y-154720410D01*
X150044550Y-154843643D01*
X150078035Y-154904966D01*
X150080227Y-154943925D01*
X150074500Y-154999979D01*
X150074500Y-155800001D01*
X150074501Y-155800019D01*
X150085000Y-155902796D01*
X150085001Y-155902799D01*
X150117343Y-156000400D01*
X150140186Y-156069334D01*
X150232288Y-156218656D01*
X150356344Y-156342712D01*
X150505666Y-156434814D01*
X150672203Y-156489999D01*
X150774991Y-156500500D01*
X152125008Y-156500499D01*
X152227797Y-156489999D01*
X152394334Y-156434814D01*
X152543656Y-156342712D01*
X152667712Y-156218656D01*
X152759814Y-156069334D01*
X152759815Y-156069331D01*
X152763605Y-156063187D01*
X152765370Y-156064276D01*
X152804742Y-156019558D01*
X152870955Y-156000400D01*
X157603013Y-156000400D01*
X157670052Y-156020085D01*
X157715807Y-156072889D01*
X157725751Y-156142047D01*
X157706115Y-156193291D01*
X157666409Y-156252714D01*
X157666402Y-156252727D01*
X157606064Y-156398398D01*
X157606061Y-156398410D01*
X157575300Y-156553053D01*
X157575300Y-156710746D01*
X157606061Y-156865389D01*
X157606064Y-156865401D01*
X157666402Y-157011072D01*
X157666409Y-157011085D01*
X157754502Y-157142924D01*
X157775380Y-157209601D01*
X157775400Y-157211815D01*
X157775400Y-163708557D01*
X157755715Y-163775596D01*
X157702911Y-163821351D01*
X157633753Y-163831295D01*
X157570197Y-163802270D01*
X157544013Y-163770557D01*
X157526403Y-163740056D01*
X157480440Y-163660446D01*
X157368654Y-163548660D01*
X157368653Y-163548659D01*
X152981909Y-159161916D01*
X152981908Y-159161914D01*
X152863056Y-159043062D01*
X152863054Y-159043060D01*
X152726148Y-158964017D01*
X152726147Y-158964016D01*
X152711413Y-158960068D01*
X152696681Y-158956121D01*
X152696678Y-158956120D01*
X152644593Y-158942164D01*
X152573445Y-158923100D01*
X152573444Y-158923100D01*
X142758555Y-158923100D01*
X142691516Y-158903415D01*
X142645761Y-158850611D01*
X142635817Y-158781453D01*
X142664842Y-158717897D01*
X142670874Y-158711419D01*
X142847493Y-158534800D01*
X143580144Y-157802147D01*
X143580149Y-157802144D01*
X143590352Y-157791940D01*
X143590354Y-157791940D01*
X143702140Y-157680154D01*
X143781184Y-157543246D01*
X143782152Y-157539632D01*
X143792012Y-157502839D01*
X143803024Y-157461736D01*
X143822100Y-157390545D01*
X143822100Y-157232455D01*
X143822100Y-148148356D01*
X143781184Y-147995654D01*
X143702140Y-147858746D01*
X143590354Y-147746960D01*
X143590353Y-147746959D01*
X140844609Y-145001215D01*
X140811124Y-144939892D01*
X140810673Y-144937725D01*
X140779738Y-144782210D01*
X140779737Y-144782203D01*
X140779735Y-144782198D01*
X140719397Y-144636527D01*
X140719390Y-144636514D01*
X140631789Y-144505411D01*
X140631786Y-144505407D01*
X140520292Y-144393913D01*
X140520288Y-144393910D01*
X140389185Y-144306309D01*
X140389172Y-144306302D01*
X140243501Y-144245964D01*
X140243489Y-144245961D01*
X140088845Y-144215200D01*
X140088842Y-144215200D01*
X139931158Y-144215200D01*
X139931155Y-144215200D01*
X139776510Y-144245961D01*
X139776498Y-144245964D01*
X139630827Y-144306302D01*
X139630814Y-144306309D01*
X139499711Y-144393910D01*
X139499707Y-144393913D01*
X139388213Y-144505407D01*
X139388210Y-144505411D01*
X139300609Y-144636514D01*
X139300602Y-144636527D01*
X139240264Y-144782198D01*
X139240261Y-144782210D01*
X139209500Y-144936853D01*
X139209500Y-145094546D01*
X139240261Y-145249189D01*
X139240264Y-145249201D01*
X139300602Y-145394872D01*
X139300609Y-145394885D01*
X139388210Y-145525988D01*
X139388213Y-145525992D01*
X139499707Y-145637486D01*
X139499711Y-145637489D01*
X139630814Y-145725090D01*
X139630827Y-145725097D01*
X139745108Y-145772433D01*
X139776503Y-145785437D01*
X139859502Y-145801946D01*
X139932026Y-145816373D01*
X139993937Y-145848758D01*
X139995516Y-145850309D01*
X142584981Y-148439774D01*
X142618466Y-148501097D01*
X142621300Y-148527455D01*
X142621300Y-149712844D01*
X142601615Y-149779883D01*
X142548811Y-149825638D01*
X142479653Y-149835582D01*
X142416097Y-149806557D01*
X142409619Y-149800525D01*
X136553178Y-143944084D01*
X136519693Y-143882761D01*
X136524677Y-143813069D01*
X136566549Y-143757136D01*
X136571957Y-143753307D01*
X136614789Y-143724689D01*
X136726289Y-143613189D01*
X136813894Y-143482079D01*
X136874237Y-143336397D01*
X136905000Y-143181742D01*
X136905173Y-143180873D01*
X136937558Y-143118962D01*
X136939053Y-143117439D01*
X141244640Y-138811854D01*
X141323684Y-138674946D01*
X141364600Y-138522245D01*
X141364600Y-138364155D01*
X141364600Y-137485815D01*
X141384285Y-137418776D01*
X141385498Y-137416924D01*
X141473590Y-137285085D01*
X141473590Y-137285084D01*
X141473594Y-137285079D01*
X141533937Y-137139397D01*
X141564700Y-136984742D01*
X141564700Y-136827058D01*
X141564700Y-136827055D01*
X141564699Y-136827053D01*
X141539443Y-136700085D01*
X141533937Y-136672403D01*
X141513855Y-136623920D01*
X141473597Y-136526727D01*
X141473590Y-136526714D01*
X141385989Y-136395611D01*
X141385986Y-136395607D01*
X141274492Y-136284113D01*
X141274488Y-136284110D01*
X141143385Y-136196509D01*
X141143372Y-136196502D01*
X140997701Y-136136164D01*
X140997689Y-136136161D01*
X140843045Y-136105400D01*
X140843042Y-136105400D01*
X140685358Y-136105400D01*
X140685355Y-136105400D01*
X140530710Y-136136161D01*
X140530698Y-136136164D01*
X140385027Y-136196502D01*
X140385014Y-136196509D01*
X140253911Y-136284110D01*
X140253907Y-136284113D01*
X140142413Y-136395607D01*
X140142410Y-136395611D01*
X140054809Y-136526714D01*
X140054802Y-136526727D01*
X139994464Y-136672398D01*
X139994461Y-136672410D01*
X139963700Y-136827053D01*
X139963700Y-136984746D01*
X139994461Y-137139389D01*
X139994464Y-137139401D01*
X140054802Y-137285072D01*
X140054809Y-137285085D01*
X140142902Y-137416924D01*
X140163780Y-137483601D01*
X140163800Y-137485815D01*
X140163800Y-138143144D01*
X140144115Y-138210183D01*
X140127481Y-138230825D01*
X136090016Y-142268290D01*
X136028693Y-142301775D01*
X136026527Y-142302226D01*
X135871008Y-142333161D01*
X135870998Y-142333164D01*
X135725327Y-142393502D01*
X135725314Y-142393509D01*
X135594211Y-142481110D01*
X135594207Y-142481113D01*
X135482711Y-142592609D01*
X135454097Y-142635433D01*
X135400484Y-142680237D01*
X135331159Y-142688943D01*
X135268132Y-142658787D01*
X135263315Y-142654221D01*
X132164710Y-139555617D01*
X132164708Y-139555614D01*
X132045856Y-139436762D01*
X132045854Y-139436760D01*
X131908946Y-139357716D01*
X131756245Y-139316800D01*
X131756244Y-139316800D01*
X128079915Y-139316800D01*
X128012876Y-139297115D01*
X128011024Y-139295902D01*
X127879185Y-139207809D01*
X127879172Y-139207802D01*
X127733501Y-139147464D01*
X127733489Y-139147461D01*
X127578845Y-139116700D01*
X127578842Y-139116700D01*
X127421158Y-139116700D01*
X127421155Y-139116700D01*
X127266510Y-139147461D01*
X127266498Y-139147464D01*
X127120827Y-139207802D01*
X127120816Y-139207808D01*
X127093390Y-139226134D01*
X127026712Y-139247011D01*
X126959332Y-139228526D01*
X126912643Y-139176546D01*
X126900500Y-139123031D01*
X126900500Y-133521153D01*
X131599500Y-133521153D01*
X131599500Y-133678846D01*
X131630261Y-133833489D01*
X131630264Y-133833501D01*
X131690602Y-133979172D01*
X131690609Y-133979185D01*
X131778210Y-134110288D01*
X131778213Y-134110292D01*
X131889707Y-134221786D01*
X131889711Y-134221789D01*
X132020814Y-134309390D01*
X132020827Y-134309397D01*
X132166498Y-134369735D01*
X132166503Y-134369737D01*
X132321153Y-134400499D01*
X132321156Y-134400500D01*
X132321158Y-134400500D01*
X132478844Y-134400500D01*
X132478845Y-134400499D01*
X132633497Y-134369737D01*
X132751592Y-134320821D01*
X132779172Y-134309397D01*
X132779172Y-134309396D01*
X132779179Y-134309394D01*
X132790426Y-134301879D01*
X132910875Y-134221398D01*
X132977553Y-134200520D01*
X132979766Y-134200500D01*
X136299903Y-134200500D01*
X136366942Y-134220185D01*
X136387584Y-134236819D01*
X136865425Y-134714660D01*
X136898910Y-134775983D01*
X136899361Y-134778149D01*
X136930261Y-134933491D01*
X136930264Y-134933501D01*
X136990602Y-135079172D01*
X136990609Y-135079185D01*
X137078210Y-135210288D01*
X137078213Y-135210292D01*
X137189707Y-135321786D01*
X137189711Y-135321789D01*
X137320814Y-135409390D01*
X137320827Y-135409397D01*
X137466498Y-135469735D01*
X137466503Y-135469737D01*
X137621153Y-135500499D01*
X137621156Y-135500500D01*
X137621158Y-135500500D01*
X137778844Y-135500500D01*
X137778845Y-135500499D01*
X137933497Y-135469737D01*
X138046166Y-135423067D01*
X138079172Y-135409397D01*
X138079172Y-135409396D01*
X138079179Y-135409394D01*
X138210289Y-135321789D01*
X138321789Y-135210289D01*
X138409394Y-135079179D01*
X138410213Y-135077203D01*
X138441984Y-135000500D01*
X138469737Y-134933497D01*
X138500500Y-134778842D01*
X138500500Y-134621158D01*
X138500500Y-134621155D01*
X138500499Y-134621153D01*
X138469738Y-134466510D01*
X138469737Y-134466503D01*
X138469735Y-134466498D01*
X138409397Y-134320827D01*
X138409390Y-134320814D01*
X138321789Y-134189711D01*
X138321786Y-134189707D01*
X138210292Y-134078213D01*
X138210288Y-134078210D01*
X138079185Y-133990609D01*
X138079172Y-133990602D01*
X137933501Y-133930264D01*
X137933491Y-133930261D01*
X137778149Y-133899361D01*
X137716238Y-133866976D01*
X137714660Y-133865425D01*
X137087590Y-133238355D01*
X137087588Y-133238352D01*
X136968717Y-133119481D01*
X136968716Y-133119480D01*
X136864960Y-133059577D01*
X136864959Y-133059576D01*
X136831783Y-133040422D01*
X136775881Y-133025443D01*
X136679057Y-132999499D01*
X136520943Y-132999499D01*
X136513347Y-132999499D01*
X136513331Y-132999500D01*
X132979766Y-132999500D01*
X132912727Y-132979815D01*
X132910875Y-132978602D01*
X132779185Y-132890609D01*
X132779172Y-132890602D01*
X132633501Y-132830264D01*
X132633489Y-132830261D01*
X132478845Y-132799500D01*
X132478842Y-132799500D01*
X132321158Y-132799500D01*
X132321155Y-132799500D01*
X132166510Y-132830261D01*
X132166498Y-132830264D01*
X132020827Y-132890602D01*
X132020814Y-132890609D01*
X131889711Y-132978210D01*
X131889707Y-132978213D01*
X131778213Y-133089707D01*
X131778210Y-133089711D01*
X131690609Y-133220814D01*
X131690602Y-133220827D01*
X131630264Y-133366498D01*
X131630261Y-133366510D01*
X131599500Y-133521153D01*
X126900500Y-133521153D01*
X126900500Y-133279765D01*
X126920185Y-133212726D01*
X126921398Y-133210874D01*
X126980765Y-133122026D01*
X127009394Y-133079179D01*
X127069737Y-132933497D01*
X127100500Y-132778842D01*
X127100500Y-132621158D01*
X127100500Y-132621156D01*
X127099903Y-132615098D01*
X127100276Y-132615061D01*
X127098781Y-132599137D01*
X127098911Y-132584987D01*
X127100501Y-132579057D01*
X127100501Y-132420942D01*
X127100500Y-132420938D01*
X127100500Y-130979765D01*
X127120185Y-130912726D01*
X127121398Y-130910874D01*
X127209390Y-130779185D01*
X127209390Y-130779184D01*
X127209394Y-130779179D01*
X127269737Y-130633497D01*
X127300500Y-130478842D01*
X127300500Y-130321158D01*
X127300500Y-130321155D01*
X127300499Y-130321153D01*
X127274231Y-130189097D01*
X127269737Y-130166503D01*
X127242808Y-130101489D01*
X127209397Y-130020827D01*
X127209390Y-130020814D01*
X127121789Y-129889711D01*
X127121786Y-129889707D01*
X127010292Y-129778213D01*
X127010288Y-129778210D01*
X126879185Y-129690609D01*
X126879172Y-129690602D01*
X126733501Y-129630264D01*
X126733489Y-129630261D01*
X126578845Y-129599500D01*
X126578842Y-129599500D01*
X126421158Y-129599500D01*
X126421155Y-129599500D01*
X126266510Y-129630261D01*
X126266498Y-129630264D01*
X126120827Y-129690602D01*
X126120814Y-129690609D01*
X125989711Y-129778210D01*
X125989707Y-129778213D01*
X125878213Y-129889707D01*
X125878210Y-129889711D01*
X125790609Y-130020814D01*
X125790602Y-130020827D01*
X125730264Y-130166498D01*
X125730261Y-130166510D01*
X125699500Y-130321153D01*
X125699500Y-130478846D01*
X125730261Y-130633489D01*
X125730264Y-130633501D01*
X125790602Y-130779172D01*
X125790609Y-130779185D01*
X125878602Y-130910874D01*
X125899480Y-130977551D01*
X125899500Y-130979765D01*
X125899500Y-131938572D01*
X125879815Y-132005611D01*
X125844392Y-132041674D01*
X125789707Y-132078213D01*
X125678213Y-132189707D01*
X125678210Y-132189711D01*
X125590609Y-132320814D01*
X125590602Y-132320827D01*
X125530264Y-132466498D01*
X125530261Y-132466510D01*
X125499500Y-132621153D01*
X125499500Y-132778846D01*
X125530261Y-132933489D01*
X125530264Y-132933501D01*
X125590602Y-133079172D01*
X125590609Y-133079185D01*
X125678602Y-133210874D01*
X125699480Y-133277551D01*
X125699500Y-133279765D01*
X125699500Y-139286422D01*
X125699600Y-139287948D01*
X125699600Y-139649444D01*
X125679915Y-139716483D01*
X125663281Y-139737125D01*
X124323781Y-141076625D01*
X124262458Y-141110110D01*
X124192766Y-141105126D01*
X124136833Y-141063254D01*
X124112416Y-140997790D01*
X124112100Y-140988944D01*
X124112100Y-136020158D01*
X124112100Y-136020156D01*
X124071184Y-135867454D01*
X123992140Y-135730546D01*
X123880354Y-135618760D01*
X123880353Y-135618759D01*
X117726809Y-129465215D01*
X117717746Y-129448617D01*
X117704615Y-129435009D01*
X117694208Y-129405512D01*
X117693324Y-129403892D01*
X117692873Y-129401726D01*
X117675481Y-129314292D01*
X117681708Y-129244700D01*
X117724571Y-129189523D01*
X117790461Y-129166278D01*
X117797098Y-129166100D01*
X119021143Y-129166100D01*
X119021145Y-129166100D01*
X119173846Y-129125184D01*
X119192058Y-129114669D01*
X119310754Y-129046140D01*
X119422540Y-128934354D01*
X119422540Y-128934352D01*
X119432744Y-128924149D01*
X119432747Y-128924144D01*
X120575739Y-127781153D01*
X122107300Y-127781153D01*
X122107300Y-127938846D01*
X122138061Y-128093489D01*
X122138064Y-128093501D01*
X122198402Y-128239172D01*
X122198409Y-128239185D01*
X122286010Y-128370288D01*
X122286013Y-128370292D01*
X122397507Y-128481786D01*
X122397511Y-128481789D01*
X122528614Y-128569390D01*
X122528627Y-128569397D01*
X122653579Y-128621153D01*
X122674303Y-128629737D01*
X122828953Y-128660499D01*
X122828956Y-128660500D01*
X122828958Y-128660500D01*
X122986644Y-128660500D01*
X122986645Y-128660499D01*
X123141297Y-128629737D01*
X123286979Y-128569394D01*
X123418089Y-128481789D01*
X123418088Y-128481789D01*
X123418824Y-128481298D01*
X123485501Y-128460420D01*
X123487715Y-128460400D01*
X142137245Y-128460400D01*
X142204284Y-128480085D01*
X142224926Y-128496719D01*
X142471027Y-128742820D01*
X142504512Y-128804143D01*
X142504963Y-128806309D01*
X142530261Y-128933491D01*
X142530264Y-128933501D01*
X142590602Y-129079172D01*
X142590609Y-129079185D01*
X142678602Y-129210874D01*
X142699480Y-129277551D01*
X142699500Y-129279765D01*
X142699500Y-132179057D01*
X142737486Y-132320821D01*
X142740423Y-132331783D01*
X142740426Y-132331790D01*
X142819475Y-132468709D01*
X142819479Y-132468714D01*
X142819480Y-132468716D01*
X142931284Y-132580520D01*
X142931286Y-132580521D01*
X142931290Y-132580524D01*
X143068209Y-132659573D01*
X143068216Y-132659577D01*
X143220943Y-132700500D01*
X143220945Y-132700500D01*
X143379055Y-132700500D01*
X143379057Y-132700500D01*
X143531784Y-132659577D01*
X143668716Y-132580520D01*
X143780520Y-132468716D01*
X143859577Y-132331784D01*
X143900500Y-132179057D01*
X143900500Y-130471655D01*
X143920185Y-130404616D01*
X143972989Y-130358861D01*
X144042147Y-130348917D01*
X144105703Y-130377942D01*
X144112181Y-130383974D01*
X147665390Y-133937183D01*
X147698875Y-133998506D01*
X147699326Y-134000672D01*
X147730261Y-134156191D01*
X147730264Y-134156201D01*
X147790602Y-134301872D01*
X147790609Y-134301885D01*
X147878210Y-134432988D01*
X147878213Y-134432992D01*
X147989707Y-134544486D01*
X147989711Y-134544489D01*
X148120814Y-134632090D01*
X148120827Y-134632097D01*
X148266498Y-134692435D01*
X148266503Y-134692437D01*
X148349502Y-134708946D01*
X148422026Y-134723373D01*
X148483937Y-134755758D01*
X148485514Y-134757307D01*
X150288646Y-136560440D01*
X150425554Y-136639484D01*
X150578255Y-136680400D01*
X150578256Y-136680400D01*
X152775500Y-136680400D01*
X152842539Y-136700085D01*
X152888294Y-136752889D01*
X152899500Y-136804400D01*
X152899500Y-136980017D01*
X152910000Y-137082796D01*
X152919695Y-137112052D01*
X152965186Y-137249335D01*
X153057288Y-137398656D01*
X153181344Y-137522712D01*
X153330665Y-137614814D01*
X153497202Y-137669999D01*
X153599990Y-137680500D01*
X153599995Y-137680500D01*
X155400005Y-137680500D01*
X155400010Y-137680500D01*
X155502798Y-137669999D01*
X155669335Y-137614814D01*
X155818656Y-137522712D01*
X155942712Y-137398656D01*
X156034814Y-137249335D01*
X156089999Y-137082798D01*
X156100500Y-136980010D01*
X156100500Y-135179990D01*
X156089999Y-135077202D01*
X156034814Y-134910665D01*
X155942712Y-134761344D01*
X155818656Y-134637288D01*
X155669335Y-134545186D01*
X155502798Y-134490001D01*
X155502796Y-134490000D01*
X155400017Y-134479500D01*
X155400010Y-134479500D01*
X153599990Y-134479500D01*
X153599982Y-134479500D01*
X153497203Y-134490000D01*
X153497202Y-134490001D01*
X153414669Y-134517349D01*
X153330667Y-134545185D01*
X153330662Y-134545187D01*
X153181342Y-134637289D01*
X153057289Y-134761342D01*
X152965187Y-134910662D01*
X152965185Y-134910667D01*
X152937349Y-134994669D01*
X152910001Y-135077202D01*
X152910001Y-135077203D01*
X152910000Y-135077203D01*
X152899500Y-135179982D01*
X152899500Y-135355600D01*
X152879815Y-135422639D01*
X152827011Y-135468394D01*
X152775500Y-135479600D01*
X150957356Y-135479600D01*
X150890317Y-135459915D01*
X150869675Y-135443281D01*
X149334609Y-133908215D01*
X149301124Y-133846892D01*
X149300673Y-133844725D01*
X149269738Y-133689210D01*
X149269737Y-133689203D01*
X149240282Y-133618092D01*
X149209397Y-133543527D01*
X149209390Y-133543514D01*
X149121789Y-133412411D01*
X149121786Y-133412407D01*
X149010292Y-133300913D01*
X149010288Y-133300910D01*
X148879185Y-133213309D01*
X148879172Y-133213302D01*
X148733501Y-133152964D01*
X148733491Y-133152961D01*
X148577973Y-133122026D01*
X148516062Y-133089641D01*
X148514484Y-133088090D01*
X144136819Y-128710425D01*
X144103334Y-128649102D01*
X144100500Y-128622744D01*
X144100500Y-128621155D01*
X144100499Y-128621153D01*
X144075747Y-128496719D01*
X144069737Y-128466503D01*
X144067209Y-128460400D01*
X144009397Y-128320827D01*
X144009390Y-128320814D01*
X143921789Y-128189711D01*
X143921786Y-128189707D01*
X143810292Y-128078213D01*
X143810288Y-128078210D01*
X143679185Y-127990609D01*
X143679172Y-127990602D01*
X143533501Y-127930264D01*
X143533489Y-127930261D01*
X143378845Y-127899500D01*
X143378842Y-127899500D01*
X143377255Y-127899500D01*
X143376452Y-127899264D01*
X143372782Y-127898903D01*
X143372850Y-127898206D01*
X143310216Y-127879815D01*
X143289574Y-127863181D01*
X142924810Y-127498417D01*
X142924808Y-127498414D01*
X142805956Y-127379562D01*
X142805954Y-127379560D01*
X142669048Y-127300517D01*
X142669047Y-127300516D01*
X142647314Y-127294693D01*
X142625582Y-127288870D01*
X142625579Y-127288869D01*
X142579411Y-127276498D01*
X142516345Y-127259600D01*
X142516344Y-127259600D01*
X123487715Y-127259600D01*
X123420676Y-127239915D01*
X123418824Y-127238702D01*
X123286985Y-127150609D01*
X123286972Y-127150602D01*
X123141301Y-127090264D01*
X123141289Y-127090261D01*
X122986645Y-127059500D01*
X122986642Y-127059500D01*
X122828958Y-127059500D01*
X122828955Y-127059500D01*
X122674310Y-127090261D01*
X122674298Y-127090264D01*
X122528627Y-127150602D01*
X122528614Y-127150609D01*
X122397511Y-127238210D01*
X122397507Y-127238213D01*
X122286013Y-127349707D01*
X122286010Y-127349711D01*
X122198409Y-127480814D01*
X122198402Y-127480827D01*
X122138064Y-127626498D01*
X122138061Y-127626510D01*
X122107300Y-127781153D01*
X120575739Y-127781153D01*
X125801875Y-122555019D01*
X125863198Y-122521534D01*
X125889556Y-122518700D01*
X146738479Y-122518700D01*
X146805518Y-122538385D01*
X146851273Y-122591189D01*
X146861217Y-122660347D01*
X146838797Y-122715585D01*
X146802187Y-122765974D01*
X146702104Y-122962393D01*
X146702103Y-122962396D01*
X146633985Y-123172047D01*
X146599500Y-123389778D01*
X146599500Y-123610221D01*
X146633985Y-123827952D01*
X146702103Y-124037603D01*
X146702104Y-124037606D01*
X146757841Y-124146993D01*
X146783954Y-124198243D01*
X146802187Y-124234025D01*
X146931752Y-124412358D01*
X146931756Y-124412363D01*
X146981928Y-124462535D01*
X147015413Y-124523858D01*
X147010429Y-124593550D01*
X146968557Y-124649483D01*
X146937581Y-124666398D01*
X146857669Y-124696203D01*
X146857664Y-124696206D01*
X146742455Y-124782452D01*
X146742452Y-124782455D01*
X146656206Y-124897664D01*
X146656202Y-124897671D01*
X146605908Y-125032517D01*
X146599501Y-125092116D01*
X146599500Y-125092129D01*
X146599500Y-126987870D01*
X146599501Y-126987876D01*
X146605908Y-127047483D01*
X146656202Y-127182328D01*
X146656206Y-127182335D01*
X146742452Y-127297544D01*
X146742455Y-127297547D01*
X146857664Y-127383793D01*
X146857671Y-127383797D01*
X146992517Y-127434091D01*
X146992516Y-127434091D01*
X146999444Y-127434835D01*
X147052127Y-127440500D01*
X148947872Y-127440499D01*
X149007483Y-127434091D01*
X149142331Y-127383796D01*
X149257546Y-127297546D01*
X149343796Y-127182331D01*
X149394091Y-127047483D01*
X149400500Y-126987873D01*
X149400499Y-125794038D01*
X152899500Y-125794038D01*
X152899500Y-126045962D01*
X152911624Y-126122509D01*
X152938910Y-126294785D01*
X153016760Y-126534383D01*
X153049384Y-126598410D01*
X153128181Y-126753058D01*
X153131132Y-126758848D01*
X153279201Y-126962649D01*
X153279205Y-126962654D01*
X153457345Y-127140794D01*
X153457350Y-127140798D01*
X153593774Y-127239915D01*
X153661155Y-127288870D01*
X153804184Y-127361747D01*
X153885616Y-127403239D01*
X153885618Y-127403239D01*
X153885621Y-127403241D01*
X154125215Y-127481090D01*
X154374038Y-127520500D01*
X154374039Y-127520500D01*
X154625961Y-127520500D01*
X154625962Y-127520500D01*
X154874785Y-127481090D01*
X155114379Y-127403241D01*
X155338845Y-127288870D01*
X155542656Y-127140793D01*
X155720793Y-126962656D01*
X155868870Y-126758845D01*
X155983241Y-126534379D01*
X156061090Y-126294785D01*
X156100500Y-126045962D01*
X156100500Y-125794038D01*
X156061090Y-125545215D01*
X155983241Y-125305621D01*
X155983239Y-125305618D01*
X155983239Y-125305616D01*
X155941747Y-125224184D01*
X155868870Y-125081155D01*
X155833532Y-125032516D01*
X155720798Y-124877350D01*
X155720794Y-124877345D01*
X155542654Y-124699205D01*
X155542649Y-124699201D01*
X155338848Y-124551132D01*
X155338847Y-124551131D01*
X155338845Y-124551130D01*
X155268747Y-124515413D01*
X155114383Y-124436760D01*
X154874785Y-124358910D01*
X154625962Y-124319500D01*
X154374038Y-124319500D01*
X154249626Y-124339205D01*
X154125214Y-124358910D01*
X153885616Y-124436760D01*
X153661151Y-124551132D01*
X153457350Y-124699201D01*
X153457345Y-124699205D01*
X153279205Y-124877345D01*
X153279201Y-124877350D01*
X153131132Y-125081151D01*
X153016760Y-125305616D01*
X152938910Y-125545214D01*
X152899500Y-125794038D01*
X149400499Y-125794038D01*
X149400499Y-125092128D01*
X149394091Y-125032517D01*
X149343796Y-124897669D01*
X149343795Y-124897668D01*
X149343793Y-124897664D01*
X149257547Y-124782455D01*
X149257544Y-124782452D01*
X149142335Y-124696206D01*
X149142328Y-124696202D01*
X149062419Y-124666398D01*
X149006485Y-124624527D01*
X148982068Y-124559062D01*
X148996920Y-124490789D01*
X149018069Y-124462537D01*
X149068242Y-124412365D01*
X149197815Y-124234022D01*
X149297895Y-124037606D01*
X149366015Y-123827951D01*
X149400500Y-123610222D01*
X149400500Y-123389778D01*
X149366015Y-123172049D01*
X149297895Y-122962394D01*
X149297895Y-122962393D01*
X149259159Y-122886372D01*
X149197815Y-122765978D01*
X149179450Y-122740701D01*
X149161203Y-122715585D01*
X149137723Y-122649779D01*
X149153548Y-122581725D01*
X149203654Y-122533030D01*
X149261521Y-122518700D01*
X149612443Y-122518700D01*
X149612445Y-122518700D01*
X149765146Y-122477784D01*
X149902054Y-122398740D01*
X150013840Y-122286954D01*
X150013840Y-122286952D01*
X150024044Y-122276749D01*
X150024047Y-122276744D01*
X151924285Y-120376507D01*
X151985606Y-120343024D01*
X151987773Y-120342573D01*
X152018226Y-120336515D01*
X152143297Y-120311637D01*
X152288979Y-120251294D01*
X152420089Y-120163689D01*
X152531589Y-120052189D01*
X152619194Y-119921079D01*
X152679537Y-119775397D01*
X152710300Y-119620742D01*
X152710300Y-119463058D01*
X152710300Y-119463055D01*
X152710299Y-119463053D01*
X152691442Y-119368254D01*
X152679537Y-119308403D01*
X152676321Y-119300638D01*
X152619197Y-119162727D01*
X152619190Y-119162714D01*
X152531589Y-119031611D01*
X152531586Y-119031607D01*
X152420092Y-118920113D01*
X152420088Y-118920110D01*
X152288985Y-118832509D01*
X152288972Y-118832502D01*
X152143301Y-118772164D01*
X152143289Y-118772161D01*
X151988645Y-118741400D01*
X151988642Y-118741400D01*
X151830958Y-118741400D01*
X151830955Y-118741400D01*
X151676310Y-118772161D01*
X151676298Y-118772164D01*
X151530627Y-118832502D01*
X151530614Y-118832509D01*
X151399511Y-118920110D01*
X151399507Y-118920113D01*
X151288013Y-119031607D01*
X151288010Y-119031611D01*
X151200409Y-119162714D01*
X151200402Y-119162727D01*
X151140064Y-119308398D01*
X151140061Y-119308408D01*
X151109126Y-119463927D01*
X151076741Y-119525838D01*
X151075190Y-119527416D01*
X149321026Y-121281581D01*
X149259703Y-121315066D01*
X149233345Y-121317900D01*
X145444891Y-121317900D01*
X145377852Y-121298215D01*
X145332097Y-121245411D01*
X145322153Y-121176253D01*
X145351178Y-121112697D01*
X145409956Y-121074923D01*
X145420700Y-121072283D01*
X145426567Y-121071115D01*
X145433497Y-121069737D01*
X145579179Y-121009394D01*
X145710289Y-120921789D01*
X145821789Y-120810289D01*
X145909394Y-120679179D01*
X145969737Y-120533497D01*
X146000500Y-120378842D01*
X146000500Y-120221158D01*
X146000500Y-120221155D01*
X146000499Y-120221153D01*
X145989627Y-120166498D01*
X145969737Y-120066503D01*
X145950818Y-120020827D01*
X145909397Y-119920827D01*
X145909390Y-119920814D01*
X145821789Y-119789711D01*
X145821786Y-119789707D01*
X145710292Y-119678213D01*
X145710288Y-119678210D01*
X145579185Y-119590609D01*
X145579172Y-119590602D01*
X145433501Y-119530264D01*
X145433491Y-119530261D01*
X145278149Y-119499361D01*
X145216238Y-119466976D01*
X145214660Y-119465425D01*
X144234574Y-118485339D01*
X144201089Y-118424016D01*
X144200638Y-118421849D01*
X144172808Y-118281943D01*
X144169737Y-118266503D01*
X144112047Y-118127225D01*
X144109397Y-118120827D01*
X144109390Y-118120814D01*
X144021789Y-117989711D01*
X144021786Y-117989707D01*
X143910292Y-117878213D01*
X143910288Y-117878210D01*
X143779185Y-117790609D01*
X143779172Y-117790602D01*
X143633501Y-117730264D01*
X143633489Y-117730261D01*
X143478845Y-117699500D01*
X143478842Y-117699500D01*
X143321158Y-117699500D01*
X143321155Y-117699500D01*
X143166510Y-117730261D01*
X143166498Y-117730264D01*
X143020827Y-117790602D01*
X143020814Y-117790609D01*
X142889711Y-117878210D01*
X142889707Y-117878213D01*
X142778213Y-117989707D01*
X142778210Y-117989711D01*
X142690609Y-118120814D01*
X142690602Y-118120827D01*
X142630264Y-118266498D01*
X142630261Y-118266510D01*
X142599500Y-118421153D01*
X142599500Y-118578846D01*
X142630261Y-118733489D01*
X142630264Y-118733501D01*
X142690602Y-118879172D01*
X142690609Y-118879185D01*
X142778210Y-119010288D01*
X142778213Y-119010292D01*
X142889707Y-119121786D01*
X142889711Y-119121789D01*
X143020814Y-119209390D01*
X143020827Y-119209397D01*
X143166498Y-119269735D01*
X143166503Y-119269737D01*
X143220979Y-119280573D01*
X143321849Y-119300638D01*
X143383760Y-119333023D01*
X143385339Y-119334574D01*
X144365425Y-120314660D01*
X144398910Y-120375983D01*
X144399361Y-120378149D01*
X144430261Y-120533491D01*
X144430264Y-120533501D01*
X144490602Y-120679172D01*
X144490609Y-120679185D01*
X144578210Y-120810288D01*
X144578213Y-120810292D01*
X144689707Y-120921786D01*
X144689711Y-120921789D01*
X144820814Y-121009390D01*
X144820827Y-121009397D01*
X144958683Y-121066498D01*
X144966503Y-121069737D01*
X144972126Y-121070855D01*
X144979300Y-121072283D01*
X145041211Y-121104668D01*
X145075785Y-121165384D01*
X145072046Y-121235153D01*
X145031179Y-121291825D01*
X144966161Y-121317406D01*
X144955109Y-121317900D01*
X125668544Y-121317900D01*
X125510455Y-121317900D01*
X125357754Y-121358816D01*
X125357753Y-121358816D01*
X125357751Y-121358817D01*
X125357750Y-121358817D01*
X125220849Y-121437858D01*
X125220843Y-121437862D01*
X122483073Y-124175632D01*
X122421750Y-124209117D01*
X122352058Y-124204133D01*
X122315944Y-124180923D01*
X122314999Y-124182076D01*
X122310288Y-124178210D01*
X122179185Y-124090609D01*
X122179172Y-124090602D01*
X122033501Y-124030264D01*
X122033489Y-124030261D01*
X121878845Y-123999500D01*
X121878842Y-123999500D01*
X121721158Y-123999500D01*
X121721155Y-123999500D01*
X121566510Y-124030261D01*
X121566498Y-124030264D01*
X121420827Y-124090602D01*
X121420814Y-124090609D01*
X121289125Y-124178602D01*
X121222447Y-124199480D01*
X121220234Y-124199500D01*
X120406301Y-124199500D01*
X120397633Y-124196954D01*
X120388693Y-124198243D01*
X120364633Y-124187265D01*
X120339262Y-124179815D01*
X120333347Y-124172989D01*
X120325128Y-124169239D01*
X120310821Y-124146993D01*
X120293507Y-124127011D01*
X120291222Y-124116516D01*
X120287335Y-124110472D01*
X120283806Y-124085959D01*
X120283059Y-124086043D01*
X120283058Y-124086034D01*
X120282583Y-124077463D01*
X120282317Y-124075615D01*
X120282301Y-124075539D01*
X120282300Y-124072379D01*
X120282301Y-124072375D01*
X120282301Y-124072358D01*
X120282300Y-124072340D01*
X120282300Y-113497965D01*
X120301985Y-113430926D01*
X120303198Y-113429074D01*
X120308709Y-113420827D01*
X120391194Y-113297379D01*
X120394000Y-113290606D01*
X120431643Y-113199725D01*
X120451537Y-113151697D01*
X120482300Y-112997042D01*
X120482300Y-112839358D01*
X120482300Y-112839355D01*
X120482299Y-112839353D01*
X120473236Y-112793793D01*
X120451537Y-112684703D01*
X120416016Y-112598947D01*
X120391197Y-112539027D01*
X120391190Y-112539014D01*
X120303589Y-112407911D01*
X120303586Y-112407907D01*
X120254187Y-112358508D01*
X120220702Y-112297185D01*
X120225686Y-112227493D01*
X120233096Y-112212288D01*
X120232839Y-112212157D01*
X120239514Y-112199056D01*
X120331557Y-112018412D01*
X120397246Y-111816243D01*
X120430500Y-111606287D01*
X120430500Y-111393713D01*
X120397246Y-111183757D01*
X120331557Y-110981588D01*
X120235051Y-110792184D01*
X120235049Y-110792181D01*
X120235048Y-110792179D01*
X120110109Y-110620213D01*
X119959786Y-110469890D01*
X119787820Y-110344951D01*
X119598414Y-110248444D01*
X119598413Y-110248443D01*
X119598412Y-110248443D01*
X119396243Y-110182754D01*
X119396241Y-110182753D01*
X119396240Y-110182753D01*
X119234957Y-110157208D01*
X119186287Y-110149500D01*
X118973713Y-110149500D01*
X118931721Y-110156150D01*
X118763753Y-110182754D01*
X118763752Y-110182754D01*
X118736566Y-110191587D01*
X118666725Y-110193580D01*
X118610571Y-110161336D01*
X118387590Y-109938355D01*
X118387588Y-109938352D01*
X118268717Y-109819481D01*
X118268716Y-109819480D01*
X118169484Y-109762189D01*
X118169483Y-109762188D01*
X118131783Y-109740422D01*
X118075881Y-109725443D01*
X117979057Y-109699499D01*
X117820943Y-109699499D01*
X117813347Y-109699499D01*
X117813331Y-109699500D01*
X107986670Y-109699500D01*
X107986654Y-109699499D01*
X107979058Y-109699499D01*
X107820943Y-109699499D01*
X107744579Y-109719961D01*
X107668214Y-109740423D01*
X107668209Y-109740426D01*
X107531290Y-109819475D01*
X107531282Y-109819481D01*
X107187584Y-110163181D01*
X107126261Y-110196666D01*
X107099903Y-110199500D01*
X104479766Y-110199500D01*
X104412727Y-110179815D01*
X104410875Y-110178602D01*
X104279185Y-110090609D01*
X104279172Y-110090602D01*
X104133501Y-110030264D01*
X104133489Y-110030261D01*
X103978845Y-109999500D01*
X103978842Y-109999500D01*
X103821158Y-109999500D01*
X103821155Y-109999500D01*
X103666510Y-110030261D01*
X103666498Y-110030264D01*
X103520827Y-110090602D01*
X103520814Y-110090609D01*
X103389711Y-110178210D01*
X103389707Y-110178213D01*
X103278213Y-110289707D01*
X103278210Y-110289711D01*
X103190609Y-110420814D01*
X103190602Y-110420827D01*
X103130264Y-110566498D01*
X103130261Y-110566510D01*
X103099500Y-110721153D01*
X103099500Y-110878846D01*
X103130261Y-111033489D01*
X103130264Y-111033501D01*
X103190602Y-111179172D01*
X103190609Y-111179185D01*
X103278210Y-111310288D01*
X103278213Y-111310292D01*
X103389707Y-111421786D01*
X103389711Y-111421789D01*
X103520814Y-111509390D01*
X103520827Y-111509397D01*
X103657061Y-111565826D01*
X103666503Y-111569737D01*
X103763822Y-111589095D01*
X103821153Y-111600499D01*
X103821156Y-111600500D01*
X103821158Y-111600500D01*
X103978844Y-111600500D01*
X103978845Y-111600499D01*
X104133497Y-111569737D01*
X104279179Y-111509394D01*
X104333642Y-111473003D01*
X104410875Y-111421398D01*
X104477553Y-111400520D01*
X104479766Y-111400500D01*
X107313332Y-111400500D01*
X107320939Y-111400500D01*
X107320943Y-111400501D01*
X107445501Y-111400501D01*
X107512540Y-111420186D01*
X107558295Y-111472990D01*
X107558296Y-111473003D01*
X107569500Y-111524501D01*
X107569500Y-112397870D01*
X107569501Y-112397876D01*
X107575908Y-112457483D01*
X107626202Y-112592328D01*
X107626206Y-112592335D01*
X107712452Y-112707544D01*
X107712455Y-112707547D01*
X107827664Y-112793793D01*
X107827671Y-112793797D01*
X107872618Y-112810561D01*
X107962517Y-112844091D01*
X108022127Y-112850500D01*
X108175500Y-112850499D01*
X108242539Y-112870183D01*
X108288294Y-112922987D01*
X108299500Y-112974499D01*
X108299500Y-114420234D01*
X108279815Y-114487273D01*
X108278602Y-114489125D01*
X108190609Y-114620814D01*
X108190602Y-114620827D01*
X108130264Y-114766498D01*
X108130261Y-114766510D01*
X108099500Y-114921153D01*
X108099500Y-115078846D01*
X108130261Y-115233489D01*
X108130264Y-115233501D01*
X108190602Y-115379172D01*
X108190609Y-115379185D01*
X108278210Y-115510288D01*
X108278213Y-115510292D01*
X108389707Y-115621786D01*
X108389711Y-115621789D01*
X108520814Y-115709390D01*
X108520827Y-115709397D01*
X108666498Y-115769735D01*
X108666503Y-115769737D01*
X108821153Y-115800499D01*
X108821156Y-115800500D01*
X108821158Y-115800500D01*
X108978844Y-115800500D01*
X108978845Y-115800499D01*
X109133497Y-115769737D01*
X109279179Y-115709394D01*
X109410289Y-115621789D01*
X109521789Y-115510289D01*
X109609394Y-115379179D01*
X109669737Y-115233497D01*
X109700500Y-115078842D01*
X109700500Y-114921158D01*
X109700500Y-114921155D01*
X109700499Y-114921153D01*
X109678269Y-114809397D01*
X109669737Y-114766503D01*
X109646080Y-114709390D01*
X109609397Y-114620827D01*
X109609390Y-114620814D01*
X109521398Y-114489125D01*
X109500520Y-114422447D01*
X109500500Y-114420234D01*
X109500500Y-112974499D01*
X109520185Y-112907460D01*
X109572989Y-112861705D01*
X109624500Y-112850499D01*
X109817871Y-112850499D01*
X109817872Y-112850499D01*
X109877483Y-112844091D01*
X110012331Y-112793796D01*
X110127546Y-112707546D01*
X110213796Y-112592331D01*
X110264091Y-112457483D01*
X110270500Y-112397873D01*
X110270499Y-112387312D01*
X110290179Y-112320275D01*
X110306818Y-112299626D01*
X110977036Y-111629407D01*
X110994075Y-111692993D01*
X111059901Y-111807007D01*
X111152993Y-111900099D01*
X111267007Y-111965925D01*
X111330589Y-111982962D01*
X110698282Y-112615269D01*
X110698282Y-112615270D01*
X110752449Y-112654624D01*
X110941782Y-112751095D01*
X111143870Y-112816757D01*
X111353754Y-112850000D01*
X111566246Y-112850000D01*
X111776127Y-112816757D01*
X111776130Y-112816757D01*
X111978217Y-112751095D01*
X112167557Y-112654620D01*
X112302615Y-112556496D01*
X112368421Y-112533016D01*
X112436475Y-112548841D01*
X112485170Y-112598947D01*
X112499500Y-112656814D01*
X112499500Y-113620234D01*
X112479815Y-113687273D01*
X112478602Y-113689125D01*
X112390609Y-113820814D01*
X112390602Y-113820827D01*
X112330264Y-113966498D01*
X112330261Y-113966508D01*
X112299326Y-114122026D01*
X112266941Y-114183937D01*
X112265390Y-114185515D01*
X108280748Y-118170158D01*
X108168962Y-118281943D01*
X108168958Y-118281949D01*
X108094880Y-118410256D01*
X108089917Y-118418851D01*
X108058546Y-118535930D01*
X108049000Y-118571555D01*
X108049000Y-124702444D01*
X108029315Y-124769483D01*
X108012681Y-124790125D01*
X106805516Y-125997290D01*
X106744193Y-126030775D01*
X106742027Y-126031226D01*
X106586508Y-126062161D01*
X106586498Y-126062164D01*
X106440827Y-126122502D01*
X106440814Y-126122509D01*
X106309711Y-126210110D01*
X106309707Y-126210113D01*
X106198213Y-126321607D01*
X106198210Y-126321611D01*
X106110609Y-126452714D01*
X106110602Y-126452727D01*
X106050264Y-126598398D01*
X106050261Y-126598410D01*
X106019500Y-126753053D01*
X106019500Y-126910746D01*
X106050261Y-127065389D01*
X106050264Y-127065401D01*
X106110602Y-127211072D01*
X106110609Y-127211085D01*
X106198210Y-127342188D01*
X106198213Y-127342192D01*
X106309707Y-127453686D01*
X106309711Y-127453689D01*
X106440814Y-127541290D01*
X106440827Y-127541297D01*
X106586498Y-127601635D01*
X106586503Y-127601637D01*
X106741153Y-127632399D01*
X106741156Y-127632400D01*
X106741158Y-127632400D01*
X106898844Y-127632400D01*
X106898845Y-127632399D01*
X107053497Y-127601637D01*
X107199179Y-127541294D01*
X107330289Y-127453689D01*
X107441789Y-127342189D01*
X107529394Y-127211079D01*
X107589737Y-127065397D01*
X107620500Y-126910742D01*
X107620673Y-126909873D01*
X107653058Y-126847962D01*
X107654552Y-126846440D01*
X109129839Y-125371155D01*
X109167676Y-125305621D01*
X109208884Y-125234246D01*
X109246964Y-125092128D01*
X109246965Y-125092127D01*
X109247563Y-125089892D01*
X109249800Y-125081545D01*
X109249800Y-124923456D01*
X109249800Y-123422143D01*
X109269485Y-123355104D01*
X109322289Y-123309349D01*
X109349609Y-123300526D01*
X109381851Y-123294112D01*
X109468197Y-123276937D01*
X109613879Y-123216594D01*
X109744989Y-123128989D01*
X109856489Y-123017489D01*
X109944094Y-122886379D01*
X110004437Y-122740697D01*
X110035200Y-122586042D01*
X110035200Y-122428358D01*
X110035200Y-122428355D01*
X110035199Y-122428353D01*
X110029309Y-122398741D01*
X110004437Y-122273703D01*
X110004435Y-122273698D01*
X109944097Y-122128027D01*
X109944090Y-122128014D01*
X109855998Y-121996175D01*
X109835120Y-121929497D01*
X109835100Y-121927284D01*
X109835100Y-120321153D01*
X110599500Y-120321153D01*
X110599500Y-120478846D01*
X110630261Y-120633489D01*
X110630264Y-120633501D01*
X110690602Y-120779172D01*
X110690609Y-120779185D01*
X110778210Y-120910288D01*
X110778213Y-120910292D01*
X110889707Y-121021786D01*
X110889711Y-121021789D01*
X111020814Y-121109390D01*
X111020827Y-121109397D01*
X111155994Y-121165384D01*
X111166503Y-121169737D01*
X111315367Y-121199348D01*
X111321153Y-121200499D01*
X111321156Y-121200500D01*
X111321158Y-121200500D01*
X111478844Y-121200500D01*
X111484907Y-121199903D01*
X111485020Y-121201052D01*
X111489589Y-121199348D01*
X111516442Y-121205189D01*
X111543811Y-121207633D01*
X111551831Y-121212888D01*
X111557862Y-121214200D01*
X111586116Y-121235351D01*
X111665425Y-121314660D01*
X111698910Y-121375983D01*
X111699361Y-121378149D01*
X111730261Y-121533491D01*
X111730264Y-121533501D01*
X111790602Y-121679172D01*
X111790609Y-121679185D01*
X111878210Y-121810288D01*
X111878213Y-121810292D01*
X111989707Y-121921786D01*
X111989711Y-121921789D01*
X112120814Y-122009390D01*
X112120827Y-122009397D01*
X112266498Y-122069735D01*
X112266503Y-122069737D01*
X112421153Y-122100499D01*
X112421156Y-122100500D01*
X112421158Y-122100500D01*
X112578844Y-122100500D01*
X112578845Y-122100499D01*
X112733497Y-122069737D01*
X112879179Y-122009394D01*
X113010289Y-121921789D01*
X113121789Y-121810289D01*
X113209394Y-121679179D01*
X113269737Y-121533497D01*
X113300500Y-121378842D01*
X113300500Y-121221158D01*
X113300500Y-121221155D01*
X113300499Y-121221153D01*
X113289406Y-121165384D01*
X113269737Y-121066503D01*
X113209794Y-120921786D01*
X113209397Y-120920827D01*
X113209390Y-120920814D01*
X113121789Y-120789711D01*
X113121786Y-120789707D01*
X113010292Y-120678213D01*
X113010288Y-120678210D01*
X112879185Y-120590609D01*
X112879172Y-120590602D01*
X112733501Y-120530264D01*
X112733491Y-120530261D01*
X112578149Y-120499361D01*
X112516238Y-120466976D01*
X112514660Y-120465425D01*
X112154650Y-120105415D01*
X112127770Y-120065187D01*
X112109394Y-120020821D01*
X112109389Y-120020814D01*
X112021789Y-119889710D01*
X111910292Y-119778213D01*
X111910288Y-119778210D01*
X111779185Y-119690609D01*
X111779172Y-119690602D01*
X111633501Y-119630264D01*
X111633489Y-119630261D01*
X111478845Y-119599500D01*
X111478842Y-119599500D01*
X111321158Y-119599500D01*
X111321155Y-119599500D01*
X111166510Y-119630261D01*
X111166498Y-119630264D01*
X111020827Y-119690602D01*
X111020814Y-119690609D01*
X110889711Y-119778210D01*
X110889707Y-119778213D01*
X110778213Y-119889707D01*
X110778210Y-119889711D01*
X110690609Y-120020814D01*
X110690602Y-120020827D01*
X110630264Y-120166498D01*
X110630261Y-120166510D01*
X110599500Y-120321153D01*
X109835100Y-120321153D01*
X109835100Y-119368254D01*
X109854785Y-119301215D01*
X109871414Y-119280578D01*
X114163644Y-114988347D01*
X114163649Y-114988344D01*
X114173852Y-114978140D01*
X114173854Y-114978140D01*
X114285640Y-114866354D01*
X114364684Y-114729446D01*
X114392536Y-114625501D01*
X114405600Y-114576745D01*
X114405600Y-114418655D01*
X114405600Y-114408717D01*
X114425285Y-114341678D01*
X114478089Y-114295923D01*
X114547247Y-114285979D01*
X114553792Y-114287100D01*
X114621155Y-114300500D01*
X114621158Y-114300500D01*
X114778844Y-114300500D01*
X114778845Y-114300499D01*
X114933497Y-114269737D01*
X115079179Y-114209394D01*
X115079185Y-114209390D01*
X115210875Y-114121398D01*
X115228921Y-114115747D01*
X115244831Y-114105523D01*
X115275792Y-114101071D01*
X115277553Y-114100520D01*
X115279766Y-114100500D01*
X115420234Y-114100500D01*
X115487273Y-114120185D01*
X115489125Y-114121398D01*
X115620814Y-114209390D01*
X115620827Y-114209397D01*
X115705599Y-114244510D01*
X115766503Y-114269737D01*
X115898148Y-114295923D01*
X115921153Y-114300499D01*
X115921156Y-114300500D01*
X115921158Y-114300500D01*
X116078844Y-114300500D01*
X116078845Y-114300499D01*
X116233497Y-114269737D01*
X116379179Y-114209394D01*
X116510289Y-114121789D01*
X116621789Y-114010289D01*
X116709394Y-113879179D01*
X116769737Y-113733497D01*
X116800500Y-113578842D01*
X116800500Y-113421158D01*
X116800500Y-113421155D01*
X116800499Y-113421153D01*
X116780543Y-113320827D01*
X116769737Y-113266503D01*
X116768001Y-113262311D01*
X116709397Y-113120827D01*
X116709390Y-113120814D01*
X116647635Y-113028392D01*
X116626757Y-112961715D01*
X116645241Y-112894335D01*
X116697220Y-112847644D01*
X116731334Y-112837029D01*
X116856243Y-112817246D01*
X117058412Y-112751557D01*
X117247816Y-112655051D01*
X117334138Y-112592335D01*
X117419786Y-112530109D01*
X117419788Y-112530106D01*
X117419792Y-112530104D01*
X117570104Y-112379792D01*
X117570106Y-112379788D01*
X117570109Y-112379786D01*
X117695048Y-112207820D01*
X117695047Y-112207820D01*
X117695051Y-112207816D01*
X117699514Y-112199054D01*
X117747488Y-112148259D01*
X117815308Y-112131463D01*
X117881444Y-112153999D01*
X117920486Y-112199056D01*
X117924951Y-112207820D01*
X118049890Y-112379786D01*
X118049896Y-112379792D01*
X118200208Y-112530104D01*
X118372184Y-112655051D01*
X118431795Y-112685424D01*
X118482590Y-112733397D01*
X118499500Y-112795908D01*
X118499500Y-113520234D01*
X118479815Y-113587273D01*
X118478602Y-113589125D01*
X118390609Y-113720814D01*
X118390602Y-113720827D01*
X118330264Y-113866498D01*
X118330261Y-113866510D01*
X118299500Y-114021153D01*
X118299500Y-114178846D01*
X118330261Y-114333489D01*
X118330264Y-114333501D01*
X118390602Y-114479172D01*
X118390609Y-114479185D01*
X118478210Y-114610288D01*
X118478213Y-114610292D01*
X118589707Y-114721786D01*
X118589711Y-114721789D01*
X118720814Y-114809390D01*
X118720827Y-114809397D01*
X118858340Y-114866356D01*
X118866503Y-114869737D01*
X118930728Y-114882512D01*
X118981491Y-114892610D01*
X119043402Y-114924995D01*
X119077976Y-114985710D01*
X119081300Y-115014227D01*
X119081300Y-122409912D01*
X119061615Y-122476951D01*
X119008811Y-122522706D01*
X118939653Y-122532650D01*
X118876097Y-122503625D01*
X118869619Y-122497593D01*
X114028580Y-117656555D01*
X114028578Y-117656552D01*
X113909707Y-117537681D01*
X113909706Y-117537680D01*
X113822894Y-117487560D01*
X113822894Y-117487559D01*
X113822890Y-117487558D01*
X113772775Y-117458623D01*
X113620047Y-117417699D01*
X113461933Y-117417699D01*
X113454337Y-117417699D01*
X113454321Y-117417700D01*
X113138067Y-117417700D01*
X112979953Y-117417700D01*
X112827225Y-117458623D01*
X112827224Y-117458623D01*
X112827222Y-117458624D01*
X112827219Y-117458625D01*
X112777106Y-117487559D01*
X112777105Y-117487560D01*
X112733699Y-117512620D01*
X112690295Y-117537679D01*
X112690292Y-117537681D01*
X112237681Y-117990292D01*
X112237679Y-117990295D01*
X112203095Y-118050198D01*
X112203094Y-118050200D01*
X112158623Y-118127224D01*
X112147119Y-118170158D01*
X112117699Y-118279953D01*
X112117699Y-118279955D01*
X112117699Y-118448056D01*
X112117700Y-118448069D01*
X112117700Y-118754320D01*
X112117699Y-118754338D01*
X112117699Y-118920044D01*
X112117698Y-118920044D01*
X112127787Y-118957697D01*
X112158623Y-119072775D01*
X112177388Y-119105276D01*
X112210554Y-119162721D01*
X112237679Y-119209705D01*
X112356549Y-119328575D01*
X112356555Y-119328580D01*
X113783181Y-120755206D01*
X113816666Y-120816529D01*
X113819500Y-120842887D01*
X113819500Y-138964738D01*
X113799815Y-139031777D01*
X113747011Y-139077532D01*
X113677853Y-139087476D01*
X113633501Y-139072126D01*
X113555810Y-139027272D01*
X113555811Y-139027272D01*
X113523554Y-139018629D01*
X113426787Y-138992700D01*
X113293213Y-138992700D01*
X113215799Y-139013443D01*
X113164188Y-139027272D01*
X113164187Y-139027273D01*
X113048514Y-139094056D01*
X113041535Y-139101035D01*
X112980210Y-139134517D01*
X112910519Y-139129530D01*
X112854587Y-139087657D01*
X112839296Y-139060803D01*
X112816632Y-139006086D01*
X112816630Y-139006083D01*
X112816628Y-139006079D01*
X112707139Y-138842218D01*
X112707136Y-138842214D01*
X112567785Y-138702863D01*
X112567781Y-138702860D01*
X112403920Y-138593371D01*
X112403907Y-138593364D01*
X112221839Y-138517950D01*
X112221829Y-138517947D01*
X112028543Y-138479500D01*
X112028541Y-138479500D01*
X111831459Y-138479500D01*
X111831457Y-138479500D01*
X111638170Y-138517947D01*
X111638160Y-138517950D01*
X111456092Y-138593364D01*
X111456079Y-138593371D01*
X111292218Y-138702860D01*
X111292214Y-138702863D01*
X111152863Y-138842214D01*
X111152860Y-138842218D01*
X111043371Y-139006079D01*
X111043364Y-139006092D01*
X110967950Y-139188160D01*
X110967947Y-139188170D01*
X110929500Y-139381456D01*
X110929500Y-139381459D01*
X110929500Y-140678541D01*
X110929500Y-140678543D01*
X110929499Y-140678543D01*
X110967947Y-140871829D01*
X110967950Y-140871839D01*
X111043364Y-141053907D01*
X111043371Y-141053920D01*
X111152860Y-141217781D01*
X111152863Y-141217785D01*
X111292215Y-141357137D01*
X111292218Y-141357139D01*
X111389085Y-141421863D01*
X111433890Y-141475474D01*
X111442597Y-141544799D01*
X111427585Y-141586959D01*
X111424323Y-141592608D01*
X111404739Y-141665698D01*
X111383399Y-141745338D01*
X111383399Y-141745340D01*
X111383399Y-141913441D01*
X111383400Y-141913454D01*
X111383400Y-142682220D01*
X111383399Y-142682238D01*
X111383399Y-142847944D01*
X111383398Y-142847944D01*
X111384109Y-142850597D01*
X111424323Y-143000675D01*
X111449680Y-143044594D01*
X111453258Y-143050790D01*
X111453259Y-143050794D01*
X111453260Y-143050794D01*
X111491704Y-143117383D01*
X111503379Y-143137604D01*
X111503381Y-143137607D01*
X111622249Y-143256475D01*
X111622255Y-143256480D01*
X115767493Y-147401719D01*
X115800978Y-147463042D01*
X115795994Y-147532734D01*
X115754122Y-147588667D01*
X115688658Y-147613084D01*
X115679812Y-147613400D01*
X104023856Y-147613400D01*
X103956817Y-147593715D01*
X103936175Y-147577081D01*
X102834609Y-146475515D01*
X102801124Y-146414192D01*
X102800673Y-146412025D01*
X102769738Y-146256510D01*
X102769737Y-146256503D01*
X102769735Y-146256498D01*
X102709397Y-146110827D01*
X102709390Y-146110814D01*
X102621789Y-145979711D01*
X102621786Y-145979707D01*
X102510292Y-145868213D01*
X102510288Y-145868210D01*
X102447184Y-145826045D01*
X102402379Y-145772433D01*
X102393672Y-145703108D01*
X102396294Y-145690875D01*
X102409700Y-145640844D01*
X102409700Y-145482755D01*
X102409700Y-136248543D01*
X110929499Y-136248543D01*
X110967947Y-136441829D01*
X110967950Y-136441839D01*
X111043364Y-136623907D01*
X111043371Y-136623920D01*
X111152860Y-136787781D01*
X111152863Y-136787785D01*
X111292214Y-136927136D01*
X111292218Y-136927139D01*
X111456079Y-137036628D01*
X111456092Y-137036635D01*
X111567541Y-137082798D01*
X111638165Y-137112051D01*
X111638169Y-137112051D01*
X111638170Y-137112052D01*
X111831456Y-137150500D01*
X111831459Y-137150500D01*
X112028543Y-137150500D01*
X112158582Y-137124632D01*
X112221835Y-137112051D01*
X112403914Y-137036632D01*
X112567782Y-136927139D01*
X112707139Y-136787782D01*
X112816632Y-136623914D01*
X112892051Y-136441835D01*
X112905764Y-136372897D01*
X112930500Y-136248543D01*
X112930500Y-135451456D01*
X112892052Y-135258170D01*
X112892051Y-135258169D01*
X112892051Y-135258165D01*
X112859667Y-135179982D01*
X112816635Y-135076092D01*
X112816628Y-135076079D01*
X112707139Y-134912217D01*
X112567785Y-134772863D01*
X112567781Y-134772860D01*
X112403920Y-134663371D01*
X112403907Y-134663364D01*
X112221839Y-134587950D01*
X112221829Y-134587947D01*
X112028543Y-134549500D01*
X112028541Y-134549500D01*
X111831459Y-134549500D01*
X111831457Y-134549500D01*
X111638170Y-134587947D01*
X111638160Y-134587950D01*
X111456092Y-134663364D01*
X111456079Y-134663371D01*
X111292218Y-134772860D01*
X111292214Y-134772863D01*
X111152863Y-134912214D01*
X111152861Y-134912217D01*
X111043371Y-135076079D01*
X111043364Y-135076092D01*
X110967950Y-135258160D01*
X110967947Y-135258170D01*
X110929500Y-135451456D01*
X110929500Y-135451459D01*
X110929500Y-136248541D01*
X110929500Y-136248543D01*
X110929499Y-136248543D01*
X102409700Y-136248543D01*
X102409700Y-114467756D01*
X102405076Y-114450500D01*
X102368784Y-114315054D01*
X102347877Y-114278842D01*
X102289740Y-114178146D01*
X102177954Y-114066360D01*
X102177953Y-114066359D01*
X101832747Y-113721153D01*
X103899500Y-113721153D01*
X103899500Y-113878846D01*
X103930261Y-114033489D01*
X103930264Y-114033501D01*
X103990602Y-114179172D01*
X103990609Y-114179185D01*
X104078210Y-114310288D01*
X104078213Y-114310292D01*
X104189707Y-114421786D01*
X104189711Y-114421789D01*
X104320814Y-114509390D01*
X104320827Y-114509397D01*
X104466498Y-114569735D01*
X104466503Y-114569737D01*
X104621153Y-114600499D01*
X104621156Y-114600500D01*
X104621158Y-114600500D01*
X104778844Y-114600500D01*
X104778845Y-114600499D01*
X104933497Y-114569737D01*
X105077021Y-114510288D01*
X105079172Y-114509397D01*
X105079172Y-114509396D01*
X105079179Y-114509394D01*
X105109514Y-114489125D01*
X105210875Y-114421398D01*
X105277553Y-114400520D01*
X105279766Y-114400500D01*
X106220234Y-114400500D01*
X106287273Y-114420185D01*
X106289125Y-114421398D01*
X106420814Y-114509390D01*
X106420827Y-114509397D01*
X106566498Y-114569735D01*
X106566503Y-114569737D01*
X106721153Y-114600499D01*
X106721156Y-114600500D01*
X106721158Y-114600500D01*
X106878844Y-114600500D01*
X106878845Y-114600499D01*
X107033497Y-114569737D01*
X107177021Y-114510288D01*
X107179172Y-114509397D01*
X107179172Y-114509396D01*
X107179179Y-114509394D01*
X107310289Y-114421789D01*
X107421789Y-114310289D01*
X107509394Y-114179179D01*
X107569737Y-114033497D01*
X107600500Y-113878842D01*
X107600500Y-113721158D01*
X107600500Y-113721155D01*
X107600499Y-113721153D01*
X107590010Y-113668422D01*
X107569737Y-113566503D01*
X107569246Y-113565318D01*
X107509397Y-113420827D01*
X107509390Y-113420814D01*
X107421789Y-113289711D01*
X107421786Y-113289707D01*
X107310292Y-113178213D01*
X107310288Y-113178210D01*
X107179185Y-113090609D01*
X107179172Y-113090602D01*
X107033501Y-113030264D01*
X107033489Y-113030261D01*
X106878845Y-112999500D01*
X106878842Y-112999500D01*
X106721158Y-112999500D01*
X106721155Y-112999500D01*
X106566510Y-113030261D01*
X106566498Y-113030264D01*
X106420827Y-113090602D01*
X106420814Y-113090609D01*
X106289125Y-113178602D01*
X106222447Y-113199480D01*
X106220234Y-113199500D01*
X105279766Y-113199500D01*
X105212727Y-113179815D01*
X105210875Y-113178602D01*
X105079185Y-113090609D01*
X105079172Y-113090602D01*
X104933501Y-113030264D01*
X104933489Y-113030261D01*
X104778845Y-112999500D01*
X104778842Y-112999500D01*
X104621158Y-112999500D01*
X104621155Y-112999500D01*
X104466510Y-113030261D01*
X104466498Y-113030264D01*
X104320827Y-113090602D01*
X104320814Y-113090609D01*
X104189711Y-113178210D01*
X104189707Y-113178213D01*
X104078213Y-113289707D01*
X104078210Y-113289711D01*
X103990609Y-113420814D01*
X103990602Y-113420827D01*
X103930264Y-113566498D01*
X103930261Y-113566510D01*
X103899500Y-113721153D01*
X101832747Y-113721153D01*
X97237509Y-109125915D01*
X97204024Y-109064592D01*
X97203573Y-109062425D01*
X97185631Y-108972231D01*
X97172637Y-108906903D01*
X97172635Y-108906898D01*
X97112297Y-108761227D01*
X97112290Y-108761214D01*
X97024689Y-108630111D01*
X97024686Y-108630107D01*
X96913192Y-108518613D01*
X96913188Y-108518610D01*
X96782085Y-108431009D01*
X96782072Y-108431002D01*
X96636401Y-108370664D01*
X96636389Y-108370661D01*
X96481745Y-108339900D01*
X96481742Y-108339900D01*
X96324058Y-108339900D01*
X96324055Y-108339900D01*
X96169410Y-108370661D01*
X96169398Y-108370664D01*
X96023727Y-108431002D01*
X96023714Y-108431009D01*
X95892611Y-108518610D01*
X95892607Y-108518613D01*
X95781113Y-108630107D01*
X95781110Y-108630111D01*
X95693509Y-108761214D01*
X95693502Y-108761227D01*
X95633164Y-108906898D01*
X95633161Y-108906910D01*
X95602400Y-109061553D01*
X95602400Y-109219246D01*
X95633161Y-109373889D01*
X95633164Y-109373901D01*
X95693502Y-109519572D01*
X95693509Y-109519585D01*
X95781110Y-109650688D01*
X95781113Y-109650692D01*
X95892607Y-109762186D01*
X95892611Y-109762189D01*
X96023714Y-109849790D01*
X96023727Y-109849797D01*
X96169398Y-109910135D01*
X96169403Y-109910137D01*
X96252402Y-109926646D01*
X96324926Y-109941073D01*
X96386837Y-109973458D01*
X96388416Y-109975009D01*
X101172581Y-114759174D01*
X101206066Y-114820497D01*
X101208900Y-114846855D01*
X101208900Y-131981944D01*
X101189215Y-132048983D01*
X101136411Y-132094738D01*
X101067253Y-132104682D01*
X101046582Y-132099875D01*
X100851370Y-132036447D01*
X100618097Y-131999500D01*
X100618092Y-131999500D01*
X100381908Y-131999500D01*
X100381903Y-131999500D01*
X100148631Y-132036446D01*
X99924003Y-132109433D01*
X99713566Y-132216657D01*
X99604550Y-132295862D01*
X99522490Y-132355483D01*
X99522488Y-132355485D01*
X99522487Y-132355485D01*
X99355485Y-132522487D01*
X99355485Y-132522488D01*
X99355483Y-132522490D01*
X99314385Y-132579057D01*
X99216657Y-132713566D01*
X99109433Y-132924003D01*
X99036446Y-133148631D01*
X98999500Y-133381902D01*
X98999500Y-133618097D01*
X99036447Y-133851369D01*
X99036447Y-133851372D01*
X99077485Y-133977671D01*
X99079480Y-134047512D01*
X99047235Y-134103670D01*
X98441248Y-134709658D01*
X98329461Y-134821444D01*
X98329457Y-134821449D01*
X98277053Y-134912217D01*
X98277053Y-134912218D01*
X98250416Y-134958354D01*
X98234420Y-135018054D01*
X98220536Y-135069870D01*
X98209500Y-135111055D01*
X98209500Y-149015884D01*
X98189815Y-149082923D01*
X98188602Y-149084775D01*
X98100509Y-149216614D01*
X98100502Y-149216627D01*
X98040164Y-149362298D01*
X98040161Y-149362310D01*
X98009400Y-149516953D01*
X98009400Y-149674646D01*
X98040161Y-149829289D01*
X98040164Y-149829301D01*
X98100502Y-149974972D01*
X98100509Y-149974985D01*
X98188110Y-150106088D01*
X98188113Y-150106092D01*
X98299607Y-150217586D01*
X98299611Y-150217589D01*
X98430714Y-150305190D01*
X98430727Y-150305197D01*
X98576398Y-150365535D01*
X98576403Y-150365537D01*
X98663773Y-150382916D01*
X98731053Y-150396299D01*
X98731056Y-150396300D01*
X98731058Y-150396300D01*
X98888744Y-150396300D01*
X98888745Y-150396299D01*
X99043397Y-150365537D01*
X99189079Y-150305194D01*
X99320189Y-150217589D01*
X99431689Y-150106089D01*
X99519294Y-149974979D01*
X99579637Y-149829297D01*
X99610400Y-149674642D01*
X99610400Y-149516958D01*
X99610400Y-149516955D01*
X99610399Y-149516953D01*
X99605293Y-149491285D01*
X99579637Y-149362303D01*
X99575220Y-149351640D01*
X99519297Y-149216627D01*
X99519290Y-149216614D01*
X99431198Y-149084775D01*
X99410320Y-149018097D01*
X99410300Y-149015884D01*
X99410300Y-142724499D01*
X99429985Y-142657460D01*
X99482789Y-142611705D01*
X99534295Y-142600499D01*
X101084900Y-142600499D01*
X101151939Y-142620184D01*
X101197694Y-142672988D01*
X101208900Y-142724499D01*
X101208900Y-145261743D01*
X101189215Y-145328782D01*
X101172581Y-145349424D01*
X101035876Y-145486128D01*
X101035877Y-145486129D01*
X100931159Y-145590847D01*
X100931158Y-145590849D01*
X100863485Y-145708059D01*
X100863482Y-145708066D01*
X100856441Y-145720263D01*
X100852116Y-145727754D01*
X100815476Y-145864499D01*
X100814912Y-145866601D01*
X100814910Y-145866610D01*
X100811200Y-145880456D01*
X100811200Y-146817344D01*
X100852116Y-146970046D01*
X100931160Y-147106954D01*
X100931162Y-147106956D01*
X101050011Y-147225805D01*
X101050017Y-147225810D01*
X103059719Y-149235512D01*
X103059729Y-149235523D01*
X103064059Y-149239853D01*
X103064060Y-149239854D01*
X103175846Y-149351640D01*
X103312754Y-149430684D01*
X103465455Y-149471600D01*
X103465456Y-149471600D01*
X116557545Y-149471600D01*
X116586985Y-149480244D01*
X116616972Y-149486768D01*
X116621987Y-149490522D01*
X116624584Y-149491285D01*
X116645226Y-149507919D01*
X116800633Y-149663326D01*
X116834118Y-149724649D01*
X116829134Y-149794341D01*
X116800633Y-149838688D01*
X116752213Y-149887107D01*
X116752210Y-149887111D01*
X116664609Y-150018214D01*
X116664602Y-150018227D01*
X116604264Y-150163898D01*
X116604261Y-150163908D01*
X116573326Y-150319427D01*
X116540941Y-150381338D01*
X116539390Y-150382916D01*
X115347926Y-151574381D01*
X115286603Y-151607866D01*
X115260245Y-151610700D01*
X108669915Y-151610700D01*
X108602876Y-151591015D01*
X108601024Y-151589802D01*
X108469185Y-151501709D01*
X108469172Y-151501702D01*
X108323501Y-151441364D01*
X108323489Y-151441361D01*
X108168845Y-151410600D01*
X108168842Y-151410600D01*
X108011158Y-151410600D01*
X108011155Y-151410600D01*
X107856510Y-151441361D01*
X107856498Y-151441364D01*
X107710827Y-151501702D01*
X107710814Y-151501709D01*
X107579711Y-151589310D01*
X107579707Y-151589313D01*
X107468213Y-151700807D01*
X107468210Y-151700811D01*
X107391841Y-151815105D01*
X107338228Y-151859910D01*
X107268903Y-151868617D01*
X107219848Y-151849316D01*
X107199185Y-151835509D01*
X107199172Y-151835502D01*
X107053501Y-151775164D01*
X107053489Y-151775161D01*
X106898845Y-151744400D01*
X106898842Y-151744400D01*
X106741158Y-151744400D01*
X106741155Y-151744400D01*
X106586510Y-151775161D01*
X106586498Y-151775164D01*
X106440827Y-151835502D01*
X106440814Y-151835509D01*
X106309711Y-151923110D01*
X106309707Y-151923113D01*
X106198213Y-152034607D01*
X106198210Y-152034611D01*
X106110609Y-152165714D01*
X106110602Y-152165727D01*
X106050264Y-152311398D01*
X106050261Y-152311410D01*
X106019500Y-152466053D01*
X106019500Y-152528400D01*
X105999815Y-152595439D01*
X105947011Y-152641194D01*
X105895500Y-152652400D01*
X103081417Y-152652400D01*
X103014378Y-152632715D01*
X102968623Y-152579911D01*
X102966856Y-152575852D01*
X102959597Y-152558327D01*
X102959590Y-152558314D01*
X102871989Y-152427211D01*
X102871986Y-152427207D01*
X102760492Y-152315713D01*
X102760488Y-152315710D01*
X102629385Y-152228109D01*
X102629372Y-152228102D01*
X102483701Y-152167764D01*
X102483689Y-152167761D01*
X102329045Y-152137000D01*
X102329042Y-152137000D01*
X102171358Y-152137000D01*
X102171355Y-152137000D01*
X102016710Y-152167761D01*
X102016698Y-152167764D01*
X101871027Y-152228102D01*
X101871014Y-152228109D01*
X101739911Y-152315710D01*
X101739907Y-152315713D01*
X101628413Y-152427207D01*
X101628410Y-152427211D01*
X101540809Y-152558314D01*
X101540802Y-152558327D01*
X101480464Y-152703998D01*
X101480461Y-152704010D01*
X101449700Y-152858653D01*
X101449700Y-153016346D01*
X101480461Y-153170989D01*
X101480464Y-153171001D01*
X101540802Y-153316672D01*
X101540809Y-153316685D01*
X101628410Y-153447788D01*
X101628413Y-153447792D01*
X101739907Y-153559286D01*
X101739911Y-153559289D01*
X101871014Y-153646890D01*
X101871027Y-153646897D01*
X101955065Y-153681706D01*
X102016703Y-153707237D01*
X102171353Y-153737999D01*
X102171356Y-153738000D01*
X102171358Y-153738000D01*
X102171865Y-153738000D01*
X102172161Y-153738079D01*
X102177418Y-153738597D01*
X102177332Y-153739465D01*
X102233864Y-153754612D01*
X102333754Y-153812284D01*
X102486456Y-153853200D01*
X102644545Y-153853200D01*
X114057945Y-153853200D01*
X114124984Y-153872885D01*
X114145625Y-153889518D01*
X121551546Y-161295440D01*
X121688454Y-161374484D01*
X121841156Y-161415400D01*
X121999245Y-161415400D01*
X136823485Y-161415400D01*
X136890524Y-161435085D01*
X136892376Y-161436298D01*
X137024214Y-161524390D01*
X137024227Y-161524397D01*
X137169898Y-161584735D01*
X137169903Y-161584737D01*
X137324553Y-161615499D01*
X137324556Y-161615500D01*
X137324558Y-161615500D01*
X137482244Y-161615500D01*
X137482245Y-161615499D01*
X137636897Y-161584737D01*
X137782579Y-161524394D01*
X137913689Y-161436789D01*
X138025189Y-161325289D01*
X138112794Y-161194179D01*
X138113294Y-161192970D01*
X138113726Y-161192434D01*
X138115664Y-161188809D01*
X138116351Y-161189176D01*
X138157130Y-161138564D01*
X138223422Y-161116493D01*
X138291123Y-161133767D01*
X138315539Y-161152732D01*
X138851359Y-161688553D01*
X138851360Y-161688554D01*
X138963146Y-161800340D01*
X139033495Y-161840956D01*
X139100054Y-161879384D01*
X139252755Y-161920300D01*
X139252756Y-161920300D01*
X148832113Y-161920300D01*
X148899152Y-161939985D01*
X148944907Y-161992789D01*
X148953730Y-162020109D01*
X148980261Y-162153489D01*
X148980264Y-162153501D01*
X149040602Y-162299172D01*
X149040609Y-162299185D01*
X149128210Y-162430288D01*
X149128213Y-162430292D01*
X149239707Y-162541786D01*
X149239711Y-162541789D01*
X149370814Y-162629390D01*
X149370827Y-162629397D01*
X149516498Y-162689735D01*
X149516503Y-162689737D01*
X149671153Y-162720499D01*
X149671156Y-162720500D01*
X149671158Y-162720500D01*
X149828844Y-162720500D01*
X149828845Y-162720499D01*
X149983497Y-162689737D01*
X150129179Y-162629394D01*
X150260289Y-162541789D01*
X150371789Y-162430289D01*
X150459394Y-162299179D01*
X150519737Y-162153497D01*
X150550500Y-161998842D01*
X150550500Y-161841158D01*
X150550500Y-161841155D01*
X150550499Y-161841153D01*
X150542380Y-161800337D01*
X150519737Y-161686503D01*
X150490327Y-161615500D01*
X150459397Y-161540827D01*
X150459390Y-161540814D01*
X150371789Y-161409711D01*
X150371786Y-161409707D01*
X150260292Y-161298213D01*
X150260288Y-161298210D01*
X150129185Y-161210609D01*
X150129172Y-161210602D01*
X149983501Y-161150264D01*
X149983491Y-161150261D01*
X149827973Y-161119326D01*
X149766062Y-161086941D01*
X149764484Y-161085390D01*
X149518556Y-160839462D01*
X149518554Y-160839460D01*
X149381648Y-160760417D01*
X149381647Y-160760416D01*
X149345631Y-160750766D01*
X149309617Y-160741116D01*
X149309614Y-160741115D01*
X149275518Y-160731979D01*
X149228945Y-160719500D01*
X149228944Y-160719500D01*
X139631856Y-160719500D01*
X139564817Y-160699815D01*
X139544175Y-160683181D01*
X138181809Y-159320815D01*
X138148324Y-159259492D01*
X138147873Y-159257325D01*
X138116938Y-159101810D01*
X138116937Y-159101803D01*
X138059865Y-158964017D01*
X138056597Y-158956127D01*
X138056590Y-158956114D01*
X137968989Y-158825011D01*
X137968986Y-158825007D01*
X137857492Y-158713513D01*
X137857488Y-158713510D01*
X137726385Y-158625909D01*
X137726372Y-158625902D01*
X137580701Y-158565564D01*
X137580689Y-158565561D01*
X137426045Y-158534800D01*
X137426042Y-158534800D01*
X137268358Y-158534800D01*
X137268355Y-158534800D01*
X137113710Y-158565561D01*
X137113698Y-158565564D01*
X136968027Y-158625902D01*
X136968014Y-158625909D01*
X136836176Y-158714002D01*
X136769499Y-158734880D01*
X136767285Y-158734900D01*
X127621755Y-158734900D01*
X127554716Y-158715215D01*
X127534074Y-158698581D01*
X117944470Y-149108977D01*
X117910985Y-149047654D01*
X117915969Y-148977962D01*
X117957841Y-148922029D01*
X117963218Y-148918223D01*
X118086889Y-148835589D01*
X118198389Y-148724089D01*
X118285994Y-148592979D01*
X118346337Y-148447297D01*
X118377100Y-148292642D01*
X118377100Y-148134958D01*
X118377100Y-148134955D01*
X118377099Y-148134953D01*
X118365821Y-148078254D01*
X118346337Y-147980303D01*
X118345856Y-147979142D01*
X118285997Y-147834627D01*
X118285990Y-147834614D01*
X118198389Y-147703511D01*
X118198386Y-147703507D01*
X118086892Y-147592013D01*
X118086888Y-147592010D01*
X117955785Y-147504409D01*
X117955772Y-147504402D01*
X117810101Y-147444064D01*
X117810089Y-147444061D01*
X117655445Y-147413300D01*
X117655442Y-147413300D01*
X117528908Y-147413300D01*
X117461869Y-147393615D01*
X117441227Y-147376981D01*
X115739979Y-145675734D01*
X115706494Y-145614411D01*
X115711478Y-145544719D01*
X115724558Y-145519162D01*
X115789690Y-145421685D01*
X115789690Y-145421684D01*
X115789694Y-145421679D01*
X115850037Y-145275997D01*
X115880800Y-145121342D01*
X115880800Y-144963658D01*
X115880800Y-144963655D01*
X115880799Y-144963653D01*
X115850038Y-144809010D01*
X115850037Y-144809003D01*
X115838934Y-144782198D01*
X115789697Y-144663327D01*
X115789690Y-144663314D01*
X115702089Y-144532211D01*
X115702086Y-144532207D01*
X115590592Y-144420713D01*
X115590588Y-144420710D01*
X115459485Y-144333109D01*
X115459472Y-144333102D01*
X115313801Y-144272764D01*
X115313789Y-144272761D01*
X115159145Y-144242000D01*
X115159142Y-144242000D01*
X115068056Y-144242000D01*
X115001017Y-144222315D01*
X114980375Y-144205681D01*
X113073624Y-142298930D01*
X113040139Y-142237607D01*
X113045123Y-142167915D01*
X113073622Y-142123570D01*
X115282140Y-139915054D01*
X115361184Y-139778146D01*
X115402100Y-139625444D01*
X115402100Y-139467355D01*
X115402100Y-139433213D01*
X118632700Y-139433213D01*
X118632700Y-139566787D01*
X118654848Y-139649444D01*
X118667272Y-139695811D01*
X118667273Y-139695812D01*
X118734056Y-139811485D01*
X118734058Y-139811488D01*
X118734059Y-139811489D01*
X118828511Y-139905941D01*
X118828512Y-139905942D01*
X118828514Y-139905943D01*
X118867967Y-139928721D01*
X118944190Y-139972728D01*
X119073213Y-140007300D01*
X119073216Y-140007300D01*
X119206784Y-140007300D01*
X119206787Y-140007300D01*
X119335810Y-139972728D01*
X119383500Y-139945193D01*
X119451400Y-139928721D01*
X119517427Y-139951573D01*
X119560617Y-140006495D01*
X119569500Y-140052581D01*
X119569500Y-140678541D01*
X119569500Y-140678543D01*
X119569499Y-140678543D01*
X119607947Y-140871829D01*
X119607950Y-140871839D01*
X119683364Y-141053907D01*
X119683371Y-141053920D01*
X119792860Y-141217781D01*
X119792863Y-141217785D01*
X119932214Y-141357136D01*
X119932218Y-141357139D01*
X120096079Y-141466628D01*
X120096092Y-141466635D01*
X120278160Y-141542049D01*
X120278165Y-141542051D01*
X120278169Y-141542051D01*
X120278170Y-141542052D01*
X120471456Y-141580500D01*
X120471459Y-141580500D01*
X120668543Y-141580500D01*
X120798582Y-141554632D01*
X120861835Y-141542051D01*
X121043914Y-141466632D01*
X121207782Y-141357139D01*
X121347139Y-141217782D01*
X121456632Y-141053914D01*
X121532051Y-140871835D01*
X121568830Y-140686937D01*
X121570500Y-140678543D01*
X121570500Y-139381456D01*
X121532052Y-139188170D01*
X121532051Y-139188169D01*
X121532051Y-139188165D01*
X121510970Y-139137271D01*
X121456635Y-139006092D01*
X121456628Y-139006079D01*
X121347139Y-138842218D01*
X121347136Y-138842214D01*
X121207785Y-138702863D01*
X121207781Y-138702860D01*
X121043920Y-138593371D01*
X121043907Y-138593364D01*
X120861839Y-138517950D01*
X120861829Y-138517947D01*
X120668543Y-138479500D01*
X120668541Y-138479500D01*
X120471459Y-138479500D01*
X120471457Y-138479500D01*
X120278170Y-138517947D01*
X120278160Y-138517950D01*
X120096092Y-138593364D01*
X120096079Y-138593371D01*
X119932218Y-138702860D01*
X119932214Y-138702863D01*
X119792863Y-138842214D01*
X119792860Y-138842218D01*
X119683371Y-139006079D01*
X119683366Y-139006089D01*
X119660703Y-139060803D01*
X119616862Y-139115206D01*
X119550567Y-139137271D01*
X119482868Y-139119992D01*
X119458461Y-139101031D01*
X119451490Y-139094060D01*
X119451485Y-139094056D01*
X119335812Y-139027273D01*
X119335811Y-139027272D01*
X119303554Y-139018629D01*
X119206787Y-138992700D01*
X119073213Y-138992700D01*
X118995799Y-139013443D01*
X118944188Y-139027272D01*
X118944187Y-139027273D01*
X118828514Y-139094056D01*
X118828509Y-139094060D01*
X118734060Y-139188509D01*
X118734056Y-139188514D01*
X118667273Y-139304187D01*
X118667272Y-139304188D01*
X118652929Y-139357717D01*
X118632700Y-139433213D01*
X115402100Y-139433213D01*
X115402100Y-130988854D01*
X115421785Y-130921815D01*
X115438415Y-130901177D01*
X116223748Y-130115843D01*
X116285069Y-130082360D01*
X116354760Y-130087344D01*
X116380318Y-130100424D01*
X116381909Y-130101487D01*
X116381911Y-130101489D01*
X116513021Y-130189094D01*
X116513023Y-130189095D01*
X116513027Y-130189097D01*
X116658698Y-130249435D01*
X116658703Y-130249437D01*
X116741702Y-130265946D01*
X116814226Y-130280373D01*
X116876137Y-130312758D01*
X116877716Y-130314309D01*
X120934198Y-134370791D01*
X120967683Y-134432114D01*
X120962699Y-134501806D01*
X120920827Y-134557739D01*
X120855363Y-134582156D01*
X120822326Y-134580089D01*
X120668545Y-134549500D01*
X120668541Y-134549500D01*
X120471459Y-134549500D01*
X120471457Y-134549500D01*
X120278170Y-134587947D01*
X120278160Y-134587950D01*
X120096092Y-134663364D01*
X120096079Y-134663371D01*
X119932218Y-134772860D01*
X119932214Y-134772863D01*
X119792863Y-134912214D01*
X119792861Y-134912217D01*
X119683371Y-135076079D01*
X119683364Y-135076092D01*
X119607950Y-135258160D01*
X119607947Y-135258170D01*
X119569500Y-135451456D01*
X119569500Y-135451459D01*
X119569500Y-136248541D01*
X119569500Y-136248543D01*
X119569499Y-136248543D01*
X119607947Y-136441829D01*
X119607950Y-136441839D01*
X119683364Y-136623907D01*
X119683371Y-136623920D01*
X119792860Y-136787781D01*
X119792863Y-136787785D01*
X119932214Y-136927136D01*
X119932218Y-136927139D01*
X120096079Y-137036628D01*
X120096092Y-137036635D01*
X120207541Y-137082798D01*
X120278165Y-137112051D01*
X120278169Y-137112051D01*
X120278170Y-137112052D01*
X120471456Y-137150500D01*
X120471459Y-137150500D01*
X120668543Y-137150500D01*
X120798582Y-137124632D01*
X120861835Y-137112051D01*
X121043914Y-137036632D01*
X121207782Y-136927139D01*
X121347139Y-136787782D01*
X121456632Y-136623914D01*
X121532051Y-136441835D01*
X121545764Y-136372897D01*
X121570500Y-136248543D01*
X121570500Y-135451456D01*
X121539910Y-135297674D01*
X121546137Y-135228082D01*
X121589000Y-135172905D01*
X121654889Y-135149660D01*
X121722886Y-135165728D01*
X121749208Y-135185801D01*
X122874981Y-136311574D01*
X122908466Y-136372897D01*
X122911300Y-136399255D01*
X122911300Y-141319284D01*
X122891615Y-141386323D01*
X122890402Y-141388175D01*
X122802309Y-141520014D01*
X122802302Y-141520027D01*
X122741964Y-141665698D01*
X122741961Y-141665710D01*
X122711200Y-141820353D01*
X122711200Y-141978046D01*
X122736256Y-142104010D01*
X122730029Y-142173601D01*
X122687166Y-142228779D01*
X122655796Y-142244309D01*
X122655930Y-142244632D01*
X122651125Y-142246622D01*
X122650653Y-142246856D01*
X122650307Y-142246960D01*
X122504627Y-142307302D01*
X122504614Y-142307309D01*
X122373511Y-142394910D01*
X122373507Y-142394913D01*
X122262013Y-142506407D01*
X122262010Y-142506411D01*
X122174409Y-142637514D01*
X122174402Y-142637527D01*
X122114064Y-142783198D01*
X122114061Y-142783210D01*
X122083300Y-142937853D01*
X122082703Y-142943918D01*
X122079824Y-142943634D01*
X122063615Y-142998839D01*
X122010811Y-143044594D01*
X121959300Y-143055800D01*
X120041356Y-143055800D01*
X119974317Y-143036115D01*
X119953675Y-143019481D01*
X119534609Y-142600415D01*
X119501124Y-142539092D01*
X119500673Y-142536925D01*
X119476243Y-142414110D01*
X119469737Y-142381403D01*
X119449756Y-142333164D01*
X119409397Y-142235727D01*
X119409390Y-142235714D01*
X119321789Y-142104611D01*
X119321786Y-142104607D01*
X119210292Y-141993113D01*
X119210288Y-141993110D01*
X119079185Y-141905509D01*
X119079172Y-141905502D01*
X118933501Y-141845164D01*
X118933489Y-141845161D01*
X118778845Y-141814400D01*
X118778842Y-141814400D01*
X118621158Y-141814400D01*
X118621155Y-141814400D01*
X118466510Y-141845161D01*
X118466498Y-141845164D01*
X118320827Y-141905502D01*
X118320814Y-141905509D01*
X118189711Y-141993110D01*
X118189707Y-141993113D01*
X118078213Y-142104607D01*
X118078210Y-142104611D01*
X117990609Y-142235714D01*
X117990602Y-142235727D01*
X117930264Y-142381398D01*
X117930261Y-142381410D01*
X117899500Y-142536053D01*
X117899500Y-142693746D01*
X117930261Y-142848389D01*
X117930264Y-142848401D01*
X117990602Y-142994072D01*
X117990609Y-142994085D01*
X118078210Y-143125188D01*
X118078213Y-143125192D01*
X118189707Y-143236686D01*
X118189711Y-143236689D01*
X118320814Y-143324290D01*
X118320827Y-143324297D01*
X118466498Y-143384635D01*
X118466503Y-143384637D01*
X118549502Y-143401146D01*
X118622026Y-143415573D01*
X118683937Y-143447958D01*
X118685512Y-143449505D01*
X119260859Y-144024853D01*
X119260860Y-144024854D01*
X119372646Y-144136640D01*
X119509554Y-144215684D01*
X119662256Y-144256600D01*
X119820345Y-144256600D01*
X126655300Y-144256600D01*
X126722339Y-144276285D01*
X126768094Y-144329089D01*
X126779300Y-144380600D01*
X126779300Y-147249346D01*
X126792278Y-147297783D01*
X126792279Y-147297783D01*
X126792279Y-147297784D01*
X126820216Y-147402046D01*
X126820217Y-147402049D01*
X126844475Y-147444064D01*
X126899260Y-147538954D01*
X127011046Y-147650740D01*
X127011047Y-147650741D01*
X127438559Y-148078253D01*
X127438560Y-148078254D01*
X127550346Y-148190040D01*
X127635936Y-148239456D01*
X127686657Y-148268740D01*
X127687250Y-148269082D01*
X127687254Y-148269084D01*
X127839955Y-148310000D01*
X127839956Y-148310000D01*
X129583645Y-148310000D01*
X129650684Y-148329685D01*
X129671326Y-148346319D01*
X135251581Y-153926574D01*
X135285066Y-153987897D01*
X135286520Y-154001425D01*
X135286839Y-154001384D01*
X135287900Y-154009443D01*
X135287900Y-154009444D01*
X135328816Y-154162146D01*
X135407860Y-154299054D01*
X135407862Y-154299056D01*
X135526711Y-154417905D01*
X135526716Y-154417909D01*
X141112746Y-160003940D01*
X141249654Y-160082984D01*
X141402355Y-160123900D01*
X141402356Y-160123900D01*
X152194345Y-160123900D01*
X152261384Y-160143585D01*
X152282026Y-160160219D01*
X155766423Y-163644616D01*
X155799908Y-163705939D01*
X155794924Y-163775631D01*
X155781845Y-163801187D01*
X155700308Y-163923216D01*
X155700302Y-163923227D01*
X155639964Y-164068898D01*
X155639961Y-164068910D01*
X155609200Y-164223553D01*
X155609200Y-164381246D01*
X155639961Y-164535889D01*
X155639964Y-164535901D01*
X155700302Y-164681572D01*
X155700309Y-164681585D01*
X155788402Y-164813424D01*
X155809280Y-164880101D01*
X155809300Y-164882315D01*
X155809300Y-168377744D01*
X155789615Y-168444783D01*
X155772981Y-168465425D01*
X152948616Y-171289790D01*
X152887293Y-171323275D01*
X152885127Y-171323726D01*
X152729608Y-171354661D01*
X152729598Y-171354664D01*
X152583927Y-171415002D01*
X152583914Y-171415009D01*
X152452811Y-171502610D01*
X152452807Y-171502613D01*
X152341313Y-171614107D01*
X152341310Y-171614111D01*
X152253709Y-171745214D01*
X152253702Y-171745227D01*
X152193364Y-171890898D01*
X152193361Y-171890910D01*
X152162600Y-172045553D01*
X152162600Y-172203246D01*
X152193361Y-172357889D01*
X152193364Y-172357901D01*
X152253702Y-172503572D01*
X152253709Y-172503585D01*
X152341310Y-172634688D01*
X152341313Y-172634692D01*
X152452807Y-172746186D01*
X152452811Y-172746189D01*
X152583914Y-172833790D01*
X152583927Y-172833797D01*
X152729598Y-172894135D01*
X152729603Y-172894137D01*
X152884253Y-172924899D01*
X152884256Y-172924900D01*
X152884258Y-172924900D01*
X153041944Y-172924900D01*
X153041945Y-172924899D01*
X153196597Y-172894137D01*
X153342279Y-172833794D01*
X153473389Y-172746189D01*
X153584889Y-172634689D01*
X153672494Y-172503579D01*
X153732837Y-172357897D01*
X153763600Y-172203242D01*
X153763773Y-172202373D01*
X153796158Y-172140462D01*
X153797653Y-172138939D01*
X156061619Y-169874974D01*
X156122942Y-169841489D01*
X156192634Y-169846473D01*
X156248567Y-169888345D01*
X156272984Y-169953809D01*
X156273300Y-169962655D01*
X156273300Y-171377844D01*
X156314216Y-171530546D01*
X156393260Y-171667454D01*
X156393262Y-171667456D01*
X156512111Y-171786305D01*
X156512117Y-171786310D01*
X156665390Y-171939583D01*
X156698875Y-172000906D01*
X156699326Y-172003072D01*
X156730261Y-172158591D01*
X156730264Y-172158601D01*
X156790602Y-172304272D01*
X156790609Y-172304285D01*
X156878210Y-172435388D01*
X156878213Y-172435392D01*
X156989707Y-172546886D01*
X156989711Y-172546889D01*
X157120814Y-172634490D01*
X157120827Y-172634497D01*
X157266498Y-172694835D01*
X157266503Y-172694837D01*
X157421153Y-172725599D01*
X157421156Y-172725600D01*
X157421158Y-172725600D01*
X157578844Y-172725600D01*
X157578845Y-172725599D01*
X157733497Y-172694837D01*
X157879179Y-172634494D01*
X158010289Y-172546889D01*
X158121789Y-172435389D01*
X158209394Y-172304279D01*
X158269737Y-172158597D01*
X158300500Y-172003942D01*
X158300500Y-171846258D01*
X158300500Y-171846255D01*
X158300499Y-171846253D01*
X158269737Y-171691603D01*
X158255075Y-171656206D01*
X158209397Y-171545927D01*
X158209390Y-171545914D01*
X158121789Y-171414811D01*
X158121786Y-171414807D01*
X158010292Y-171303313D01*
X158010288Y-171303310D01*
X157879185Y-171215709D01*
X157879172Y-171215702D01*
X157733501Y-171155364D01*
X157733491Y-171155361D01*
X157577972Y-171124426D01*
X157561215Y-171115660D01*
X157542737Y-171111641D01*
X157517700Y-171092898D01*
X157516061Y-171092041D01*
X157514483Y-171090490D01*
X157510419Y-171086426D01*
X157476934Y-171025103D01*
X157474100Y-170998745D01*
X157474100Y-168983498D01*
X157493785Y-168916459D01*
X157546589Y-168870704D01*
X157573909Y-168861881D01*
X157578841Y-168860900D01*
X157578842Y-168860900D01*
X157733497Y-168830137D01*
X157879179Y-168769794D01*
X158010289Y-168682189D01*
X158121789Y-168570689D01*
X158209394Y-168439579D01*
X158269737Y-168293897D01*
X158300500Y-168139242D01*
X158300673Y-168138373D01*
X158333058Y-168076462D01*
X158334550Y-168074942D01*
X158856239Y-167553255D01*
X158858055Y-167550111D01*
X158935284Y-167416346D01*
X158944379Y-167382403D01*
X158952793Y-167351005D01*
X158964581Y-167307007D01*
X158976200Y-167263645D01*
X158976200Y-167105556D01*
X158976200Y-157946900D01*
X158995885Y-157879861D01*
X159048689Y-157834106D01*
X159100200Y-157822900D01*
X159175044Y-157822900D01*
X159175045Y-157822899D01*
X159329697Y-157792137D01*
X159329709Y-157792131D01*
X159335524Y-157790369D01*
X159336008Y-157791965D01*
X159397510Y-157785350D01*
X159459991Y-157816621D01*
X159495647Y-157876708D01*
X159499500Y-157907381D01*
X159499500Y-174375500D01*
X159479815Y-174442539D01*
X159427011Y-174488294D01*
X159375500Y-174499500D01*
X101163769Y-174499500D01*
X101096730Y-174479815D01*
X101050975Y-174427011D01*
X101041031Y-174357853D01*
X101047587Y-174332167D01*
X101094091Y-174207482D01*
X101100500Y-174147873D01*
X101100500Y-173200000D01*
X113360000Y-173200000D01*
X141360000Y-173200000D01*
X141360000Y-164678653D01*
X148949500Y-164678653D01*
X148949500Y-164836346D01*
X148980261Y-164990989D01*
X148980264Y-164991001D01*
X149040602Y-165136672D01*
X149040609Y-165136685D01*
X149128210Y-165267788D01*
X149128213Y-165267792D01*
X149239707Y-165379286D01*
X149239711Y-165379289D01*
X149370814Y-165466890D01*
X149370827Y-165466897D01*
X149516496Y-165527234D01*
X149516503Y-165527237D01*
X149671153Y-165557999D01*
X149671156Y-165558000D01*
X149671158Y-165558000D01*
X149828844Y-165558000D01*
X149828845Y-165557999D01*
X149983497Y-165527237D01*
X150129179Y-165466894D01*
X150260289Y-165379289D01*
X150371789Y-165267789D01*
X150459394Y-165136679D01*
X150467110Y-165118052D01*
X150519735Y-164991001D01*
X150519737Y-164990997D01*
X150550500Y-164836342D01*
X150550500Y-164678658D01*
X150550500Y-164678655D01*
X150550499Y-164678653D01*
X150534834Y-164599901D01*
X150519737Y-164524003D01*
X150509795Y-164500000D01*
X150459397Y-164378327D01*
X150459390Y-164378314D01*
X150371789Y-164247211D01*
X150371786Y-164247207D01*
X150260292Y-164135713D01*
X150260288Y-164135710D01*
X150129185Y-164048109D01*
X150129172Y-164048102D01*
X149983501Y-163987764D01*
X149983489Y-163987761D01*
X149828845Y-163957000D01*
X149828842Y-163957000D01*
X149671158Y-163957000D01*
X149671155Y-163957000D01*
X149516510Y-163987761D01*
X149516498Y-163987764D01*
X149370827Y-164048102D01*
X149370814Y-164048109D01*
X149239711Y-164135710D01*
X149239707Y-164135713D01*
X149128213Y-164247207D01*
X149128210Y-164247211D01*
X149040609Y-164378314D01*
X149040602Y-164378327D01*
X148980264Y-164523998D01*
X148980261Y-164524010D01*
X148949500Y-164678653D01*
X141360000Y-164678653D01*
X141360000Y-162200000D01*
X113360000Y-162200000D01*
X113360000Y-173200000D01*
X101100500Y-173200000D01*
X101100499Y-172052128D01*
X101094091Y-171992517D01*
X101056191Y-171890903D01*
X101043797Y-171857671D01*
X101043793Y-171857664D01*
X100957547Y-171742455D01*
X100957544Y-171742452D01*
X100842335Y-171656206D01*
X100842328Y-171656202D01*
X100707482Y-171605908D01*
X100707483Y-171605908D01*
X100647883Y-171599501D01*
X100647881Y-171599500D01*
X100647873Y-171599500D01*
X100647864Y-171599500D01*
X97352129Y-171599500D01*
X97352123Y-171599501D01*
X97292516Y-171605908D01*
X97157671Y-171656202D01*
X97157664Y-171656206D01*
X97042455Y-171742452D01*
X97042452Y-171742455D01*
X96956206Y-171857664D01*
X96956202Y-171857671D01*
X96905908Y-171992517D01*
X96900207Y-172045553D01*
X96899501Y-172052123D01*
X96899500Y-172052135D01*
X96899500Y-174147870D01*
X96899501Y-174147876D01*
X96905908Y-174207483D01*
X96952413Y-174332167D01*
X96957397Y-174401859D01*
X96923912Y-174463182D01*
X96862589Y-174496666D01*
X96836231Y-174499500D01*
X89624500Y-174499500D01*
X89557461Y-174479815D01*
X89511706Y-174427011D01*
X89500500Y-174375500D01*
X89500500Y-163952135D01*
X89999500Y-163952135D01*
X89999500Y-166047870D01*
X89999501Y-166047876D01*
X90005908Y-166107483D01*
X90056202Y-166242328D01*
X90056206Y-166242335D01*
X90142452Y-166357544D01*
X90142453Y-166357544D01*
X90142454Y-166357546D01*
X90185943Y-166390102D01*
X90260599Y-166445990D01*
X90302469Y-166501924D01*
X90307453Y-166571615D01*
X90286605Y-166618141D01*
X90217087Y-166713824D01*
X90109897Y-166924197D01*
X90036934Y-167148752D01*
X90000000Y-167381947D01*
X90000000Y-167618052D01*
X90036934Y-167851247D01*
X90109897Y-168075802D01*
X90217087Y-168286174D01*
X90277338Y-168369104D01*
X90277340Y-168369105D01*
X91017037Y-167629408D01*
X91034075Y-167692993D01*
X91099901Y-167807007D01*
X91192993Y-167900099D01*
X91307007Y-167965925D01*
X91370590Y-167982962D01*
X90624280Y-168729271D01*
X90615105Y-168772947D01*
X90578739Y-168814615D01*
X90522490Y-168855482D01*
X90355485Y-169022487D01*
X90355485Y-169022488D01*
X90355483Y-169022490D01*
X90295862Y-169104550D01*
X90216657Y-169213566D01*
X90109433Y-169424003D01*
X90036446Y-169648631D01*
X89999500Y-169881902D01*
X89999500Y-170118097D01*
X90036446Y-170351368D01*
X90109433Y-170575996D01*
X90216657Y-170786433D01*
X90355483Y-170977510D01*
X90522490Y-171144517D01*
X90713567Y-171283343D01*
X90791938Y-171323275D01*
X90924003Y-171390566D01*
X90924005Y-171390566D01*
X90924008Y-171390568D01*
X91044412Y-171429689D01*
X91148631Y-171463553D01*
X91381903Y-171500500D01*
X91381908Y-171500500D01*
X91618097Y-171500500D01*
X91851368Y-171463553D01*
X92075992Y-171390568D01*
X92286433Y-171283343D01*
X92477510Y-171144517D01*
X92644517Y-170977510D01*
X92783343Y-170786433D01*
X92843634Y-170668104D01*
X92891609Y-170617309D01*
X92954119Y-170600400D01*
X94092943Y-170600400D01*
X94092945Y-170600400D01*
X94245646Y-170559484D01*
X94382554Y-170480440D01*
X94494340Y-170368654D01*
X94494340Y-170368652D01*
X94504544Y-170358449D01*
X94504547Y-170358444D01*
X94981089Y-169881902D01*
X104499500Y-169881902D01*
X104499500Y-170118097D01*
X104536446Y-170351368D01*
X104609433Y-170575996D01*
X104716657Y-170786433D01*
X104855483Y-170977510D01*
X105022490Y-171144517D01*
X105213567Y-171283343D01*
X105291938Y-171323275D01*
X105424003Y-171390566D01*
X105424005Y-171390566D01*
X105424008Y-171390568D01*
X105544412Y-171429689D01*
X105648631Y-171463553D01*
X105881903Y-171500500D01*
X105881908Y-171500500D01*
X106118097Y-171500500D01*
X106351368Y-171463553D01*
X106575992Y-171390568D01*
X106786433Y-171283343D01*
X106977510Y-171144517D01*
X107144517Y-170977510D01*
X107283343Y-170786433D01*
X107390568Y-170575992D01*
X107463553Y-170351368D01*
X107500500Y-170118097D01*
X107500500Y-169881902D01*
X107463553Y-169648631D01*
X107390566Y-169424003D01*
X107283342Y-169213566D01*
X107144517Y-169022490D01*
X106977510Y-168855483D01*
X106786433Y-168716657D01*
X106718780Y-168682186D01*
X106575996Y-168609433D01*
X106351368Y-168536446D01*
X106118097Y-168499500D01*
X106118092Y-168499500D01*
X105881908Y-168499500D01*
X105881903Y-168499500D01*
X105648631Y-168536446D01*
X105424003Y-168609433D01*
X105213566Y-168716657D01*
X105104550Y-168795862D01*
X105022490Y-168855483D01*
X105022488Y-168855485D01*
X105022487Y-168855485D01*
X104855485Y-169022487D01*
X104855485Y-169022488D01*
X104855483Y-169022490D01*
X104795862Y-169104550D01*
X104716657Y-169213566D01*
X104609433Y-169424003D01*
X104536446Y-169648631D01*
X104499500Y-169881902D01*
X94981089Y-169881902D01*
X99981045Y-164881947D01*
X104500000Y-164881947D01*
X104500000Y-165118052D01*
X104536934Y-165351247D01*
X104609897Y-165575802D01*
X104717087Y-165786174D01*
X104777338Y-165869104D01*
X104777340Y-165869105D01*
X105517037Y-165129408D01*
X105534075Y-165192993D01*
X105599901Y-165307007D01*
X105692993Y-165400099D01*
X105807007Y-165465925D01*
X105870590Y-165482962D01*
X105130893Y-166222658D01*
X105213828Y-166282914D01*
X105424197Y-166390102D01*
X105648752Y-166463065D01*
X105648751Y-166463065D01*
X105881948Y-166500000D01*
X106118052Y-166500000D01*
X106351247Y-166463065D01*
X106575802Y-166390102D01*
X106786163Y-166282918D01*
X106786169Y-166282914D01*
X106869104Y-166222658D01*
X106869105Y-166222658D01*
X106129408Y-165482962D01*
X106192993Y-165465925D01*
X106307007Y-165400099D01*
X106400099Y-165307007D01*
X106465925Y-165192993D01*
X106482962Y-165129409D01*
X107222658Y-165869105D01*
X107222658Y-165869104D01*
X107282914Y-165786169D01*
X107282918Y-165786163D01*
X107390102Y-165575802D01*
X107463065Y-165351247D01*
X107500000Y-165118052D01*
X107500000Y-164881947D01*
X107463065Y-164648752D01*
X107390102Y-164424197D01*
X107282914Y-164213828D01*
X107222658Y-164130894D01*
X107222658Y-164130893D01*
X106482962Y-164870590D01*
X106465925Y-164807007D01*
X106400099Y-164692993D01*
X106307007Y-164599901D01*
X106192993Y-164534075D01*
X106129409Y-164517037D01*
X106869105Y-163777340D01*
X106869104Y-163777338D01*
X106786174Y-163717087D01*
X106575802Y-163609897D01*
X106351247Y-163536934D01*
X106351248Y-163536934D01*
X106118052Y-163500000D01*
X105881948Y-163500000D01*
X105648752Y-163536934D01*
X105424197Y-163609897D01*
X105213830Y-163717084D01*
X105130894Y-163777340D01*
X105870591Y-164517037D01*
X105807007Y-164534075D01*
X105692993Y-164599901D01*
X105599901Y-164692993D01*
X105534075Y-164807007D01*
X105517037Y-164870591D01*
X104777340Y-164130894D01*
X104717084Y-164213830D01*
X104609897Y-164424197D01*
X104536934Y-164648752D01*
X104500000Y-164881947D01*
X99981045Y-164881947D01*
X106834486Y-158028507D01*
X106895807Y-157995024D01*
X106897974Y-157994573D01*
X106955055Y-157983218D01*
X107053497Y-157963637D01*
X107199179Y-157903294D01*
X107330289Y-157815689D01*
X107441789Y-157704189D01*
X107529394Y-157573079D01*
X107589737Y-157427397D01*
X107620500Y-157272742D01*
X107620500Y-157115058D01*
X107620500Y-157115055D01*
X107620499Y-157115053D01*
X107613225Y-157078484D01*
X107589737Y-156960403D01*
X107589735Y-156960398D01*
X107529397Y-156814727D01*
X107529390Y-156814714D01*
X107441789Y-156683611D01*
X107441786Y-156683607D01*
X107330292Y-156572113D01*
X107330288Y-156572110D01*
X107199185Y-156484509D01*
X107199172Y-156484502D01*
X107053501Y-156424164D01*
X107053489Y-156424161D01*
X106898845Y-156393400D01*
X106898842Y-156393400D01*
X106741158Y-156393400D01*
X106741155Y-156393400D01*
X106586510Y-156424161D01*
X106586498Y-156424164D01*
X106440827Y-156484502D01*
X106440814Y-156484509D01*
X106309711Y-156572110D01*
X106309707Y-156572113D01*
X106198213Y-156683607D01*
X106198210Y-156683611D01*
X106110609Y-156814714D01*
X106110602Y-156814727D01*
X106050264Y-156960398D01*
X106050261Y-156960408D01*
X106019326Y-157115926D01*
X105986941Y-157177837D01*
X105985390Y-157179415D01*
X101312180Y-161852625D01*
X101250857Y-161886110D01*
X101181165Y-161881126D01*
X101125232Y-161839254D01*
X101100815Y-161773790D01*
X101100499Y-161764944D01*
X101100499Y-160852129D01*
X101100498Y-160852123D01*
X101094091Y-160792516D01*
X101043797Y-160657671D01*
X101043793Y-160657664D01*
X100957547Y-160542455D01*
X100957544Y-160542452D01*
X100842335Y-160456206D01*
X100842328Y-160456202D01*
X100707482Y-160405908D01*
X100707483Y-160405908D01*
X100647883Y-160399501D01*
X100647881Y-160399500D01*
X100647873Y-160399500D01*
X100647865Y-160399500D01*
X98532355Y-160399500D01*
X98465316Y-160379815D01*
X98419561Y-160327011D01*
X98409617Y-160257853D01*
X98438642Y-160194297D01*
X98444674Y-160187819D01*
X98737710Y-159894784D01*
X99148275Y-159484219D01*
X99209598Y-159450734D01*
X99235956Y-159447900D01*
X100200785Y-159447900D01*
X100267824Y-159467585D01*
X100269676Y-159468798D01*
X100401514Y-159556890D01*
X100401527Y-159556897D01*
X100547198Y-159617235D01*
X100547203Y-159617237D01*
X100701853Y-159647999D01*
X100701856Y-159648000D01*
X100701858Y-159648000D01*
X100859544Y-159648000D01*
X100859545Y-159647999D01*
X101014197Y-159617237D01*
X101159879Y-159556894D01*
X101290989Y-159469289D01*
X101402489Y-159357789D01*
X101490094Y-159226679D01*
X101550437Y-159080997D01*
X101581200Y-158926342D01*
X101581200Y-158768658D01*
X101581200Y-158768655D01*
X101581199Y-158768653D01*
X101570231Y-158713513D01*
X101550437Y-158614003D01*
X101530372Y-158565561D01*
X101490097Y-158468327D01*
X101490090Y-158468314D01*
X101402489Y-158337211D01*
X101402486Y-158337207D01*
X101290992Y-158225713D01*
X101290988Y-158225710D01*
X101159885Y-158138109D01*
X101159872Y-158138102D01*
X101014201Y-158077764D01*
X101014189Y-158077761D01*
X100859545Y-158047000D01*
X100859542Y-158047000D01*
X100701858Y-158047000D01*
X100701855Y-158047000D01*
X100547210Y-158077761D01*
X100547198Y-158077764D01*
X100401527Y-158138102D01*
X100401514Y-158138109D01*
X100269676Y-158226202D01*
X100202999Y-158247080D01*
X100200785Y-158247100D01*
X99014945Y-158247100D01*
X98856855Y-158247100D01*
X98704154Y-158288016D01*
X98704153Y-158288016D01*
X98704151Y-158288017D01*
X98704150Y-158288017D01*
X98567249Y-158367058D01*
X98567243Y-158367062D01*
X93143161Y-163791144D01*
X93081838Y-163824629D01*
X93012146Y-163819645D01*
X92956213Y-163777773D01*
X92946650Y-163762895D01*
X92943797Y-163757673D01*
X92943796Y-163757669D01*
X92941914Y-163755155D01*
X92857547Y-163642455D01*
X92857544Y-163642452D01*
X92742335Y-163556206D01*
X92742328Y-163556202D01*
X92607482Y-163505908D01*
X92607483Y-163505908D01*
X92547883Y-163499501D01*
X92547881Y-163499500D01*
X92547873Y-163499500D01*
X92547864Y-163499500D01*
X90452129Y-163499500D01*
X90452123Y-163499501D01*
X90392516Y-163505908D01*
X90257671Y-163556202D01*
X90257664Y-163556206D01*
X90142455Y-163642452D01*
X90142452Y-163642455D01*
X90056206Y-163757664D01*
X90056202Y-163757671D01*
X90005908Y-163892517D01*
X89999501Y-163952116D01*
X89999500Y-163952135D01*
X89500500Y-163952135D01*
X89500500Y-107721153D01*
X103199500Y-107721153D01*
X103199500Y-107878846D01*
X103230261Y-108033489D01*
X103230264Y-108033501D01*
X103290602Y-108179172D01*
X103290609Y-108179185D01*
X103378210Y-108310288D01*
X103378213Y-108310292D01*
X103489707Y-108421786D01*
X103489711Y-108421789D01*
X103620814Y-108509390D01*
X103620827Y-108509397D01*
X103766498Y-108569735D01*
X103766503Y-108569737D01*
X103921153Y-108600499D01*
X103921156Y-108600500D01*
X103921158Y-108600500D01*
X104078844Y-108600500D01*
X104078845Y-108600499D01*
X104233497Y-108569737D01*
X104356927Y-108518611D01*
X104379172Y-108509397D01*
X104379172Y-108509396D01*
X104379179Y-108509394D01*
X104379185Y-108509390D01*
X104510875Y-108421398D01*
X104577553Y-108400520D01*
X104579766Y-108400500D01*
X105420234Y-108400500D01*
X105487273Y-108420185D01*
X105489125Y-108421398D01*
X105620814Y-108509390D01*
X105620827Y-108509397D01*
X105766498Y-108569735D01*
X105766503Y-108569737D01*
X105831147Y-108582595D01*
X105921849Y-108600638D01*
X105938605Y-108609402D01*
X105957085Y-108613423D01*
X105982123Y-108632167D01*
X105983760Y-108633023D01*
X105985339Y-108634574D01*
X106065425Y-108714660D01*
X106098910Y-108775983D01*
X106099361Y-108778149D01*
X106130261Y-108933491D01*
X106130264Y-108933501D01*
X106190602Y-109079172D01*
X106190609Y-109079185D01*
X106278210Y-109210288D01*
X106278213Y-109210292D01*
X106389707Y-109321786D01*
X106389711Y-109321789D01*
X106520814Y-109409390D01*
X106520827Y-109409397D01*
X106666498Y-109469735D01*
X106666503Y-109469737D01*
X106821153Y-109500499D01*
X106821156Y-109500500D01*
X106821158Y-109500500D01*
X106978844Y-109500500D01*
X106978845Y-109500499D01*
X107133497Y-109469737D01*
X107279179Y-109409394D01*
X107410289Y-109321789D01*
X107521789Y-109210289D01*
X107609394Y-109079179D01*
X107669737Y-108933497D01*
X107700500Y-108778842D01*
X107700500Y-108621158D01*
X107700500Y-108621155D01*
X107700499Y-108621153D01*
X107678269Y-108509397D01*
X107669737Y-108466503D01*
X107642398Y-108400500D01*
X107609397Y-108320827D01*
X107609390Y-108320814D01*
X107521789Y-108189711D01*
X107521786Y-108189707D01*
X107410292Y-108078213D01*
X107410288Y-108078210D01*
X107279185Y-107990609D01*
X107279172Y-107990602D01*
X107133501Y-107930264D01*
X107133491Y-107930261D01*
X106978149Y-107899361D01*
X106961392Y-107890595D01*
X106942914Y-107886576D01*
X106917877Y-107867833D01*
X106916238Y-107866976D01*
X106914660Y-107865425D01*
X106834574Y-107785339D01*
X106801089Y-107724016D01*
X106800638Y-107721849D01*
X106769738Y-107566510D01*
X106769737Y-107566503D01*
X106768622Y-107563810D01*
X106709397Y-107420827D01*
X106709390Y-107420814D01*
X106621789Y-107289711D01*
X106621786Y-107289707D01*
X106510292Y-107178213D01*
X106510288Y-107178210D01*
X106379185Y-107090609D01*
X106379172Y-107090602D01*
X106233501Y-107030264D01*
X106233489Y-107030261D01*
X106078845Y-106999500D01*
X106078842Y-106999500D01*
X105921158Y-106999500D01*
X105921155Y-106999500D01*
X105766510Y-107030261D01*
X105766498Y-107030264D01*
X105620827Y-107090602D01*
X105620814Y-107090609D01*
X105489125Y-107178602D01*
X105422447Y-107199480D01*
X105420234Y-107199500D01*
X104579766Y-107199500D01*
X104512727Y-107179815D01*
X104510875Y-107178602D01*
X104379185Y-107090609D01*
X104379172Y-107090602D01*
X104233501Y-107030264D01*
X104233489Y-107030261D01*
X104078845Y-106999500D01*
X104078842Y-106999500D01*
X103921158Y-106999500D01*
X103921155Y-106999500D01*
X103766510Y-107030261D01*
X103766498Y-107030264D01*
X103620827Y-107090602D01*
X103620814Y-107090609D01*
X103489711Y-107178210D01*
X103489707Y-107178213D01*
X103378213Y-107289707D01*
X103378210Y-107289711D01*
X103290609Y-107420814D01*
X103290602Y-107420827D01*
X103230264Y-107566498D01*
X103230261Y-107566510D01*
X103199500Y-107721153D01*
X89500500Y-107721153D01*
X89500500Y-105721153D01*
X105399500Y-105721153D01*
X105399500Y-105878846D01*
X105430261Y-106033489D01*
X105430264Y-106033501D01*
X105490602Y-106179172D01*
X105490609Y-106179185D01*
X105578210Y-106310288D01*
X105578213Y-106310292D01*
X105689707Y-106421786D01*
X105689711Y-106421789D01*
X105820814Y-106509390D01*
X105820827Y-106509397D01*
X105966498Y-106569735D01*
X105966503Y-106569737D01*
X106121153Y-106600499D01*
X106121156Y-106600500D01*
X106121158Y-106600500D01*
X106278844Y-106600500D01*
X106278845Y-106600499D01*
X106433497Y-106569737D01*
X106579179Y-106509394D01*
X106710289Y-106421789D01*
X106821789Y-106310289D01*
X106909394Y-106179179D01*
X106969737Y-106033497D01*
X107000500Y-105878842D01*
X107000500Y-105878839D01*
X107000637Y-105878151D01*
X107009402Y-105861394D01*
X107013422Y-105842915D01*
X107032162Y-105817880D01*
X107033021Y-105816240D01*
X107034527Y-105814707D01*
X107158504Y-105690729D01*
X107158506Y-105690729D01*
X107168714Y-105680520D01*
X107168716Y-105680520D01*
X107280520Y-105568716D01*
X107331440Y-105480519D01*
X107359577Y-105431785D01*
X107400500Y-105279057D01*
X107400500Y-105120943D01*
X107400500Y-104179765D01*
X107420185Y-104112726D01*
X107421398Y-104110874D01*
X107442658Y-104079057D01*
X107509394Y-103979179D01*
X107569737Y-103833497D01*
X107600500Y-103678842D01*
X107600500Y-103521158D01*
X107600500Y-103521155D01*
X107600499Y-103521153D01*
X107569738Y-103366510D01*
X107569737Y-103366503D01*
X107569735Y-103366498D01*
X107509397Y-103220827D01*
X107509390Y-103220814D01*
X107421398Y-103089125D01*
X107400520Y-103022447D01*
X107400500Y-103020234D01*
X107400500Y-101600097D01*
X107420185Y-101533058D01*
X107436819Y-101512416D01*
X108129757Y-100819478D01*
X109314662Y-99634572D01*
X109375983Y-99601089D01*
X109378150Y-99600638D01*
X109436085Y-99589113D01*
X109533497Y-99569737D01*
X109679179Y-99509394D01*
X109810289Y-99421789D01*
X109921789Y-99310289D01*
X110009394Y-99179179D01*
X110069737Y-99033497D01*
X110100500Y-98878842D01*
X110100500Y-98721158D01*
X110100500Y-98721155D01*
X110100499Y-98721153D01*
X110069738Y-98566510D01*
X110069738Y-98566508D01*
X110069737Y-98566503D01*
X110069735Y-98566498D01*
X110009397Y-98420827D01*
X110009390Y-98420814D01*
X109921789Y-98289711D01*
X109921786Y-98289707D01*
X109810292Y-98178213D01*
X109810288Y-98178210D01*
X109679185Y-98090609D01*
X109679172Y-98090602D01*
X109533501Y-98030264D01*
X109533489Y-98030261D01*
X109378845Y-97999500D01*
X109378842Y-97999500D01*
X109221158Y-97999500D01*
X109221155Y-97999500D01*
X109066510Y-98030261D01*
X109066498Y-98030264D01*
X108920827Y-98090602D01*
X108920814Y-98090609D01*
X108789711Y-98178210D01*
X108789707Y-98178213D01*
X108678213Y-98289707D01*
X108678210Y-98289711D01*
X108590609Y-98420814D01*
X108590602Y-98420827D01*
X108530264Y-98566498D01*
X108530261Y-98566508D01*
X108499361Y-98721850D01*
X108466976Y-98783761D01*
X108465425Y-98785339D01*
X106319481Y-100931282D01*
X106319479Y-100931285D01*
X106269361Y-101018094D01*
X106269359Y-101018096D01*
X106240425Y-101068209D01*
X106240424Y-101068210D01*
X106240423Y-101068215D01*
X106199499Y-101220943D01*
X106199499Y-101220945D01*
X106199499Y-101389046D01*
X106199500Y-101389059D01*
X106199500Y-103020234D01*
X106179815Y-103087273D01*
X106178602Y-103089125D01*
X106090609Y-103220814D01*
X106090602Y-103220827D01*
X106030264Y-103366498D01*
X106030261Y-103366510D01*
X105999500Y-103521153D01*
X105999500Y-103678846D01*
X106030261Y-103833489D01*
X106030264Y-103833501D01*
X106090602Y-103979172D01*
X106090609Y-103979185D01*
X106178602Y-104110874D01*
X106199480Y-104177551D01*
X106199500Y-104179765D01*
X106199500Y-104882152D01*
X106179815Y-104949191D01*
X106127011Y-104994946D01*
X106099692Y-105003769D01*
X105966508Y-105030261D01*
X105966498Y-105030264D01*
X105820827Y-105090602D01*
X105820814Y-105090609D01*
X105689711Y-105178210D01*
X105689707Y-105178213D01*
X105578213Y-105289707D01*
X105578210Y-105289711D01*
X105490609Y-105420814D01*
X105490602Y-105420827D01*
X105430264Y-105566498D01*
X105430261Y-105566510D01*
X105399500Y-105721153D01*
X89500500Y-105721153D01*
X89500500Y-89879568D01*
X105529500Y-89879568D01*
X105529500Y-90160431D01*
X105560942Y-90439494D01*
X105560945Y-90439512D01*
X105623439Y-90713317D01*
X105623443Y-90713329D01*
X105716200Y-90978411D01*
X105838053Y-91231442D01*
X105838055Y-91231445D01*
X105987477Y-91469248D01*
X106162584Y-91688825D01*
X106361175Y-91887416D01*
X106580752Y-92062523D01*
X106818555Y-92211945D01*
X107071592Y-92333801D01*
X107270680Y-92403465D01*
X107336670Y-92426556D01*
X107336682Y-92426560D01*
X107610491Y-92489055D01*
X107610497Y-92489055D01*
X107610505Y-92489057D01*
X107796547Y-92510018D01*
X107889569Y-92520499D01*
X107889572Y-92520500D01*
X107889575Y-92520500D01*
X108170428Y-92520500D01*
X108170429Y-92520499D01*
X108313055Y-92504429D01*
X108449494Y-92489057D01*
X108449499Y-92489056D01*
X108449509Y-92489055D01*
X108723318Y-92426560D01*
X108988408Y-92333801D01*
X109241445Y-92211945D01*
X109479248Y-92062523D01*
X109698825Y-91887416D01*
X109897416Y-91688825D01*
X110072523Y-91469248D01*
X110221945Y-91231445D01*
X110343801Y-90978408D01*
X110433475Y-90722135D01*
X113669500Y-90722135D01*
X113669500Y-92317870D01*
X113669501Y-92317876D01*
X113675908Y-92377483D01*
X113726202Y-92512328D01*
X113726206Y-92512335D01*
X113812452Y-92627544D01*
X113812455Y-92627547D01*
X113927664Y-92713793D01*
X113927671Y-92713797D01*
X114062517Y-92764091D01*
X114062516Y-92764091D01*
X114069444Y-92764835D01*
X114122127Y-92770500D01*
X115717872Y-92770499D01*
X115777483Y-92764091D01*
X115912331Y-92713796D01*
X116027546Y-92627546D01*
X116113796Y-92512331D01*
X116122477Y-92489057D01*
X116128434Y-92473086D01*
X116164091Y-92377482D01*
X116168696Y-92334648D01*
X116170500Y-92317873D01*
X116170499Y-92253413D01*
X116190183Y-92186377D01*
X116242986Y-92140621D01*
X116312144Y-92130677D01*
X116375700Y-92159701D01*
X116394818Y-92180531D01*
X116416319Y-92210125D01*
X116416320Y-92210125D01*
X116977037Y-91649408D01*
X116994075Y-91712993D01*
X117059901Y-91827007D01*
X117152993Y-91920099D01*
X117267007Y-91985925D01*
X117330590Y-92002962D01*
X116769873Y-92563677D01*
X116769873Y-92563678D01*
X116804858Y-92589096D01*
X116980164Y-92678418D01*
X117167294Y-92739221D01*
X117361618Y-92770000D01*
X117558382Y-92770000D01*
X117752705Y-92739221D01*
X117939835Y-92678418D01*
X118115143Y-92589095D01*
X118150125Y-92563678D01*
X118150126Y-92563678D01*
X117589410Y-92002962D01*
X117652993Y-91985925D01*
X117767007Y-91920099D01*
X117860099Y-91827007D01*
X117925925Y-91712993D01*
X117942962Y-91649409D01*
X118503678Y-92210126D01*
X118503678Y-92210125D01*
X118529097Y-92175141D01*
X118619234Y-91998236D01*
X118667208Y-91947439D01*
X118735029Y-91930644D01*
X118801164Y-91953181D01*
X118840204Y-91998235D01*
X118841115Y-92000024D01*
X118841116Y-92000025D01*
X118930476Y-92175405D01*
X119046172Y-92334646D01*
X119185354Y-92473828D01*
X119344595Y-92589524D01*
X119415456Y-92625629D01*
X119519970Y-92678882D01*
X119519972Y-92678882D01*
X119519975Y-92678884D01*
X119562398Y-92692668D01*
X119707173Y-92739709D01*
X119901578Y-92770500D01*
X119901583Y-92770500D01*
X120098422Y-92770500D01*
X120292826Y-92739709D01*
X120372574Y-92713797D01*
X120480025Y-92678884D01*
X120655405Y-92589524D01*
X120814646Y-92473828D01*
X120953828Y-92334646D01*
X121069524Y-92175405D01*
X121158884Y-92000025D01*
X121159515Y-91998787D01*
X121207489Y-91947990D01*
X121275310Y-91931195D01*
X121341445Y-91953732D01*
X121380485Y-91998787D01*
X121470474Y-92175403D01*
X121495702Y-92210125D01*
X121586172Y-92334646D01*
X121725354Y-92473828D01*
X121884595Y-92589524D01*
X121884599Y-92589526D01*
X121888486Y-92592350D01*
X121931151Y-92647680D01*
X121939600Y-92692668D01*
X121939600Y-106997255D01*
X121939600Y-107155345D01*
X121962397Y-107240423D01*
X121980516Y-107308046D01*
X122059560Y-107444954D01*
X122059562Y-107444956D01*
X122178411Y-107563805D01*
X122178417Y-107563810D01*
X132877390Y-118262783D01*
X132910875Y-118324106D01*
X132911326Y-118326272D01*
X132942261Y-118481791D01*
X132942264Y-118481801D01*
X133002602Y-118627472D01*
X133002609Y-118627485D01*
X133090210Y-118758588D01*
X133090213Y-118758592D01*
X133201707Y-118870086D01*
X133201711Y-118870089D01*
X133332814Y-118957690D01*
X133332827Y-118957697D01*
X133478498Y-119018035D01*
X133478503Y-119018037D01*
X133633153Y-119048799D01*
X133633156Y-119048800D01*
X133633158Y-119048800D01*
X133790844Y-119048800D01*
X133790845Y-119048799D01*
X133945497Y-119018037D01*
X134091179Y-118957694D01*
X134222289Y-118870089D01*
X134333789Y-118758589D01*
X134421394Y-118627479D01*
X134481737Y-118481797D01*
X134512500Y-118327142D01*
X134512500Y-118169458D01*
X134512500Y-118169455D01*
X134508072Y-118147196D01*
X134514299Y-118077605D01*
X134557161Y-118022427D01*
X134582237Y-118008443D01*
X134674573Y-117970197D01*
X134674576Y-117970195D01*
X134674579Y-117970194D01*
X134805689Y-117882589D01*
X134917189Y-117771089D01*
X135004794Y-117639979D01*
X135065137Y-117494297D01*
X135095900Y-117339642D01*
X135095900Y-117181958D01*
X135095900Y-117181955D01*
X135095899Y-117181953D01*
X135065138Y-117027310D01*
X135065137Y-117027303D01*
X135065135Y-117027298D01*
X135004797Y-116881627D01*
X135004790Y-116881614D01*
X134917189Y-116750511D01*
X134917186Y-116750507D01*
X134805692Y-116639013D01*
X134805688Y-116639010D01*
X134674585Y-116551409D01*
X134674572Y-116551402D01*
X134528901Y-116491064D01*
X134528891Y-116491061D01*
X134373373Y-116460126D01*
X134311462Y-116427741D01*
X134309884Y-116426190D01*
X133505480Y-115621786D01*
X132563935Y-114680242D01*
X132530451Y-114618920D01*
X132535435Y-114549228D01*
X132577307Y-114493295D01*
X132627425Y-114470944D01*
X132633497Y-114469737D01*
X132779179Y-114409394D01*
X132824399Y-114379179D01*
X132910875Y-114321398D01*
X132928921Y-114315747D01*
X132944831Y-114305523D01*
X132975792Y-114301071D01*
X132977553Y-114300520D01*
X132979766Y-114300500D01*
X133120234Y-114300500D01*
X133187273Y-114320185D01*
X133189125Y-114321398D01*
X133320814Y-114409390D01*
X133320827Y-114409397D01*
X133432397Y-114455610D01*
X133466503Y-114469737D01*
X133621153Y-114500499D01*
X133621156Y-114500500D01*
X133621158Y-114500500D01*
X133778844Y-114500500D01*
X133778845Y-114500499D01*
X133933497Y-114469737D01*
X134079179Y-114409394D01*
X134210289Y-114321789D01*
X134321789Y-114210289D01*
X134409394Y-114079179D01*
X134469737Y-113933497D01*
X134500500Y-113778842D01*
X134500500Y-113721153D01*
X140599500Y-113721153D01*
X140599500Y-113878846D01*
X140630261Y-114033489D01*
X140630264Y-114033501D01*
X140690602Y-114179172D01*
X140690609Y-114179185D01*
X140778210Y-114310288D01*
X140778213Y-114310292D01*
X140889707Y-114421786D01*
X140889711Y-114421789D01*
X141020814Y-114509390D01*
X141020827Y-114509397D01*
X141166498Y-114569735D01*
X141166503Y-114569737D01*
X141321153Y-114600499D01*
X141321156Y-114600500D01*
X141321158Y-114600500D01*
X141478844Y-114600500D01*
X141478845Y-114600499D01*
X141633497Y-114569737D01*
X141777021Y-114510288D01*
X141779172Y-114509397D01*
X141779172Y-114509396D01*
X141779179Y-114509394D01*
X141809514Y-114489125D01*
X141910875Y-114421398D01*
X141977553Y-114400520D01*
X141979766Y-114400500D01*
X144338573Y-114400500D01*
X144405612Y-114420185D01*
X144441675Y-114455610D01*
X144478207Y-114510284D01*
X144478213Y-114510292D01*
X144589707Y-114621786D01*
X144589711Y-114621789D01*
X144720814Y-114709390D01*
X144720827Y-114709397D01*
X144769238Y-114729449D01*
X144866503Y-114769737D01*
X145021153Y-114800499D01*
X145021156Y-114800500D01*
X145021158Y-114800500D01*
X145178844Y-114800500D01*
X145178845Y-114800499D01*
X145333497Y-114769737D01*
X145479179Y-114709394D01*
X145610289Y-114621789D01*
X145721789Y-114510289D01*
X145809394Y-114379179D01*
X145869737Y-114233497D01*
X145900500Y-114078842D01*
X145900500Y-113921158D01*
X145900500Y-113921155D01*
X145900499Y-113921153D01*
X145892148Y-113879172D01*
X145869737Y-113766503D01*
X145850955Y-113721158D01*
X145809397Y-113620827D01*
X145809390Y-113620814D01*
X145721789Y-113489711D01*
X145721786Y-113489707D01*
X145610292Y-113378213D01*
X145610288Y-113378210D01*
X145479185Y-113290609D01*
X145479172Y-113290602D01*
X145333501Y-113230264D01*
X145333489Y-113230261D01*
X145178845Y-113199500D01*
X145178842Y-113199500D01*
X145021158Y-113199500D01*
X145021157Y-113199500D01*
X145015095Y-113200097D01*
X145015058Y-113199725D01*
X144999137Y-113201218D01*
X144984985Y-113201087D01*
X144979057Y-113199499D01*
X144820943Y-113199499D01*
X144820939Y-113199500D01*
X141979766Y-113199500D01*
X141912727Y-113179815D01*
X141910875Y-113178602D01*
X141779185Y-113090609D01*
X141779172Y-113090602D01*
X141633501Y-113030264D01*
X141633489Y-113030261D01*
X141478845Y-112999500D01*
X141478842Y-112999500D01*
X141321158Y-112999500D01*
X141321155Y-112999500D01*
X141166510Y-113030261D01*
X141166498Y-113030264D01*
X141020827Y-113090602D01*
X141020814Y-113090609D01*
X140889711Y-113178210D01*
X140889707Y-113178213D01*
X140778213Y-113289707D01*
X140778210Y-113289711D01*
X140690609Y-113420814D01*
X140690602Y-113420827D01*
X140630264Y-113566498D01*
X140630261Y-113566510D01*
X140599500Y-113721153D01*
X134500500Y-113721153D01*
X134500500Y-113621158D01*
X134500500Y-113621155D01*
X134500499Y-113621153D01*
X134493760Y-113587273D01*
X134469737Y-113466503D01*
X134450955Y-113421158D01*
X134409397Y-113320827D01*
X134409390Y-113320814D01*
X134321789Y-113189711D01*
X134321786Y-113189707D01*
X134210292Y-113078213D01*
X134210288Y-113078210D01*
X134079185Y-112990609D01*
X134079172Y-112990602D01*
X133933501Y-112930264D01*
X133933489Y-112930261D01*
X133778845Y-112899500D01*
X133778842Y-112899500D01*
X133621158Y-112899500D01*
X133621155Y-112899500D01*
X133466510Y-112930261D01*
X133466498Y-112930264D01*
X133320827Y-112990602D01*
X133320814Y-112990609D01*
X133189125Y-113078602D01*
X133171078Y-113084252D01*
X133155169Y-113094477D01*
X133124207Y-113098928D01*
X133122447Y-113099480D01*
X133120234Y-113099500D01*
X132979766Y-113099500D01*
X132912727Y-113079815D01*
X132910875Y-113078602D01*
X132779185Y-112990609D01*
X132779172Y-112990602D01*
X132633501Y-112930264D01*
X132633489Y-112930261D01*
X132478845Y-112899500D01*
X132478842Y-112899500D01*
X132321158Y-112899500D01*
X132321155Y-112899500D01*
X132166510Y-112930261D01*
X132166498Y-112930264D01*
X132020827Y-112990602D01*
X132020814Y-112990609D01*
X131889711Y-113078210D01*
X131889707Y-113078213D01*
X131778213Y-113189707D01*
X131778210Y-113189711D01*
X131690609Y-113320814D01*
X131690602Y-113320827D01*
X131630264Y-113466498D01*
X131630261Y-113466508D01*
X131629055Y-113472574D01*
X131596670Y-113534485D01*
X131535954Y-113569059D01*
X131466184Y-113565318D01*
X131419757Y-113536063D01*
X130796719Y-112913025D01*
X130763234Y-112851702D01*
X130760400Y-112825344D01*
X130760400Y-105521153D01*
X135799500Y-105521153D01*
X135799500Y-105678846D01*
X135830261Y-105833489D01*
X135830264Y-105833501D01*
X135890602Y-105979172D01*
X135890609Y-105979185D01*
X135978210Y-106110288D01*
X135978213Y-106110292D01*
X136089707Y-106221786D01*
X136089711Y-106221789D01*
X136220814Y-106309390D01*
X136220827Y-106309397D01*
X136366498Y-106369735D01*
X136366503Y-106369737D01*
X136521153Y-106400499D01*
X136521156Y-106400500D01*
X136521158Y-106400500D01*
X136678844Y-106400500D01*
X136678845Y-106400499D01*
X136833497Y-106369737D01*
X136979179Y-106309394D01*
X137110289Y-106221789D01*
X137221789Y-106110289D01*
X137309394Y-105979179D01*
X137369737Y-105833497D01*
X137400500Y-105678842D01*
X137400500Y-105521158D01*
X137400500Y-105521155D01*
X137400499Y-105521153D01*
X137392416Y-105480519D01*
X137369737Y-105366503D01*
X137337929Y-105289711D01*
X137317382Y-105240105D01*
X137309913Y-105170636D01*
X137341188Y-105108157D01*
X137344231Y-105105003D01*
X138080520Y-104368716D01*
X138159577Y-104231784D01*
X138200501Y-104079057D01*
X138200501Y-103920942D01*
X138200501Y-103913347D01*
X138200500Y-103913329D01*
X138200500Y-102579765D01*
X138220185Y-102512726D01*
X138221398Y-102510874D01*
X138309390Y-102379185D01*
X138309390Y-102379184D01*
X138309394Y-102379179D01*
X138369737Y-102233497D01*
X138400500Y-102078842D01*
X138400500Y-101921158D01*
X138400500Y-101921155D01*
X138400499Y-101921153D01*
X138369738Y-101766510D01*
X138369737Y-101766503D01*
X138369735Y-101766498D01*
X138309397Y-101620827D01*
X138309390Y-101620814D01*
X138221789Y-101489711D01*
X138221786Y-101489707D01*
X138110292Y-101378213D01*
X138110288Y-101378210D01*
X137979185Y-101290609D01*
X137979172Y-101290602D01*
X137833501Y-101230264D01*
X137833489Y-101230261D01*
X137678845Y-101199500D01*
X137678842Y-101199500D01*
X137521158Y-101199500D01*
X137521155Y-101199500D01*
X137366510Y-101230261D01*
X137366498Y-101230264D01*
X137220827Y-101290602D01*
X137220814Y-101290609D01*
X137089711Y-101378210D01*
X137089707Y-101378213D01*
X136978213Y-101489707D01*
X136978210Y-101489711D01*
X136890609Y-101620814D01*
X136890602Y-101620827D01*
X136830264Y-101766498D01*
X136830261Y-101766510D01*
X136799500Y-101921153D01*
X136799500Y-102078846D01*
X136830261Y-102233489D01*
X136830264Y-102233501D01*
X136890602Y-102379172D01*
X136890609Y-102379185D01*
X136978602Y-102510874D01*
X136999480Y-102577551D01*
X136999500Y-102579765D01*
X136999500Y-103699902D01*
X136979815Y-103766941D01*
X136963181Y-103787583D01*
X136119481Y-104631282D01*
X136119479Y-104631285D01*
X136069361Y-104718094D01*
X136069359Y-104718096D01*
X136040425Y-104768209D01*
X136040424Y-104768210D01*
X136040423Y-104768215D01*
X135999499Y-104920943D01*
X135999499Y-104920945D01*
X135999499Y-105020235D01*
X135979814Y-105087274D01*
X135978601Y-105089126D01*
X135890609Y-105220814D01*
X135890602Y-105220827D01*
X135830264Y-105366498D01*
X135830261Y-105366510D01*
X135799500Y-105521153D01*
X130760400Y-105521153D01*
X130760400Y-92692668D01*
X130780085Y-92625629D01*
X130811514Y-92592350D01*
X130815400Y-92589526D01*
X130815405Y-92589524D01*
X130974646Y-92473828D01*
X131113828Y-92334646D01*
X131229524Y-92175405D01*
X131318884Y-92000025D01*
X131319515Y-91998787D01*
X131367489Y-91947990D01*
X131435310Y-91931195D01*
X131501445Y-91953732D01*
X131540485Y-91998787D01*
X131630474Y-92175403D01*
X131655702Y-92210125D01*
X131746172Y-92334646D01*
X131885354Y-92473828D01*
X132044595Y-92589524D01*
X132115456Y-92625629D01*
X132219970Y-92678882D01*
X132219972Y-92678882D01*
X132219975Y-92678884D01*
X132262398Y-92692668D01*
X132407173Y-92739709D01*
X132601578Y-92770500D01*
X132601583Y-92770500D01*
X132798422Y-92770500D01*
X132992826Y-92739709D01*
X133072574Y-92713797D01*
X133180025Y-92678884D01*
X133355405Y-92589524D01*
X133514646Y-92473828D01*
X133653828Y-92334646D01*
X133769524Y-92175405D01*
X133858884Y-92000025D01*
X133859515Y-91998787D01*
X133907489Y-91947990D01*
X133975310Y-91931195D01*
X134041445Y-91953732D01*
X134080485Y-91998787D01*
X134170474Y-92175403D01*
X134195702Y-92210125D01*
X134286172Y-92334646D01*
X134425354Y-92473828D01*
X134584595Y-92589524D01*
X134655456Y-92625629D01*
X134759970Y-92678882D01*
X134759972Y-92678882D01*
X134759975Y-92678884D01*
X134802398Y-92692668D01*
X134947173Y-92739709D01*
X135141578Y-92770500D01*
X135141583Y-92770500D01*
X135338422Y-92770500D01*
X135532826Y-92739709D01*
X135612574Y-92713797D01*
X135720025Y-92678884D01*
X135895405Y-92589524D01*
X136054646Y-92473828D01*
X136193828Y-92334646D01*
X136309524Y-92175405D01*
X136398884Y-92000025D01*
X136459709Y-91812826D01*
X136479349Y-91688824D01*
X136490500Y-91618422D01*
X136490500Y-91421577D01*
X136459709Y-91227173D01*
X136398882Y-91039970D01*
X136309523Y-90864594D01*
X136305799Y-90859468D01*
X136193828Y-90705354D01*
X136054646Y-90566172D01*
X135895405Y-90450476D01*
X135873879Y-90439508D01*
X135720029Y-90361117D01*
X135532826Y-90300290D01*
X135338422Y-90269500D01*
X135338417Y-90269500D01*
X135141583Y-90269500D01*
X135141578Y-90269500D01*
X134947173Y-90300290D01*
X134759970Y-90361117D01*
X134584594Y-90450476D01*
X134493741Y-90516485D01*
X134425354Y-90566172D01*
X134425352Y-90566174D01*
X134425351Y-90566174D01*
X134286174Y-90705351D01*
X134286174Y-90705352D01*
X134286172Y-90705354D01*
X134273980Y-90722135D01*
X134170476Y-90864594D01*
X134080485Y-91041213D01*
X134032511Y-91092009D01*
X133964690Y-91108804D01*
X133898555Y-91086267D01*
X133859515Y-91041213D01*
X133769523Y-90864594D01*
X133765799Y-90859468D01*
X133653828Y-90705354D01*
X133514646Y-90566172D01*
X133355405Y-90450476D01*
X133333879Y-90439508D01*
X133180029Y-90361117D01*
X132992826Y-90300290D01*
X132798422Y-90269500D01*
X132798417Y-90269500D01*
X132601583Y-90269500D01*
X132601578Y-90269500D01*
X132407173Y-90300290D01*
X132219970Y-90361117D01*
X132044594Y-90450476D01*
X131953741Y-90516485D01*
X131885354Y-90566172D01*
X131885352Y-90566174D01*
X131885351Y-90566174D01*
X131746174Y-90705351D01*
X131746174Y-90705352D01*
X131746172Y-90705354D01*
X131733980Y-90722135D01*
X131630476Y-90864594D01*
X131540485Y-91041213D01*
X131492511Y-91092009D01*
X131424690Y-91108804D01*
X131358555Y-91086267D01*
X131319515Y-91041213D01*
X131229523Y-90864594D01*
X131225799Y-90859468D01*
X131113828Y-90705354D01*
X130974646Y-90566172D01*
X130815405Y-90450476D01*
X130793879Y-90439508D01*
X130640029Y-90361117D01*
X130452826Y-90300290D01*
X130258422Y-90269500D01*
X130258417Y-90269500D01*
X130061583Y-90269500D01*
X130061578Y-90269500D01*
X129867173Y-90300290D01*
X129679970Y-90361117D01*
X129504594Y-90450476D01*
X129413741Y-90516485D01*
X129345354Y-90566172D01*
X129345352Y-90566174D01*
X129345351Y-90566174D01*
X129206174Y-90705351D01*
X129206174Y-90705352D01*
X129206172Y-90705354D01*
X129193980Y-90722135D01*
X129090476Y-90864594D01*
X129000485Y-91041213D01*
X128952511Y-91092009D01*
X128884690Y-91108804D01*
X128818555Y-91086267D01*
X128779515Y-91041213D01*
X128689523Y-90864594D01*
X128685799Y-90859468D01*
X128573828Y-90705354D01*
X128434646Y-90566172D01*
X128275405Y-90450476D01*
X128253879Y-90439508D01*
X128100029Y-90361117D01*
X127912826Y-90300290D01*
X127718422Y-90269500D01*
X127718417Y-90269500D01*
X127521583Y-90269500D01*
X127521578Y-90269500D01*
X127327173Y-90300290D01*
X127139970Y-90361117D01*
X126964594Y-90450476D01*
X126873741Y-90516485D01*
X126805354Y-90566172D01*
X126805352Y-90566174D01*
X126805351Y-90566174D01*
X126666174Y-90705351D01*
X126666174Y-90705352D01*
X126666172Y-90705354D01*
X126653980Y-90722135D01*
X126550476Y-90864594D01*
X126460485Y-91041213D01*
X126412511Y-91092009D01*
X126344690Y-91108804D01*
X126278555Y-91086267D01*
X126239515Y-91041213D01*
X126149523Y-90864594D01*
X126145799Y-90859468D01*
X126033828Y-90705354D01*
X125894646Y-90566172D01*
X125735405Y-90450476D01*
X125713879Y-90439508D01*
X125560029Y-90361117D01*
X125372826Y-90300290D01*
X125178422Y-90269500D01*
X125178417Y-90269500D01*
X124981583Y-90269500D01*
X124981578Y-90269500D01*
X124787173Y-90300290D01*
X124599970Y-90361117D01*
X124424594Y-90450476D01*
X124333741Y-90516485D01*
X124265354Y-90566172D01*
X124265352Y-90566174D01*
X124265351Y-90566174D01*
X124126174Y-90705351D01*
X124126174Y-90705352D01*
X124126172Y-90705354D01*
X124113980Y-90722135D01*
X124010476Y-90864594D01*
X123920485Y-91041213D01*
X123872511Y-91092009D01*
X123804690Y-91108804D01*
X123738555Y-91086267D01*
X123699515Y-91041213D01*
X123609523Y-90864594D01*
X123605799Y-90859468D01*
X123493828Y-90705354D01*
X123354646Y-90566172D01*
X123195405Y-90450476D01*
X123173879Y-90439508D01*
X123020029Y-90361117D01*
X122832826Y-90300290D01*
X122638422Y-90269500D01*
X122638417Y-90269500D01*
X122441583Y-90269500D01*
X122441578Y-90269500D01*
X122247173Y-90300290D01*
X122059970Y-90361117D01*
X121884594Y-90450476D01*
X121793741Y-90516485D01*
X121725354Y-90566172D01*
X121725352Y-90566174D01*
X121725351Y-90566174D01*
X121586174Y-90705351D01*
X121586174Y-90705352D01*
X121586172Y-90705354D01*
X121573980Y-90722135D01*
X121470476Y-90864594D01*
X121380485Y-91041213D01*
X121332511Y-91092009D01*
X121264690Y-91108804D01*
X121198555Y-91086267D01*
X121159515Y-91041213D01*
X121069523Y-90864594D01*
X121065799Y-90859468D01*
X120953828Y-90705354D01*
X120814646Y-90566172D01*
X120655405Y-90450476D01*
X120633879Y-90439508D01*
X120480029Y-90361117D01*
X120292826Y-90300290D01*
X120098422Y-90269500D01*
X120098417Y-90269500D01*
X119901583Y-90269500D01*
X119901578Y-90269500D01*
X119707173Y-90300290D01*
X119519970Y-90361117D01*
X119344594Y-90450476D01*
X119253741Y-90516485D01*
X119185354Y-90566172D01*
X119185352Y-90566174D01*
X119185351Y-90566174D01*
X119046174Y-90705351D01*
X119046174Y-90705352D01*
X119046172Y-90705354D01*
X119033980Y-90722135D01*
X118930476Y-90864594D01*
X118840204Y-91041764D01*
X118792229Y-91092560D01*
X118724408Y-91109355D01*
X118658274Y-91086818D01*
X118619234Y-91041764D01*
X118529096Y-90864858D01*
X118503678Y-90829873D01*
X118503677Y-90829873D01*
X117942962Y-91390589D01*
X117925925Y-91327007D01*
X117860099Y-91212993D01*
X117767007Y-91119901D01*
X117652993Y-91054075D01*
X117589409Y-91037037D01*
X118150125Y-90476320D01*
X118150125Y-90476319D01*
X118115145Y-90450905D01*
X117939835Y-90361581D01*
X117752705Y-90300778D01*
X117558382Y-90270000D01*
X117361618Y-90270000D01*
X117167294Y-90300778D01*
X116980161Y-90361582D01*
X116804863Y-90450899D01*
X116804859Y-90450902D01*
X116769873Y-90476320D01*
X116769872Y-90476320D01*
X117330590Y-91037037D01*
X117267007Y-91054075D01*
X117152993Y-91119901D01*
X117059901Y-91212993D01*
X116994075Y-91327007D01*
X116977037Y-91390590D01*
X116416320Y-90829872D01*
X116416319Y-90829873D01*
X116394819Y-90859468D01*
X116339490Y-90902135D01*
X116269877Y-90908116D01*
X116208081Y-90875512D01*
X116173722Y-90814674D01*
X116170499Y-90786585D01*
X116170499Y-90722129D01*
X116170498Y-90722123D01*
X116170497Y-90722116D01*
X116164091Y-90662517D01*
X116128157Y-90566174D01*
X116113797Y-90527671D01*
X116113793Y-90527664D01*
X116027547Y-90412455D01*
X116027544Y-90412452D01*
X115912335Y-90326206D01*
X115912328Y-90326202D01*
X115777482Y-90275908D01*
X115777483Y-90275908D01*
X115717883Y-90269501D01*
X115717881Y-90269500D01*
X115717873Y-90269500D01*
X115717864Y-90269500D01*
X114122129Y-90269500D01*
X114122123Y-90269501D01*
X114062516Y-90275908D01*
X113927671Y-90326202D01*
X113927664Y-90326206D01*
X113812455Y-90412452D01*
X113812452Y-90412455D01*
X113726206Y-90527664D01*
X113726202Y-90527671D01*
X113675908Y-90662517D01*
X113670447Y-90713317D01*
X113669501Y-90722123D01*
X113669500Y-90722135D01*
X110433475Y-90722135D01*
X110436560Y-90713318D01*
X110438378Y-90705352D01*
X110441605Y-90691215D01*
X110441605Y-90691213D01*
X110448155Y-90662516D01*
X110499055Y-90439509D01*
X110502104Y-90412454D01*
X110530499Y-90160431D01*
X110530500Y-90160427D01*
X110530500Y-89879572D01*
X110530499Y-89879568D01*
X139629500Y-89879568D01*
X139629500Y-90160431D01*
X139660942Y-90439494D01*
X139660945Y-90439512D01*
X139723439Y-90713317D01*
X139723443Y-90713329D01*
X139816200Y-90978411D01*
X139938053Y-91231442D01*
X139938055Y-91231445D01*
X140087477Y-91469248D01*
X140262584Y-91688825D01*
X140461175Y-91887416D01*
X140680752Y-92062523D01*
X140918555Y-92211945D01*
X141171592Y-92333801D01*
X141370680Y-92403465D01*
X141436670Y-92426556D01*
X141436682Y-92426560D01*
X141710491Y-92489055D01*
X141710497Y-92489055D01*
X141710505Y-92489057D01*
X141896547Y-92510018D01*
X141989569Y-92520499D01*
X141989572Y-92520500D01*
X141989575Y-92520500D01*
X142270428Y-92520500D01*
X142270429Y-92520499D01*
X142413055Y-92504429D01*
X142549494Y-92489057D01*
X142549499Y-92489056D01*
X142549509Y-92489055D01*
X142823318Y-92426560D01*
X143088408Y-92333801D01*
X143341445Y-92211945D01*
X143579248Y-92062523D01*
X143798825Y-91887416D01*
X143997416Y-91688825D01*
X144172523Y-91469248D01*
X144321945Y-91231445D01*
X144443801Y-90978408D01*
X144536560Y-90713318D01*
X144599055Y-90439509D01*
X144602104Y-90412454D01*
X144630499Y-90160431D01*
X144630500Y-90160427D01*
X144630500Y-89879572D01*
X144630499Y-89879568D01*
X144599057Y-89600505D01*
X144599054Y-89600487D01*
X144536560Y-89326682D01*
X144536556Y-89326670D01*
X144513465Y-89260680D01*
X144443801Y-89061592D01*
X144321945Y-88808555D01*
X144172523Y-88570752D01*
X143997416Y-88351175D01*
X143798825Y-88152584D01*
X143579248Y-87977477D01*
X143341445Y-87828055D01*
X143341442Y-87828053D01*
X143088411Y-87706200D01*
X142823329Y-87613443D01*
X142823317Y-87613439D01*
X142549512Y-87550945D01*
X142549494Y-87550942D01*
X142270431Y-87519500D01*
X142270425Y-87519500D01*
X141989575Y-87519500D01*
X141989568Y-87519500D01*
X141710505Y-87550942D01*
X141710487Y-87550945D01*
X141436682Y-87613439D01*
X141436670Y-87613443D01*
X141171588Y-87706200D01*
X140918557Y-87828053D01*
X140680753Y-87977476D01*
X140461175Y-88152583D01*
X140262583Y-88351175D01*
X140087476Y-88570753D01*
X139938053Y-88808557D01*
X139816200Y-89061588D01*
X139723443Y-89326670D01*
X139723439Y-89326682D01*
X139660945Y-89600487D01*
X139660942Y-89600505D01*
X139629500Y-89879568D01*
X110530499Y-89879568D01*
X110499057Y-89600505D01*
X110499054Y-89600487D01*
X110436560Y-89326682D01*
X110436556Y-89326670D01*
X110413465Y-89260680D01*
X110343801Y-89061592D01*
X110221945Y-88808555D01*
X110072523Y-88570752D01*
X109897416Y-88351175D01*
X109698825Y-88152584D01*
X109479248Y-87977477D01*
X109241445Y-87828055D01*
X109241442Y-87828053D01*
X108988411Y-87706200D01*
X108723329Y-87613443D01*
X108723317Y-87613439D01*
X108449512Y-87550945D01*
X108449494Y-87550942D01*
X108170431Y-87519500D01*
X108170425Y-87519500D01*
X107889575Y-87519500D01*
X107889568Y-87519500D01*
X107610505Y-87550942D01*
X107610487Y-87550945D01*
X107336682Y-87613439D01*
X107336670Y-87613443D01*
X107071588Y-87706200D01*
X106818557Y-87828053D01*
X106580753Y-87977476D01*
X106361175Y-88152583D01*
X106162583Y-88351175D01*
X105987476Y-88570753D01*
X105838053Y-88808557D01*
X105716200Y-89061588D01*
X105623443Y-89326670D01*
X105623439Y-89326682D01*
X105560945Y-89600487D01*
X105560942Y-89600505D01*
X105529500Y-89879568D01*
X89500500Y-89879568D01*
X89500500Y-28679568D01*
X105529500Y-28679568D01*
X105529500Y-28960431D01*
X105560942Y-29239494D01*
X105560945Y-29239512D01*
X105623439Y-29513317D01*
X105623443Y-29513329D01*
X105716200Y-29778411D01*
X105838053Y-30031442D01*
X105838055Y-30031445D01*
X105987477Y-30269248D01*
X106162584Y-30488825D01*
X106361175Y-30687416D01*
X106580752Y-30862523D01*
X106818555Y-31011945D01*
X107071592Y-31133801D01*
X107270680Y-31203465D01*
X107336670Y-31226556D01*
X107336682Y-31226560D01*
X107610491Y-31289055D01*
X107610497Y-31289055D01*
X107610505Y-31289057D01*
X107796547Y-31310018D01*
X107889569Y-31320499D01*
X107889572Y-31320500D01*
X107889575Y-31320500D01*
X108170428Y-31320500D01*
X108170429Y-31320499D01*
X108313055Y-31304429D01*
X108449494Y-31289057D01*
X108449499Y-31289056D01*
X108449509Y-31289055D01*
X108723318Y-31226560D01*
X108988408Y-31133801D01*
X109241445Y-31011945D01*
X109479248Y-30862523D01*
X109698825Y-30687416D01*
X109897416Y-30488825D01*
X110072523Y-30269248D01*
X110221945Y-30031445D01*
X110343801Y-29778408D01*
X110436560Y-29513318D01*
X110499055Y-29239509D01*
X110508140Y-29158882D01*
X110530499Y-28960431D01*
X110530500Y-28960427D01*
X110530500Y-28679572D01*
X110530499Y-28679568D01*
X110499057Y-28400505D01*
X110499054Y-28400487D01*
X110436560Y-28126682D01*
X110436556Y-28126670D01*
X110370421Y-27937666D01*
X110357792Y-27901577D01*
X118749500Y-27901577D01*
X118749500Y-28098422D01*
X118780290Y-28292826D01*
X118841117Y-28480029D01*
X118912335Y-28619801D01*
X118930476Y-28655405D01*
X119046172Y-28814646D01*
X119185354Y-28953828D01*
X119344595Y-29069524D01*
X119427455Y-29111743D01*
X119519970Y-29158882D01*
X119519972Y-29158882D01*
X119519975Y-29158884D01*
X119620317Y-29191487D01*
X119707173Y-29219709D01*
X119901578Y-29250500D01*
X119901583Y-29250500D01*
X120098422Y-29250500D01*
X120292826Y-29219709D01*
X120480025Y-29158884D01*
X120655405Y-29069524D01*
X120814646Y-28953828D01*
X120953828Y-28814646D01*
X121069524Y-28655405D01*
X121158884Y-28480025D01*
X121159515Y-28478787D01*
X121207489Y-28427990D01*
X121275310Y-28411195D01*
X121341445Y-28433732D01*
X121380485Y-28478787D01*
X121470474Y-28655403D01*
X121505234Y-28703246D01*
X121586172Y-28814646D01*
X121725354Y-28953828D01*
X121884595Y-29069524D01*
X121967455Y-29111743D01*
X122059970Y-29158882D01*
X122059972Y-29158882D01*
X122059975Y-29158884D01*
X122160317Y-29191487D01*
X122247173Y-29219709D01*
X122441578Y-29250500D01*
X122441583Y-29250500D01*
X122638422Y-29250500D01*
X122832826Y-29219709D01*
X123020025Y-29158884D01*
X123195405Y-29069524D01*
X123354646Y-28953828D01*
X123493828Y-28814646D01*
X123609524Y-28655405D01*
X123698884Y-28480025D01*
X123699515Y-28478787D01*
X123747489Y-28427990D01*
X123815310Y-28411195D01*
X123881445Y-28433732D01*
X123920485Y-28478787D01*
X124010474Y-28655403D01*
X124045234Y-28703246D01*
X124126172Y-28814646D01*
X124265354Y-28953828D01*
X124424595Y-29069524D01*
X124507455Y-29111743D01*
X124599970Y-29158882D01*
X124599972Y-29158882D01*
X124599975Y-29158884D01*
X124700317Y-29191487D01*
X124787173Y-29219709D01*
X124981578Y-29250500D01*
X124981583Y-29250500D01*
X125178422Y-29250500D01*
X125372826Y-29219709D01*
X125560025Y-29158884D01*
X125735405Y-29069524D01*
X125894646Y-28953828D01*
X126033828Y-28814646D01*
X126149524Y-28655405D01*
X126238884Y-28480025D01*
X126239515Y-28478787D01*
X126287489Y-28427990D01*
X126355310Y-28411195D01*
X126421445Y-28433732D01*
X126460485Y-28478787D01*
X126550474Y-28655403D01*
X126585234Y-28703246D01*
X126666172Y-28814646D01*
X126805354Y-28953828D01*
X126964595Y-29069524D01*
X127047455Y-29111743D01*
X127139970Y-29158882D01*
X127139972Y-29158882D01*
X127139975Y-29158884D01*
X127240317Y-29191487D01*
X127327173Y-29219709D01*
X127521578Y-29250500D01*
X127521583Y-29250500D01*
X127718422Y-29250500D01*
X127912826Y-29219709D01*
X128100025Y-29158884D01*
X128275405Y-29069524D01*
X128434646Y-28953828D01*
X128573828Y-28814646D01*
X128689524Y-28655405D01*
X128778884Y-28480025D01*
X128779515Y-28478787D01*
X128827489Y-28427990D01*
X128895310Y-28411195D01*
X128961445Y-28433732D01*
X129000485Y-28478787D01*
X129090474Y-28655403D01*
X129125234Y-28703246D01*
X129206172Y-28814646D01*
X129345354Y-28953828D01*
X129504595Y-29069524D01*
X129587455Y-29111743D01*
X129679970Y-29158882D01*
X129679972Y-29158882D01*
X129679975Y-29158884D01*
X129780317Y-29191487D01*
X129867173Y-29219709D01*
X130061578Y-29250500D01*
X130061583Y-29250500D01*
X130258422Y-29250500D01*
X130452826Y-29219709D01*
X130640025Y-29158884D01*
X130815405Y-29069524D01*
X130974646Y-28953828D01*
X131113828Y-28814646D01*
X131211968Y-28679568D01*
X139629500Y-28679568D01*
X139629500Y-28960431D01*
X139660942Y-29239494D01*
X139660945Y-29239512D01*
X139723439Y-29513317D01*
X139723443Y-29513329D01*
X139816200Y-29778411D01*
X139938053Y-30031442D01*
X139938055Y-30031445D01*
X140087477Y-30269248D01*
X140262584Y-30488825D01*
X140461175Y-30687416D01*
X140680752Y-30862523D01*
X140918555Y-31011945D01*
X141171592Y-31133801D01*
X141370680Y-31203465D01*
X141436670Y-31226556D01*
X141436682Y-31226560D01*
X141710491Y-31289055D01*
X141710497Y-31289055D01*
X141710505Y-31289057D01*
X141896547Y-31310018D01*
X141989569Y-31320499D01*
X141989572Y-31320500D01*
X141989575Y-31320500D01*
X142270428Y-31320500D01*
X142270429Y-31320499D01*
X142413055Y-31304429D01*
X142549494Y-31289057D01*
X142549499Y-31289056D01*
X142549509Y-31289055D01*
X142823318Y-31226560D01*
X143088408Y-31133801D01*
X143341445Y-31011945D01*
X143579248Y-30862523D01*
X143798825Y-30687416D01*
X143997416Y-30488825D01*
X144172523Y-30269248D01*
X144321945Y-30031445D01*
X144443801Y-29778408D01*
X144536560Y-29513318D01*
X144599055Y-29239509D01*
X144608140Y-29158882D01*
X144630499Y-28960431D01*
X144630500Y-28960427D01*
X144630500Y-28679572D01*
X144630499Y-28679568D01*
X144599057Y-28400505D01*
X144599054Y-28400487D01*
X144536560Y-28126682D01*
X144536556Y-28126670D01*
X144457792Y-27901577D01*
X144443801Y-27861592D01*
X144321945Y-27608555D01*
X144172523Y-27370752D01*
X143997416Y-27151175D01*
X143798825Y-26952584D01*
X143771102Y-26930476D01*
X143659050Y-26841117D01*
X143579248Y-26777477D01*
X143341445Y-26628055D01*
X143341442Y-26628053D01*
X143088411Y-26506200D01*
X142823329Y-26413443D01*
X142823317Y-26413439D01*
X142549512Y-26350945D01*
X142549494Y-26350942D01*
X142270431Y-26319500D01*
X142270425Y-26319500D01*
X141989575Y-26319500D01*
X141989568Y-26319500D01*
X141710505Y-26350942D01*
X141710487Y-26350945D01*
X141436682Y-26413439D01*
X141436670Y-26413443D01*
X141171588Y-26506200D01*
X140918557Y-26628053D01*
X140680753Y-26777476D01*
X140461175Y-26952583D01*
X140262583Y-27151175D01*
X140087476Y-27370753D01*
X139938053Y-27608557D01*
X139816200Y-27861588D01*
X139723443Y-28126670D01*
X139723439Y-28126682D01*
X139660945Y-28400487D01*
X139660942Y-28400505D01*
X139629500Y-28679568D01*
X131211968Y-28679568D01*
X131229524Y-28655405D01*
X131318884Y-28480025D01*
X131379709Y-28292826D01*
X131410500Y-28098422D01*
X131410500Y-27901577D01*
X131379709Y-27707173D01*
X131318882Y-27519970D01*
X131242852Y-27370753D01*
X131229524Y-27344595D01*
X131113828Y-27185354D01*
X130974646Y-27046172D01*
X130815405Y-26930476D01*
X130640029Y-26841117D01*
X130452826Y-26780290D01*
X130258422Y-26749500D01*
X130258417Y-26749500D01*
X130061583Y-26749500D01*
X130061578Y-26749500D01*
X129867173Y-26780290D01*
X129679970Y-26841117D01*
X129504594Y-26930476D01*
X129413741Y-26996485D01*
X129345354Y-27046172D01*
X129345352Y-27046174D01*
X129345351Y-27046174D01*
X129206174Y-27185351D01*
X129206174Y-27185352D01*
X129206172Y-27185354D01*
X129156485Y-27253741D01*
X129090476Y-27344594D01*
X129000485Y-27521213D01*
X128952511Y-27572009D01*
X128884690Y-27588804D01*
X128818555Y-27566267D01*
X128779515Y-27521213D01*
X128702852Y-27370753D01*
X128689524Y-27344595D01*
X128573828Y-27185354D01*
X128434646Y-27046172D01*
X128275405Y-26930476D01*
X128100029Y-26841117D01*
X127912826Y-26780290D01*
X127718422Y-26749500D01*
X127718417Y-26749500D01*
X127521583Y-26749500D01*
X127521578Y-26749500D01*
X127327173Y-26780290D01*
X127139970Y-26841117D01*
X126964594Y-26930476D01*
X126873741Y-26996485D01*
X126805354Y-27046172D01*
X126805352Y-27046174D01*
X126805351Y-27046174D01*
X126666174Y-27185351D01*
X126666174Y-27185352D01*
X126666172Y-27185354D01*
X126616485Y-27253741D01*
X126550476Y-27344594D01*
X126460485Y-27521213D01*
X126412511Y-27572009D01*
X126344690Y-27588804D01*
X126278555Y-27566267D01*
X126239515Y-27521213D01*
X126162852Y-27370753D01*
X126149524Y-27344595D01*
X126033828Y-27185354D01*
X125894646Y-27046172D01*
X125735405Y-26930476D01*
X125560029Y-26841117D01*
X125372826Y-26780290D01*
X125178422Y-26749500D01*
X125178417Y-26749500D01*
X124981583Y-26749500D01*
X124981578Y-26749500D01*
X124787173Y-26780290D01*
X124599970Y-26841117D01*
X124424594Y-26930476D01*
X124333741Y-26996485D01*
X124265354Y-27046172D01*
X124265352Y-27046174D01*
X124265351Y-27046174D01*
X124126174Y-27185351D01*
X124126174Y-27185352D01*
X124126172Y-27185354D01*
X124076485Y-27253741D01*
X124010476Y-27344594D01*
X123920485Y-27521213D01*
X123872511Y-27572009D01*
X123804690Y-27588804D01*
X123738555Y-27566267D01*
X123699515Y-27521213D01*
X123622852Y-27370753D01*
X123609524Y-27344595D01*
X123493828Y-27185354D01*
X123354646Y-27046172D01*
X123195405Y-26930476D01*
X123020029Y-26841117D01*
X122832826Y-26780290D01*
X122638422Y-26749500D01*
X122638417Y-26749500D01*
X122441583Y-26749500D01*
X122441578Y-26749500D01*
X122247173Y-26780290D01*
X122059970Y-26841117D01*
X121884594Y-26930476D01*
X121793741Y-26996485D01*
X121725354Y-27046172D01*
X121725352Y-27046174D01*
X121725351Y-27046174D01*
X121586174Y-27185351D01*
X121586174Y-27185352D01*
X121586172Y-27185354D01*
X121536485Y-27253741D01*
X121470476Y-27344594D01*
X121380485Y-27521213D01*
X121332511Y-27572009D01*
X121264690Y-27588804D01*
X121198555Y-27566267D01*
X121159515Y-27521213D01*
X121082852Y-27370753D01*
X121069524Y-27344595D01*
X120953828Y-27185354D01*
X120814646Y-27046172D01*
X120655405Y-26930476D01*
X120480029Y-26841117D01*
X120292826Y-26780290D01*
X120098422Y-26749500D01*
X120098417Y-26749500D01*
X119901583Y-26749500D01*
X119901578Y-26749500D01*
X119707173Y-26780290D01*
X119519970Y-26841117D01*
X119344594Y-26930476D01*
X119253741Y-26996485D01*
X119185354Y-27046172D01*
X119185352Y-27046174D01*
X119185351Y-27046174D01*
X119046174Y-27185351D01*
X119046174Y-27185352D01*
X119046172Y-27185354D01*
X118996485Y-27253741D01*
X118930476Y-27344594D01*
X118841117Y-27519970D01*
X118780290Y-27707173D01*
X118749500Y-27901577D01*
X110357792Y-27901577D01*
X110357033Y-27899408D01*
X110343801Y-27861592D01*
X110221945Y-27608555D01*
X110072523Y-27370752D01*
X109897416Y-27151175D01*
X109698825Y-26952584D01*
X109671102Y-26930476D01*
X109559050Y-26841117D01*
X109479248Y-26777477D01*
X109241445Y-26628055D01*
X109241442Y-26628053D01*
X108988411Y-26506200D01*
X108723329Y-26413443D01*
X108723317Y-26413439D01*
X108449512Y-26350945D01*
X108449494Y-26350942D01*
X108170431Y-26319500D01*
X108170425Y-26319500D01*
X107889575Y-26319500D01*
X107889568Y-26319500D01*
X107610505Y-26350942D01*
X107610487Y-26350945D01*
X107336682Y-26413439D01*
X107336670Y-26413443D01*
X107071588Y-26506200D01*
X106818557Y-26628053D01*
X106580753Y-26777476D01*
X106361175Y-26952583D01*
X106162583Y-27151175D01*
X105987476Y-27370753D01*
X105838053Y-27608557D01*
X105716200Y-27861588D01*
X105623443Y-28126670D01*
X105623439Y-28126682D01*
X105560945Y-28400487D01*
X105560942Y-28400505D01*
X105529500Y-28679568D01*
X89500500Y-28679568D01*
X89500500Y-25124500D01*
X89520185Y-25057461D01*
X89572989Y-25011706D01*
X89624500Y-25000500D01*
X159375500Y-25000500D01*
X159442539Y-25020185D01*
G37*
%TD.AperFunction*%
%TA.AperFunction,Conductor*%
G36*
X126819431Y-140381677D02*
G01*
X126874342Y-140422784D01*
X126874347Y-140422781D01*
X126874361Y-140422798D01*
X126875364Y-140423549D01*
X126877784Y-140426970D01*
X126878213Y-140427492D01*
X126989707Y-140538986D01*
X126989711Y-140538989D01*
X127120814Y-140626590D01*
X127120827Y-140626597D01*
X127246233Y-140678541D01*
X127266503Y-140686937D01*
X127421153Y-140717699D01*
X127421156Y-140717700D01*
X127421158Y-140717700D01*
X127578844Y-140717700D01*
X127578845Y-140717699D01*
X127733497Y-140686937D01*
X127879179Y-140626594D01*
X128010289Y-140538989D01*
X128010288Y-140538989D01*
X128011024Y-140538498D01*
X128077701Y-140517620D01*
X128079915Y-140517600D01*
X131377145Y-140517600D01*
X131444184Y-140537285D01*
X131464826Y-140553919D01*
X141788090Y-150877183D01*
X141821575Y-150938506D01*
X141822026Y-150940672D01*
X141852961Y-151096191D01*
X141852964Y-151096201D01*
X141913302Y-151241872D01*
X141913309Y-151241885D01*
X142000910Y-151372988D01*
X142000913Y-151372992D01*
X142112407Y-151484486D01*
X142112411Y-151484489D01*
X142243514Y-151572090D01*
X142243527Y-151572097D01*
X142374865Y-151626498D01*
X142389203Y-151632437D01*
X142493992Y-151653281D01*
X142521491Y-151658751D01*
X142583402Y-151691136D01*
X142617976Y-151751851D01*
X142621300Y-151780368D01*
X142621300Y-157011445D01*
X142601615Y-157078484D01*
X142584981Y-157099126D01*
X141671216Y-158012890D01*
X141609893Y-158046375D01*
X141607727Y-158046826D01*
X141452208Y-158077761D01*
X141452198Y-158077764D01*
X141306527Y-158138102D01*
X141306514Y-158138109D01*
X141174478Y-158226334D01*
X141107801Y-158247212D01*
X141040420Y-158228728D01*
X141017906Y-158210913D01*
X136525019Y-153718025D01*
X136491534Y-153656702D01*
X136490079Y-153643174D01*
X136489761Y-153643216D01*
X136488700Y-153635163D01*
X136488700Y-153635156D01*
X136447784Y-153482454D01*
X136368740Y-153345546D01*
X136256954Y-153233760D01*
X136256953Y-153233759D01*
X130371209Y-147348016D01*
X130371208Y-147348014D01*
X130252356Y-147229162D01*
X130252354Y-147229160D01*
X130115446Y-147150116D01*
X129962745Y-147109200D01*
X129962744Y-147109200D01*
X128219056Y-147109200D01*
X128189615Y-147100555D01*
X128159629Y-147094032D01*
X128154613Y-147090277D01*
X128152017Y-147089515D01*
X128131375Y-147072881D01*
X128016419Y-146957925D01*
X127982934Y-146896602D01*
X127980100Y-146870244D01*
X127980100Y-143957805D01*
X127999785Y-143890766D01*
X128052589Y-143845011D01*
X128079909Y-143836188D01*
X128124369Y-143827343D01*
X128233497Y-143805637D01*
X128379179Y-143745294D01*
X128510289Y-143657689D01*
X128621789Y-143546189D01*
X128709394Y-143415079D01*
X128769737Y-143269397D01*
X128800500Y-143114742D01*
X128800500Y-142957058D01*
X128800500Y-142957055D01*
X128800499Y-142957053D01*
X128796680Y-142937853D01*
X128769737Y-142802403D01*
X128761782Y-142783198D01*
X128709397Y-142656727D01*
X128709390Y-142656714D01*
X128621789Y-142525611D01*
X128621786Y-142525607D01*
X128510292Y-142414113D01*
X128510288Y-142414110D01*
X128379185Y-142326509D01*
X128379172Y-142326502D01*
X128233501Y-142266164D01*
X128233489Y-142266161D01*
X128078845Y-142235400D01*
X128078842Y-142235400D01*
X127921158Y-142235400D01*
X127921155Y-142235400D01*
X127766510Y-142266161D01*
X127766498Y-142266164D01*
X127620827Y-142326502D01*
X127620814Y-142326509D01*
X127489711Y-142414110D01*
X127489707Y-142414113D01*
X127378213Y-142525607D01*
X127378210Y-142525611D01*
X127290609Y-142656714D01*
X127290602Y-142656727D01*
X127230264Y-142802398D01*
X127230261Y-142802410D01*
X127199712Y-142955991D01*
X127167327Y-143017902D01*
X127106612Y-143052476D01*
X127078095Y-143055800D01*
X124342155Y-143055800D01*
X124275116Y-143036115D01*
X124229361Y-142983311D01*
X124219417Y-142914153D01*
X124248442Y-142850597D01*
X124254474Y-142844119D01*
X125432884Y-141665710D01*
X126688416Y-140410178D01*
X126749739Y-140376693D01*
X126819431Y-140381677D01*
G37*
%TD.AperFunction*%
%TD*%
M02*
