%TF.GenerationSoftware,KiCad,Pcbnew,10.0.3*%
%TF.CreationDate,2026-08-09T18:35:11+05:30*%
%TF.ProjectId,signal detector,7369676e-616c-4206-9465-746563746f72,rev?*%
%TF.SameCoordinates,Original*%
%TF.FileFunction,Copper,L1,Top*%
%TF.FilePolarity,Positive*%
%FSLAX46Y46*%
G04 Gerber Fmt 4.6, Leading zero omitted, Abs format (unit mm)*
G04 Created by KiCad (PCBNEW 10.0.3) date 2026-08-09 18:35:11*
%MOMM*%
%LPD*%
G01*
G04 APERTURE LIST*
G04 Aperture macros list*
%AMRoundRect*
0 Rectangle with rounded corners*
0 $1 Rounding radius*
0 $2 $3 $4 $5 $6 $7 $8 $9 X,Y pos of 4 corners*
0 Add a 4 corners polygon primitive as box body*
4,1,4,$2,$3,$4,$5,$6,$7,$8,$9,$2,$3,0*
0 Add four circle primitives for the rounded corners*
1,1,$1+$1,$2,$3*
1,1,$1+$1,$4,$5*
1,1,$1+$1,$6,$7*
1,1,$1+$1,$8,$9*
0 Add four rect primitives between the rounded corners*
20,1,$1+$1,$2,$3,$4,$5,0*
20,1,$1+$1,$4,$5,$6,$7,0*
20,1,$1+$1,$6,$7,$8,$9,0*
20,1,$1+$1,$8,$9,$2,$3,0*%
G04 Aperture macros list end*
%TA.AperFunction,SMDPad,CuDef*%
%ADD10RoundRect,0.250000X0.450000X-0.262500X0.450000X0.262500X-0.450000X0.262500X-0.450000X-0.262500X0*%
%TD*%
%TA.AperFunction,SMDPad,CuDef*%
%ADD11RoundRect,0.250000X0.262500X0.450000X-0.262500X0.450000X-0.262500X-0.450000X0.262500X-0.450000X0*%
%TD*%
%TA.AperFunction,SMDPad,CuDef*%
%ADD12RoundRect,0.250000X0.475000X-0.250000X0.475000X0.250000X-0.475000X0.250000X-0.475000X-0.250000X0*%
%TD*%
%TA.AperFunction,SMDPad,CuDef*%
%ADD13RoundRect,0.150000X0.150000X-0.587500X0.150000X0.587500X-0.150000X0.587500X-0.150000X-0.587500X0*%
%TD*%
%TA.AperFunction,SMDPad,CuDef*%
%ADD14RoundRect,0.250000X-1.425000X0.362500X-1.425000X-0.362500X1.425000X-0.362500X1.425000X0.362500X0*%
%TD*%
%TA.AperFunction,SMDPad,CuDef*%
%ADD15RoundRect,0.062500X0.062500X-0.337500X0.062500X0.337500X-0.062500X0.337500X-0.062500X-0.337500X0*%
%TD*%
%TA.AperFunction,HeatsinkPad*%
%ADD16R,1.400000X1.700000*%
%TD*%
%TA.AperFunction,SMDPad,CuDef*%
%ADD17RoundRect,0.250000X0.250000X-0.275000X0.250000X0.275000X-0.250000X0.275000X-0.250000X-0.275000X0*%
%TD*%
%TA.AperFunction,SMDPad,CuDef*%
%ADD18RoundRect,0.250000X0.275000X-0.850000X0.275000X0.850000X-0.275000X0.850000X-0.275000X-0.850000X0*%
%TD*%
%TA.AperFunction,SMDPad,CuDef*%
%ADD19RoundRect,0.250000X-0.475000X0.250000X-0.475000X-0.250000X0.475000X-0.250000X0.475000X0.250000X0*%
%TD*%
%TA.AperFunction,ComponentPad*%
%ADD20RoundRect,0.249999X0.850001X-0.850001X0.850001X0.850001X-0.850001X0.850001X-0.850001X-0.850001X0*%
%TD*%
%TA.AperFunction,ComponentPad*%
%ADD21C,2.200000*%
%TD*%
%TA.AperFunction,ComponentPad*%
%ADD22C,4.000000*%
%TD*%
%TA.AperFunction,ComponentPad*%
%ADD23R,1.500000X1.500000*%
%TD*%
%TA.AperFunction,ComponentPad*%
%ADD24C,1.500000*%
%TD*%
%TA.AperFunction,SMDPad,CuDef*%
%ADD25RoundRect,0.150000X0.150000X-0.512500X0.150000X0.512500X-0.150000X0.512500X-0.150000X-0.512500X0*%
%TD*%
%TA.AperFunction,SMDPad,CuDef*%
%ADD26RoundRect,0.250000X-0.262500X-0.450000X0.262500X-0.450000X0.262500X0.450000X-0.262500X0.450000X0*%
%TD*%
%TA.AperFunction,SMDPad,CuDef*%
%ADD27RoundRect,0.250000X-0.400000X0.525000X-0.400000X-0.525000X0.400000X-0.525000X0.400000X0.525000X0*%
%TD*%
%TA.AperFunction,ComponentPad*%
%ADD28R,1.700000X1.700000*%
%TD*%
%TA.AperFunction,ComponentPad*%
%ADD29C,1.700000*%
%TD*%
%TA.AperFunction,ComponentPad*%
%ADD30R,2.000000X2.000000*%
%TD*%
%TA.AperFunction,ComponentPad*%
%ADD31C,2.000000*%
%TD*%
%TA.AperFunction,ComponentPad*%
%ADD32R,1.800000X1.800000*%
%TD*%
%TA.AperFunction,ComponentPad*%
%ADD33C,1.800000*%
%TD*%
%TA.AperFunction,ComponentPad*%
%ADD34R,3.200000X2.000000*%
%TD*%
%TA.AperFunction,SMDPad,CuDef*%
%ADD35RoundRect,0.090000X0.360000X-0.660000X0.360000X0.660000X-0.360000X0.660000X-0.360000X-0.660000X0*%
%TD*%
%TA.AperFunction,ComponentPad*%
%ADD36RoundRect,0.250000X0.625000X-0.350000X0.625000X0.350000X-0.625000X0.350000X-0.625000X-0.350000X0*%
%TD*%
%TA.AperFunction,ComponentPad*%
%ADD37O,1.750000X1.200000*%
%TD*%
%TA.AperFunction,SMDPad,CuDef*%
%ADD38RoundRect,0.250000X-0.450000X0.262500X-0.450000X-0.262500X0.450000X-0.262500X0.450000X0.262500X0*%
%TD*%
%TA.AperFunction,SMDPad,CuDef*%
%ADD39RoundRect,0.150000X0.150000X-0.825000X0.150000X0.825000X-0.150000X0.825000X-0.150000X-0.825000X0*%
%TD*%
%TA.AperFunction,SMDPad,CuDef*%
%ADD40O,0.900000X0.350000*%
%TD*%
%TA.AperFunction,SMDPad,CuDef*%
%ADD41O,0.350000X0.900000*%
%TD*%
%TA.AperFunction,SMDPad,CuDef*%
%ADD42R,2.200000X2.200000*%
%TD*%
%TA.AperFunction,SMDPad,CuDef*%
%ADD43RoundRect,0.135000X-0.315000X-0.365000X0.315000X-0.365000X0.315000X0.365000X-0.315000X0.365000X0*%
%TD*%
%TA.AperFunction,SMDPad,CuDef*%
%ADD44RoundRect,0.082500X-0.767500X-0.192500X0.767500X-0.192500X0.767500X0.192500X-0.767500X0.192500X0*%
%TD*%
%TA.AperFunction,SMDPad,CuDef*%
%ADD45RoundRect,0.150000X0.150000X0.575000X-0.150000X0.575000X-0.150000X-0.575000X0.150000X-0.575000X0*%
%TD*%
%TA.AperFunction,SMDPad,CuDef*%
%ADD46RoundRect,0.075000X0.075000X0.650000X-0.075000X0.650000X-0.075000X-0.650000X0.075000X-0.650000X0*%
%TD*%
%TA.AperFunction,ComponentPad*%
%ADD47O,1.000000X2.100000*%
%TD*%
%TA.AperFunction,ComponentPad*%
%ADD48O,1.000000X1.600000*%
%TD*%
%TA.AperFunction,SMDPad,CuDef*%
%ADD49RoundRect,0.250000X0.525000X0.400000X-0.525000X0.400000X-0.525000X-0.400000X0.525000X-0.400000X0*%
%TD*%
%TA.AperFunction,SMDPad,CuDef*%
%ADD50R,1.500000X0.900000*%
%TD*%
%TA.AperFunction,HeatsinkPad*%
%ADD51C,0.600000*%
%TD*%
%TA.AperFunction,HeatsinkPad*%
%ADD52R,2.900000X2.900000*%
%TD*%
%TA.AperFunction,SMDPad,CuDef*%
%ADD53RoundRect,0.243750X0.456250X-0.243750X0.456250X0.243750X-0.456250X0.243750X-0.456250X-0.243750X0*%
%TD*%
%TA.AperFunction,ViaPad*%
%ADD54C,0.600000*%
%TD*%
%TA.AperFunction,Conductor*%
%ADD55C,0.200000*%
%TD*%
%TA.AperFunction,Conductor*%
%ADD56C,0.199800*%
%TD*%
G04 APERTURE END LIST*
D10*
%TO.P,R17,1*%
%TO.N,Net-(Q3-G)*%
X141000000Y-113500000D03*
%TO.P,R17,2*%
%TO.N,GND*%
X141000000Y-111675000D03*
%TD*%
D11*
%TO.P,R14,1*%
%TO.N,Net-(Q2-G)*%
X114000000Y-153000000D03*
%TO.P,R14,2*%
%TO.N,GND*%
X112175000Y-153000000D03*
%TD*%
D12*
%TO.P,C9,1*%
%TO.N,Net-(J3-In)*%
X102000000Y-117000000D03*
%TO.P,C9,2*%
%TO.N,Net-(U5-INHI)*%
X102000000Y-115100000D03*
%TD*%
D10*
%TO.P,R16,1*%
%TO.N,Net-(Q3-G)*%
X137000000Y-127000000D03*
%TO.P,R16,2*%
%TO.N,/GPIO_8*%
X137000000Y-125175000D03*
%TD*%
D12*
%TO.P,C11,1*%
%TO.N,GND*%
X96490000Y-126450000D03*
%TO.P,C11,2*%
%TO.N,Net-(U5-CLPF)*%
X96490000Y-124550000D03*
%TD*%
%TO.P,C10,1*%
%TO.N,GND*%
X105010000Y-117000000D03*
%TO.P,C10,2*%
%TO.N,Net-(U5-INLO)*%
X105010000Y-115100000D03*
%TD*%
D13*
%TO.P,Q2,1,G_1*%
%TO.N,Net-(Q2-G)*%
X151100000Y-119500000D03*
%TO.P,Q2,2,S_2*%
%TO.N,GND*%
X153000000Y-119500000D03*
%TO.P,Q2,3,D_3*%
%TO.N,Net-(D2-A)*%
X152050000Y-117625000D03*
%TD*%
D14*
%TO.P,R18,1*%
%TO.N,Net-(D4-K)*%
X148500000Y-129037500D03*
%TO.P,R18,2*%
%TO.N,/VBAT_SYS*%
X148500000Y-134962500D03*
%TD*%
D12*
%TO.P,C2,1*%
%TO.N,Net-(BT1-+)*%
X152990000Y-149450000D03*
%TO.P,C2,2*%
%TO.N,GND*%
X152990000Y-147550000D03*
%TD*%
D15*
%TO.P,U1,1,V_{DD}_1*%
%TO.N,+5V*%
X157000000Y-164900000D03*
%TO.P,U1,2,V_{DD}_2*%
X157500000Y-164900000D03*
%TO.P,U1,3,V_{BAT}_3*%
%TO.N,Net-(BT1-+)*%
X158000000Y-164900000D03*
%TO.P,U1,4,V_{BAT}_4*%
X158500000Y-164900000D03*
%TO.P,U1,5,STAT_5*%
%TO.N,Net-(D1-K)*%
X158500000Y-162000000D03*
%TO.P,U1,6,V_{SS}_6*%
%TO.N,GND*%
X158000000Y-162000000D03*
%TO.P,U1,7,NC_7*%
%TO.N,unconnected-(U1-NC-Pad7)*%
X157500000Y-162000000D03*
%TO.P,U1,8,PROG_8*%
%TO.N,Net-(U1-PROG)*%
X157000000Y-162000000D03*
D16*
%TO.P,U1,9*%
%TO.N,N/C*%
X157750000Y-163450000D03*
%TD*%
D10*
%TO.P,R8,1*%
%TO.N,GND*%
X99000000Y-104000000D03*
%TO.P,R8,2*%
%TO.N,Net-(U5-TADJ)*%
X99000000Y-102175000D03*
%TD*%
D17*
%TO.P,J3,1,In_1*%
%TO.N,Net-(J3-In)*%
X135475000Y-113525000D03*
D18*
%TO.P,J3,2,Ext_2*%
%TO.N,GND*%
X134000000Y-112000000D03*
X136950000Y-112000000D03*
%TD*%
D19*
%TO.P,C8,1*%
%TO.N,GND*%
X145000000Y-104500000D03*
%TO.P,C8,2*%
%TO.N,+3V3*%
X145000000Y-106400000D03*
%TD*%
D20*
%TO.P,D2,1,K_1*%
%TO.N,/VBAT_SYS*%
X154500000Y-136080000D03*
D21*
%TO.P,D2,2,A_2*%
%TO.N,Net-(D2-A)*%
X154500000Y-125920000D03*
%TD*%
D11*
%TO.P,R4,1*%
%TO.N,GND*%
X146412500Y-173000000D03*
%TO.P,R4,2*%
%TO.N,Net-(U1-PROG)*%
X144587500Y-173000000D03*
%TD*%
D12*
%TO.P,C3,1*%
%TO.N,/VBAT_SYS*%
X156000000Y-149450000D03*
%TO.P,C3,2*%
%TO.N,GND*%
X156000000Y-147550000D03*
%TD*%
%TO.P,C12,1*%
%TO.N,GND*%
X99500000Y-126450000D03*
%TO.P,C12,2*%
%TO.N,/BAT_SENSE*%
X99500000Y-124550000D03*
%TD*%
D22*
%TO.P,U3,*%
%TO.N,*%
X108030000Y-90020000D03*
X142130000Y-90020000D03*
X108030000Y-28820000D03*
X142130000Y-28820000D03*
D23*
%TO.P,U3,1,VCC_1*%
%TO.N,+3V3*%
X114920000Y-91520000D03*
D24*
%TO.P,U3,2,GND_2*%
%TO.N,GND*%
X117460000Y-91520000D03*
%TO.P,U3,3,~{CS}_3*%
%TO.N,/GPIO_10*%
X120000000Y-91520000D03*
%TO.P,U3,4,RESET_4*%
%TO.N,Net-(U3-RESET)*%
X122540000Y-91520000D03*
%TO.P,U3,5,D/~{C}_5*%
%TO.N,Net-(U3-D{slash}~{C})*%
X125080000Y-91520000D03*
%TO.P,U3,6,MOSI_6*%
%TO.N,Net-(U3-MOSI)*%
X127620000Y-91520000D03*
%TO.P,U3,7,SCK_7*%
%TO.N,Net-(U3-SCK)*%
X130160000Y-91520000D03*
%TO.P,U3,8,LED_8*%
%TO.N,+3V3*%
X132700000Y-91520000D03*
%TO.P,U3,9,MISO_9*%
%TO.N,unconnected-(U3-MISO-Pad9)*%
X135240000Y-91520000D03*
%TO.P,U3,10,SD_CS_10*%
%TO.N,unconnected-(U3-SD_CS-Pad10)*%
X120000000Y-28000000D03*
%TO.P,U3,11,SD_MOSI_11*%
%TO.N,unconnected-(U3-SD_MOSI-Pad11)*%
X122540000Y-28000000D03*
%TO.P,U3,12,SD_MISO_12*%
%TO.N,unconnected-(U3-SD_MISO-Pad12)*%
X125080000Y-28000000D03*
%TO.P,U3,13,SD_SCK_13*%
%TO.N,unconnected-(U3-SD_SCK-Pad13)*%
X127620000Y-28000000D03*
%TO.P,U3,14,FLASH_CD_14*%
%TO.N,unconnected-(U3-FLASH_CD-Pad14)*%
X130160000Y-28000000D03*
%TD*%
D25*
%TO.P,U2,1,VIN_1*%
%TO.N,/VBAT_SYS*%
X141550000Y-132137500D03*
%TO.P,U2,2,GND_2*%
%TO.N,GND*%
X142500000Y-132137500D03*
%TO.P,U2,3,EN_3*%
%TO.N,/VBAT_SYS*%
X143450000Y-132137500D03*
%TO.P,U2,4,NC_4*%
%TO.N,unconnected-(U2-NC-Pad4)*%
X143450000Y-129862500D03*
%TO.P,U2,5,VOUT_5*%
%TO.N,+3.3V*%
X141550000Y-129862500D03*
%TD*%
D19*
%TO.P,C7,1*%
%TO.N,GND*%
X141500000Y-104600000D03*
%TO.P,C7,2*%
%TO.N,+3V3*%
X141500000Y-106500000D03*
%TD*%
D11*
%TO.P,R9,1*%
%TO.N,/BAT_SENSE*%
X123912500Y-126912500D03*
%TO.P,R9,2*%
%TO.N,/VBAT_SYS*%
X122087500Y-126912500D03*
%TD*%
D26*
%TO.P,R2,1*%
%TO.N,GND*%
X112087500Y-145000000D03*
%TO.P,R2,2*%
%TO.N,Net-(J1-CC2)*%
X113912500Y-145000000D03*
%TD*%
%TO.P,R1,1*%
%TO.N,Net-(J1-CC1)*%
X119500000Y-144000000D03*
%TO.P,R1,2*%
%TO.N,GND*%
X121325000Y-144000000D03*
%TD*%
D27*
%TO.P,SW3,1,1_1*%
%TO.N,GND*%
X147500000Y-138440000D03*
X147500000Y-146400000D03*
%TO.P,SW3,2,2_2*%
%TO.N,Net-(J2-Pin_5)*%
X143000000Y-138440000D03*
X143000000Y-146400000D03*
%TD*%
D19*
%TO.P,C1,1*%
%TO.N,+5V*%
X128000000Y-144050000D03*
%TO.P,C1,2*%
%TO.N,GND*%
X128000000Y-145950000D03*
%TD*%
D28*
%TO.P,J2,1,Pin_1_1*%
%TO.N,+3V3*%
X108920000Y-111500000D03*
D29*
%TO.P,J2,2,Pin_2_2*%
%TO.N,GND*%
X111460000Y-111500000D03*
%TO.P,J2,3,Pin_3_3*%
%TO.N,/SDA*%
X114000000Y-111500000D03*
%TO.P,J2,4,Pin_4_4*%
%TO.N,/SCL*%
X116540000Y-111500000D03*
%TO.P,J2,5,Pin_5_5*%
%TO.N,Net-(J2-Pin_5)*%
X119080000Y-111500000D03*
%TD*%
D10*
%TO.P,R10,1*%
%TO.N,GND*%
X126500000Y-134325000D03*
%TO.P,R10,2*%
%TO.N,/BAT_SENSE*%
X126500000Y-132500000D03*
%TD*%
%TO.P,R20,1*%
%TO.N,+3V3*%
X110000000Y-121500000D03*
%TO.P,R20,2*%
%TO.N,/IO1*%
X110000000Y-119675000D03*
%TD*%
D13*
%TO.P,Q1,1,G_1*%
%TO.N,Net-(Q1-G)*%
X97050000Y-153525000D03*
%TO.P,Q1,2,S_2*%
%TO.N,GND*%
X98950000Y-153525000D03*
%TO.P,Q1,3,D_3*%
%TO.N,Net-(BZ1--)*%
X98000000Y-151650000D03*
%TD*%
D30*
%TO.P,BZ1,1,+_1*%
%TO.N,+3V3*%
X100500000Y-141100000D03*
D31*
%TO.P,BZ1,2,-_2*%
%TO.N,Net-(BZ1--)*%
X100500000Y-133500000D03*
%TD*%
D32*
%TO.P,D4,1,K_1*%
%TO.N,Net-(D4-K)*%
X148000000Y-126040000D03*
D33*
%TO.P,D4,2,A_2*%
%TO.N,Net-(D4-A)*%
X148000000Y-123500000D03*
%TD*%
D30*
%TO.P,SW5,A,A_A*%
%TO.N,/IO0*%
X96250000Y-164400000D03*
D31*
%TO.P,SW5,B,B_B*%
%TO.N,/IO1*%
X96250000Y-169400000D03*
%TO.P,SW5,C,C_C*%
%TO.N,GND*%
X96250000Y-166900000D03*
D34*
%TO.P,SW5,MP*%
%TO.N,N/C*%
X103750000Y-161300000D03*
X103750000Y-172500000D03*
D31*
%TO.P,SW5,S1,S1_S1*%
%TO.N,/IO2*%
X110750000Y-169400000D03*
%TO.P,SW5,S2,S2_S2*%
%TO.N,GND*%
X110750000Y-164400000D03*
%TD*%
D35*
%TO.P,D3,1,VDD_1*%
%TO.N,+3V3*%
X143560000Y-156700000D03*
%TO.P,D3,2,DOUT_2*%
%TO.N,unconnected-(D3-DOUT-Pad2)*%
X146860000Y-156700000D03*
%TO.P,D3,3,VSS_3*%
%TO.N,GND*%
X146860000Y-151800000D03*
%TO.P,D3,4,DIN_4*%
%TO.N,Net-(D3-DIN)*%
X143560000Y-151800000D03*
%TD*%
D36*
%TO.P,BT1,1,+_1*%
%TO.N,Net-(BT1-+)*%
X151450000Y-155400000D03*
D37*
%TO.P,BT1,2,-_2*%
%TO.N,GND*%
X151450000Y-153400000D03*
%TD*%
D10*
%TO.P,R13,1*%
%TO.N,/GPIO-2*%
X113000000Y-157325000D03*
%TO.P,R13,2*%
%TO.N,Net-(Q2-G)*%
X113000000Y-155500000D03*
%TD*%
%TO.P,R15,1*%
%TO.N,Net-(D3-DIN)*%
X127500000Y-138912500D03*
%TO.P,R15,2*%
%TO.N,/GPIO-3*%
X127500000Y-137087500D03*
%TD*%
%TO.P,R11,1*%
%TO.N,Net-(Q1-G)*%
X102000000Y-149325000D03*
%TO.P,R11,2*%
%TO.N,/GPIO_10*%
X102000000Y-147500000D03*
%TD*%
%TO.P,M1,1,+_1*%
%TO.N,/VBAT_SYS*%
X143000000Y-119912500D03*
%TO.P,M1,2,-_2*%
%TO.N,Net-(D2-A)*%
X143000000Y-118087500D03*
%TD*%
D38*
%TO.P,R19,1*%
%TO.N,+3V3*%
X102000000Y-156587500D03*
%TO.P,R19,2*%
%TO.N,/IO0*%
X102000000Y-158412500D03*
%TD*%
D39*
%TO.P,U6,1,IO0_1*%
%TO.N,/IO0*%
X105550000Y-155700000D03*
%TO.P,U6,2,IO1_2*%
%TO.N,/IO1*%
X106820000Y-155700000D03*
%TO.P,U6,3,IO2_3*%
%TO.N,/IO2*%
X108090000Y-155700000D03*
%TO.P,U6,4,VSS_4*%
%TO.N,GND*%
X109360000Y-155700000D03*
%TO.P,U6,5,IO3_5*%
%TO.N,/IO3*%
X109360000Y-150750000D03*
%TO.P,U6,6,SCL_6*%
%TO.N,/SCL*%
X108090000Y-150750000D03*
%TO.P,U6,7,SDA_7*%
%TO.N,/SDA*%
X106820000Y-150750000D03*
%TO.P,U6,8,VDD_8*%
%TO.N,+3V3*%
X105550000Y-150750000D03*
%TD*%
D12*
%TO.P,C5,1*%
%TO.N,+3V3*%
X140010000Y-144000000D03*
%TO.P,C5,2*%
%TO.N,GND*%
X140010000Y-142100000D03*
%TD*%
D40*
%TO.P,U5,1,CMIP_1*%
%TO.N,GND*%
X106930000Y-105030000D03*
%TO.P,U5,2,CMIP_2*%
X106930000Y-104380000D03*
%TO.P,U5,3,VPSI_3*%
%TO.N,+3V3*%
X106930000Y-103720000D03*
%TO.P,U5,4,VPSI_4*%
X106930000Y-103070000D03*
D41*
%TO.P,U5,5,CLPF_5*%
%TO.N,Net-(U5-CLPF)*%
X105960000Y-102100000D03*
%TO.P,U5,6,VOUT_6*%
%TO.N,Net-(U5-VOUT)*%
X105310000Y-102100000D03*
%TO.P,U5,7,VSET_7*%
X104650000Y-102100000D03*
%TO.P,U5,8,CMOP_8*%
%TO.N,GND*%
X104000000Y-102100000D03*
D40*
%TO.P,U5,9,VPSO_9*%
%TO.N,+3V3*%
X103030000Y-103070000D03*
%TO.P,U5,10,TADJ_10*%
%TO.N,Net-(U5-TADJ)*%
X103030000Y-103720000D03*
%TO.P,U5,11,CMIP_11*%
%TO.N,GND*%
X103030000Y-104380000D03*
%TO.P,U5,12,CMIP_12*%
X103030000Y-105030000D03*
D41*
%TO.P,U5,13,TEMP_13*%
%TO.N,unconnected-(U5-TEMP-Pad13)*%
X104000000Y-106000000D03*
%TO.P,U5,14,INHI_14*%
%TO.N,Net-(U5-INHI)*%
X104650000Y-106000000D03*
%TO.P,U5,15,INLO_15*%
%TO.N,Net-(U5-INLO)*%
X105310000Y-106000000D03*
%TO.P,U5,16,ENBL_16*%
%TO.N,+3V3*%
X105960000Y-106000000D03*
D42*
%TO.P,U5,17,EP_17*%
%TO.N,GND*%
X104980000Y-104050000D03*
%TD*%
D19*
%TO.P,C13,1*%
%TO.N,+3V3*%
X110500000Y-97600000D03*
%TO.P,C13,2*%
%TO.N,GND*%
X110500000Y-99500000D03*
%TD*%
D10*
%TO.P,R21,1*%
%TO.N,+3V3*%
X112950000Y-121500000D03*
%TO.P,R21,2*%
%TO.N,/IO2*%
X112950000Y-119675000D03*
%TD*%
%TO.P,R12,1*%
%TO.N,Net-(Q1-G)*%
X96500000Y-149000000D03*
%TO.P,R12,2*%
%TO.N,GND*%
X96500000Y-147175000D03*
%TD*%
D43*
%TO.P,SW2,1,A_1*%
%TO.N,Net-(BT1-+)*%
X151900000Y-141900000D03*
X156000000Y-141900000D03*
%TO.P,SW2,2,B_2*%
%TO.N,/VBAT_SYS*%
X151900000Y-143500000D03*
X156000000Y-143500000D03*
D44*
%TO.P,SW2,SH*%
%TO.N,N/C*%
X153950000Y-141275000D03*
%TD*%
D45*
%TO.P,J1,A1,GND_A1*%
%TO.N,GND*%
X119500000Y-140945000D03*
%TO.P,J1,A4,VBUS_A4*%
%TO.N,+5V*%
X118700000Y-140945000D03*
D46*
%TO.P,J1,A5,CC1_A5*%
%TO.N,Net-(J1-CC1)*%
X117500000Y-140945000D03*
%TO.P,J1,A6,D+_A6*%
%TO.N,unconnected-(J1-D+-PadA6)*%
X116500000Y-140945000D03*
%TO.P,J1,A7,D-_A7*%
%TO.N,unconnected-(J1-D--PadA7)*%
X116000000Y-140945000D03*
%TO.P,J1,A8,SBU1_A8*%
%TO.N,unconnected-(J1-SBU1-PadA8)*%
X115000000Y-140945000D03*
D45*
%TO.P,J1,A9,VBUS_A9*%
%TO.N,+5V*%
X113800000Y-140945000D03*
%TO.P,J1,A12,GND_A12*%
%TO.N,GND*%
X113000000Y-140945000D03*
%TO.P,J1,B1,GND_B1*%
X113000000Y-140945000D03*
%TO.P,J1,B4,VBUS_B4*%
%TO.N,+5V*%
X113800000Y-140945000D03*
D46*
%TO.P,J1,B5,CC2_B5*%
%TO.N,Net-(J1-CC2)*%
X114500000Y-140945000D03*
%TO.P,J1,B6,D+_B6*%
%TO.N,/USB D+*%
X115500000Y-140945000D03*
%TO.P,J1,B7,D-_B7*%
%TO.N,/USB D\u2212*%
X117000000Y-140945000D03*
%TO.P,J1,B8,SBU2_B8*%
%TO.N,unconnected-(J1-SBU2-PadB8)*%
X118000000Y-140945000D03*
D45*
%TO.P,J1,B9,VBUS_B9*%
%TO.N,+5V*%
X118700000Y-140945000D03*
%TO.P,J1,B12,GND_B12*%
%TO.N,GND*%
X119500000Y-140945000D03*
D47*
%TO.P,J1,SH,SHIELD_SH*%
%TO.N,unconnected-(J1-SHIELD-PadSH)_2*%
X120570000Y-140030000D03*
D48*
%TO.N,unconnected-(J1-SHIELD-PadSH)*%
X120570000Y-135850000D03*
D47*
%TO.N,unconnected-(J1-SHIELD-PadSH)_3*%
X111930000Y-140030000D03*
D48*
%TO.N,unconnected-(J1-SHIELD-PadSH)_1*%
X111930000Y-135850000D03*
%TD*%
D10*
%TO.P,R6,1*%
%TO.N,Net-(J2-Pin_5)*%
X95000000Y-112500000D03*
%TO.P,R6,2*%
%TO.N,+3V3*%
X95000000Y-110675000D03*
%TD*%
D49*
%TO.P,SW1,1,1_1*%
%TO.N,GND*%
X152980000Y-168150000D03*
X145020000Y-168150000D03*
%TO.P,SW1,2,2_2*%
%TO.N,Net-(U4-EN)*%
X152980000Y-163650000D03*
X145020000Y-163650000D03*
%TD*%
D10*
%TO.P,R7,1*%
%TO.N,Net-(U5-VOUT)*%
X116000000Y-130412500D03*
%TO.P,R7,2*%
%TO.N,/GPIO-0*%
X116000000Y-128587500D03*
%TD*%
D50*
%TO.P,U4,1,3V3_1*%
%TO.N,+3V3*%
X136110000Y-161100000D03*
%TO.P,U4,2,EN_2*%
%TO.N,Net-(U4-EN)*%
X136110000Y-159600000D03*
%TO.P,U4,3,IO4_3*%
%TO.N,Net-(U3-D{slash}~{C})*%
X136110000Y-158100000D03*
%TO.P,U4,4,IO5_4*%
%TO.N,Net-(U3-RESET)*%
X136110000Y-156600000D03*
%TO.P,U4,5,IO6_5*%
%TO.N,Net-(U3-SCK)*%
X136110000Y-155100000D03*
%TO.P,U4,6,IO7_6*%
%TO.N,Net-(U3-MOSI)*%
X136110000Y-153600000D03*
%TO.P,U4,7,IO8_7*%
%TO.N,/GPIO_8*%
X136110000Y-152100000D03*
%TO.P,U4,8,IO9_8*%
%TO.N,Net-(J2-Pin_5)*%
X136110000Y-150600000D03*
%TO.P,U4,9,GND_9*%
%TO.N,GND*%
X136110000Y-149100000D03*
%TO.P,U4,10,IO10_10*%
%TO.N,/GPIO_10*%
X118610000Y-149100000D03*
%TO.P,U4,11,IO20/RXD_11*%
%TO.N,/SCL*%
X118610000Y-150600000D03*
%TO.P,U4,12,IO21/TXD_12*%
%TO.N,/SDA*%
X118610000Y-152100000D03*
%TO.P,U4,13,IO18_13*%
%TO.N,/USB D\u2212*%
X118610000Y-153600000D03*
%TO.P,U4,14,IO19_14*%
%TO.N,/USB D+*%
X118610000Y-155100000D03*
%TO.P,U4,15,IO3_15*%
%TO.N,/GPIO-3*%
X118610000Y-156600000D03*
%TO.P,U4,16,IO2_16*%
%TO.N,/GPIO-2*%
X118610000Y-158100000D03*
%TO.P,U4,17,IO1_17*%
%TO.N,/BAT_SENSE*%
X118610000Y-159600000D03*
%TO.P,U4,18,IO0_18*%
%TO.N,/GPIO-0*%
X118610000Y-161100000D03*
D51*
%TO.P,U4,19,GND_19*%
%TO.N,GND*%
X127500000Y-155450000D03*
X127500000Y-154350000D03*
X126950000Y-156000000D03*
X126950000Y-154900000D03*
X126950000Y-153800000D03*
X126400000Y-155450000D03*
D52*
X126400000Y-154900000D03*
D51*
X126400000Y-154350000D03*
X125850000Y-156000000D03*
X125850000Y-154900000D03*
X125850000Y-153800000D03*
X125300000Y-155450000D03*
X125300000Y-154350000D03*
%TD*%
D12*
%TO.P,C4,1*%
%TO.N,+3.3V*%
X137000000Y-144000000D03*
%TO.P,C4,2*%
%TO.N,GND*%
X137000000Y-142100000D03*
%TD*%
D53*
%TO.P,D1,1,K_1*%
%TO.N,Net-(D1-K)*%
X157500000Y-157500000D03*
%TO.P,D1,2,A_2*%
%TO.N,Net-(D1-A)*%
X157500000Y-155625000D03*
%TD*%
D38*
%TO.P,R3,1*%
%TO.N,Net-(D1-A)*%
X157500000Y-169087500D03*
%TO.P,R3,2*%
%TO.N,+5V*%
X157500000Y-170912500D03*
%TD*%
D10*
%TO.P,R5,1*%
%TO.N,Net-(U4-EN)*%
X95500000Y-108237500D03*
%TO.P,R5,2*%
%TO.N,+3V3*%
X95500000Y-106412500D03*
%TD*%
D12*
%TO.P,C6,1*%
%TO.N,+3V3*%
X137000000Y-106450000D03*
%TO.P,C6,2*%
%TO.N,GND*%
X137000000Y-104550000D03*
%TD*%
D13*
%TO.P,Q3,1,G_1*%
%TO.N,Net-(Q3-G)*%
X146600000Y-114000000D03*
%TO.P,Q3,2,S_2*%
%TO.N,GND*%
X148500000Y-114000000D03*
%TO.P,Q3,3,D_3*%
%TO.N,Net-(D4-A)*%
X147550000Y-112125000D03*
%TD*%
D54*
%TO.N,Net-(Q3-G)*%
X141400000Y-113800000D03*
X145100000Y-114000000D03*
%TO.N,GND*%
X137000000Y-146100000D03*
X119600000Y-141000000D03*
X104700000Y-157300000D03*
X140600000Y-112400000D03*
X106900000Y-106900000D03*
X125400000Y-138300000D03*
X137200000Y-112200000D03*
X123800000Y-144000000D03*
X135700000Y-149100000D03*
X156300000Y-161400000D03*
X137400000Y-107500000D03*
X137400000Y-105300000D03*
X143600000Y-114700000D03*
X112100000Y-142900000D03*
X141600000Y-139100000D03*
X110800000Y-159200000D03*
X137800000Y-145100000D03*
X154200000Y-165600000D03*
X143400000Y-134300000D03*
X131900000Y-149100000D03*
X105400000Y-116600000D03*
X155400000Y-160500000D03*
X107800000Y-107800000D03*
X126100000Y-140300000D03*
X141200000Y-114700000D03*
X112900000Y-141000000D03*
X154400000Y-164200000D03*
X104400000Y-155900000D03*
X107600000Y-112800000D03*
X141600000Y-137700000D03*
X121500000Y-144000000D03*
X112200000Y-148700000D03*
X112200000Y-150500000D03*
X145200000Y-136100000D03*
%TO.N,Net-(Q2-G)*%
X114000000Y-153000000D03*
X155100000Y-121500000D03*
%TO.N,Net-(J3-In)*%
X116000000Y-113500000D03*
X106800000Y-113800000D03*
X104700000Y-113800000D03*
X132400000Y-113700000D03*
X114700000Y-113500000D03*
X133700000Y-113700000D03*
%TO.N,Net-(D2-A)*%
X143400000Y-118500000D03*
X145200000Y-120300000D03*
%TO.N,/VBAT_SYS*%
X140300000Y-132100000D03*
X132400000Y-131800000D03*
X143400000Y-132100000D03*
X143300000Y-128700000D03*
X145200000Y-132100000D03*
%TO.N,+5V*%
X133974591Y-161746823D03*
X122600000Y-137900000D03*
X156800000Y-164900000D03*
X117100000Y-138100000D03*
X127600000Y-143900000D03*
X122800000Y-140900000D03*
X119300000Y-137900000D03*
X114600000Y-138400000D03*
X155000000Y-164900000D03*
X134100000Y-159600000D03*
%TO.N,+3V3*%
X102300000Y-156300000D03*
X104700000Y-152500000D03*
X112500000Y-121300000D03*
X137600000Y-102000000D03*
X106200000Y-105800000D03*
X105600000Y-151600000D03*
X104000000Y-107800000D03*
X140700000Y-159600000D03*
X108900000Y-115000000D03*
X136600000Y-105600000D03*
X145500000Y-149600000D03*
X106900000Y-108700000D03*
X111400000Y-120400000D03*
X143700000Y-147800000D03*
X106000000Y-107800000D03*
X106800000Y-103600000D03*
X109300000Y-98800000D03*
X140700000Y-161000000D03*
%TO.N,/BAT_SENSE*%
X126200000Y-139300000D03*
X121800000Y-124800000D03*
X113300000Y-118600000D03*
X126300000Y-132700000D03*
X120500000Y-160100000D03*
X119200000Y-159900000D03*
X126500000Y-130400000D03*
%TO.N,/GPIO_10*%
X122100000Y-140500000D03*
X119200000Y-145700000D03*
X103000000Y-147100000D03*
X118200000Y-112800000D03*
X118200000Y-114100000D03*
%TO.N,Net-(J2-Pin_5)*%
X103900000Y-110800000D03*
X119100000Y-114100000D03*
X142400000Y-146700000D03*
X140000000Y-149100000D03*
X137700000Y-134700000D03*
X132400000Y-133600000D03*
%TO.N,/SDA*%
X111500000Y-146300000D03*
X118100000Y-144200000D03*
X116700000Y-139600000D03*
X113100000Y-114200000D03*
%TO.N,/SCL*%
X111500000Y-147900000D03*
X113900000Y-114100000D03*
X117600000Y-147900000D03*
X117600000Y-139600000D03*
X117600000Y-143000000D03*
%TO.N,/IO1*%
X106400000Y-156500000D03*
X103700000Y-159200000D03*
%TO.N,Net-(Q1-G)*%
X97000000Y-151500000D03*
X97000000Y-149700000D03*
%TO.N,/IO0*%
X102400000Y-157900000D03*
X103800000Y-156500000D03*
%TO.N,/IO2*%
X108100000Y-160600000D03*
X108100000Y-156500000D03*
%TO.N,Net-(D3-DIN)*%
X132400000Y-143800000D03*
X136200000Y-145100000D03*
%TO.N,Net-(U4-EN)*%
X136110000Y-159600000D03*
X98000000Y-109700000D03*
%TO.N,/GPIO-0*%
X121500000Y-142200000D03*
X122400000Y-143100000D03*
%TD*%
%TO.N,Net-(Q3-G)*%
D55*
X140600000Y-119700000D02*
X140600000Y-113900000D01*
X141000000Y-123000000D02*
X141000000Y-120100000D01*
X141000000Y-113500000D02*
X141300000Y-113800000D01*
X137000000Y-127000000D02*
X141000000Y-123000000D01*
X141000000Y-120100000D02*
X140600000Y-119700000D01*
X145100000Y-114000000D02*
X146600000Y-114000000D01*
X140600000Y-113900000D02*
X141000000Y-113500000D01*
%TO.N,GND*%
X128500000Y-154400000D02*
X128000000Y-153900000D01*
D56*
X134000000Y-112000000D02*
X134000000Y-111283718D01*
D55*
X151900000Y-120600000D02*
X153000000Y-119500000D01*
X108900000Y-156800000D02*
X108500000Y-157200000D01*
X105000000Y-103900000D02*
X105000000Y-104000000D01*
X143700000Y-172300000D02*
X143700000Y-173700000D01*
X110500000Y-99500000D02*
X117500000Y-92500000D01*
X104100000Y-101600000D02*
X106200000Y-99500000D01*
X109500000Y-155700000D02*
X109400000Y-155700000D01*
X141000000Y-114900000D02*
X141200000Y-114700000D01*
X112200000Y-153000000D02*
X112175000Y-153000000D01*
X94800000Y-163300000D02*
X94800000Y-165500000D01*
X106900000Y-105000000D02*
X106900000Y-104400000D01*
X157700000Y-161200000D02*
X158000000Y-161500000D01*
X137000000Y-112000000D02*
X136950000Y-112000000D01*
X142700000Y-133600000D02*
X143400000Y-134300000D01*
X150700000Y-116200000D02*
X150700000Y-116500000D01*
X137200000Y-107900000D02*
X137200000Y-107700000D01*
X128500000Y-154500000D02*
X128350000Y-154350000D01*
X142600000Y-106600000D02*
X142600000Y-105700000D01*
X104100000Y-102600000D02*
X104100000Y-101600000D01*
X147500000Y-138400000D02*
X147500000Y-138440000D01*
X98000000Y-127900000D02*
X99500000Y-126400000D01*
X110300000Y-112700000D02*
X111500000Y-111500000D01*
X110400000Y-99600000D02*
X110500000Y-99500000D01*
X128500000Y-154500000D02*
X128500000Y-154400000D01*
X155200000Y-160700000D02*
X155400000Y-160500000D01*
X103100000Y-148900000D02*
X103000000Y-148800000D01*
X156800000Y-161200000D02*
X157700000Y-161200000D01*
X106200000Y-99500000D02*
X109100000Y-99500000D01*
X112100000Y-142900000D02*
X112100000Y-145000000D01*
D56*
X136950000Y-110900000D02*
X136950000Y-112000000D01*
D55*
X153000000Y-168200000D02*
X145000000Y-168200000D01*
X150400000Y-116800000D02*
X150400000Y-120300000D01*
X139200000Y-142100000D02*
X140000000Y-142100000D01*
X146400000Y-169600000D02*
X143700000Y-172300000D01*
X154000000Y-162900000D02*
X154200000Y-163100000D01*
X103800000Y-104000000D02*
X103400000Y-104400000D01*
X146400000Y-168200000D02*
X146400000Y-169600000D01*
X126400000Y-134400000D02*
X126500000Y-134300000D01*
X137800000Y-145100000D02*
X137800000Y-144800000D01*
X126400000Y-136800000D02*
X126400000Y-134400000D01*
X140600000Y-112400000D02*
X141000000Y-112000000D01*
X154200000Y-165600000D02*
X153000000Y-166800000D01*
X147500000Y-146400000D02*
X148700000Y-147600000D01*
X105900000Y-104400000D02*
X104100000Y-102600000D01*
X109200000Y-99600000D02*
X110400000Y-99600000D01*
X141600000Y-137700000D02*
X141600000Y-136100000D01*
X109400000Y-155700000D02*
X108900000Y-156200000D01*
X154900000Y-160700000D02*
X153600000Y-162000000D01*
X150700000Y-116500000D02*
X150400000Y-116800000D01*
D56*
X134483618Y-110800100D02*
X136850100Y-110800100D01*
D55*
X137400000Y-105300000D02*
X137400000Y-105050000D01*
X103100000Y-149800000D02*
X103100000Y-148900000D01*
X137200000Y-107700000D02*
X137400000Y-107500000D01*
X101900000Y-133800000D02*
X101900000Y-131800000D01*
X142700000Y-132300000D02*
X142700000Y-133600000D01*
X104400000Y-155900000D02*
X102000000Y-153500000D01*
X128350000Y-154350000D02*
X127500000Y-154350000D01*
X105000000Y-117000000D02*
X105400000Y-116600000D01*
X143600000Y-114700000D02*
X144300000Y-114000000D01*
X156600000Y-161400000D02*
X156800000Y-161200000D01*
X126500000Y-144000000D02*
X123800000Y-144000000D01*
X154000000Y-162700000D02*
X154000000Y-162900000D01*
X142200000Y-131800000D02*
X142200000Y-120700000D01*
X101800000Y-133900000D02*
X101900000Y-133800000D01*
X137200000Y-112200000D02*
X137000000Y-112000000D01*
X112200000Y-153000000D02*
X109500000Y-155700000D01*
X148700000Y-147600000D02*
X153000000Y-147600000D01*
X148500000Y-114000000D02*
X150700000Y-116200000D01*
X142500000Y-132100000D02*
X142700000Y-132300000D01*
X153000000Y-147600000D02*
X152990000Y-147550000D01*
X141000000Y-112000000D02*
X141000000Y-111700000D01*
X107000000Y-105100000D02*
X106900000Y-105000000D01*
X99300000Y-104300000D02*
X99000000Y-104000000D01*
X106900000Y-104400000D02*
X106930000Y-104380000D01*
X138100000Y-143200000D02*
X137000000Y-142100000D01*
X140000000Y-140700000D02*
X141600000Y-139100000D01*
X147000000Y-111000000D02*
X142600000Y-106600000D01*
X158000000Y-161500000D02*
X158000000Y-162000000D01*
X137800000Y-144800000D02*
X138100000Y-144500000D01*
X98400000Y-125100000D02*
X98400000Y-123600000D01*
X103900000Y-103800000D02*
X103800000Y-103900000D01*
X108500000Y-157200000D02*
X108300000Y-157200000D01*
X99400000Y-153500000D02*
X103100000Y-149800000D01*
X153600000Y-162000000D02*
X153600000Y-162300000D01*
X112300000Y-146200000D02*
X112300000Y-148600000D01*
X142500000Y-132137500D02*
X142500000Y-132100000D01*
X144300000Y-113700000D02*
X147000000Y-111000000D01*
X107700000Y-112700000D02*
X110300000Y-112700000D01*
X148700000Y-147600000D02*
X146900000Y-149400000D01*
X96200000Y-156300000D02*
X96200000Y-161900000D01*
X147900000Y-111000000D02*
X148500000Y-111600000D01*
X96500000Y-147200000D02*
X96500000Y-147175000D01*
X146900000Y-151800000D02*
X146860000Y-151800000D01*
X153000000Y-147600000D02*
X156000000Y-147600000D01*
X103000000Y-104400000D02*
X103000000Y-105000000D01*
X128000000Y-149100000D02*
X131900000Y-149100000D01*
X136100000Y-149100000D02*
X137000000Y-148200000D01*
X146900000Y-149400000D02*
X146900000Y-151800000D01*
X142600000Y-105700000D02*
X141500000Y-104600000D01*
X142600000Y-105700000D02*
X143800000Y-104500000D01*
X128000000Y-153900000D02*
X128000000Y-146000000D01*
X106900000Y-106900000D02*
X106900000Y-106000000D01*
X145000000Y-168200000D02*
X145020000Y-168150000D01*
X107000000Y-105900000D02*
X107000000Y-105100000D01*
X105000000Y-104000000D02*
X104980000Y-104050000D01*
X128000000Y-146000000D02*
X126500000Y-144500000D01*
X96500000Y-126400000D02*
X96490000Y-126450000D01*
X150200000Y-154800000D02*
X150200000Y-156000000D01*
X126500000Y-140700000D02*
X126100000Y-140300000D01*
X154900000Y-160700000D02*
X155200000Y-160700000D01*
X106900000Y-106000000D02*
X107000000Y-105900000D01*
X125400000Y-138300000D02*
X126500000Y-137200000D01*
X103000000Y-105000000D02*
X103030000Y-105030000D01*
X103000000Y-148800000D02*
X103000000Y-148700000D01*
X141000000Y-111700000D02*
X137200000Y-107900000D01*
X110500000Y-159200000D02*
X110800000Y-159200000D01*
X102900000Y-104300000D02*
X99300000Y-104300000D01*
X150400000Y-120300000D02*
X150700000Y-120600000D01*
X97700000Y-148400000D02*
X96500000Y-147200000D01*
X96200000Y-161900000D02*
X94800000Y-163300000D01*
X109100000Y-99500000D02*
X109200000Y-99600000D01*
X145300000Y-174100000D02*
X146400000Y-173000000D01*
X153600000Y-162300000D02*
X154000000Y-162700000D01*
X154200000Y-164000000D02*
X154400000Y-164200000D01*
X126500000Y-136900000D02*
X126400000Y-136800000D01*
X142200000Y-120700000D02*
X141000000Y-119500000D01*
X121300000Y-144000000D02*
X121325000Y-144000000D01*
X103000000Y-148700000D02*
X102700000Y-148400000D01*
X108500000Y-157200000D02*
X110500000Y-159200000D01*
X108900000Y-156200000D02*
X108900000Y-156800000D01*
X112200000Y-150500000D02*
X112200000Y-153000000D01*
X137000000Y-104600000D02*
X137000000Y-104550000D01*
X101900000Y-131800000D02*
X96500000Y-126400000D01*
X94800000Y-165500000D02*
X96200000Y-166900000D01*
X147000000Y-111000000D02*
X147900000Y-111000000D01*
X101800000Y-134200000D02*
X101800000Y-133900000D01*
X106900000Y-104400000D02*
X105900000Y-104400000D01*
X150200000Y-156000000D02*
X154900000Y-160700000D01*
X141000000Y-119500000D02*
X141000000Y-114900000D01*
X103000000Y-104400000D02*
X102900000Y-104300000D01*
X135700000Y-149100000D02*
X136100000Y-149100000D01*
X111500000Y-111500000D02*
X107800000Y-107800000D01*
X96500000Y-147200000D02*
X96500000Y-139500000D01*
X156000000Y-147600000D02*
X156000000Y-147550000D01*
D56*
X136850100Y-110800100D02*
X136950000Y-110900000D01*
D55*
X145200000Y-136100000D02*
X147500000Y-138400000D01*
X103000000Y-104400000D02*
X103030000Y-104380000D01*
X138100000Y-144500000D02*
X138100000Y-143200000D01*
X141600000Y-136100000D02*
X143400000Y-134300000D01*
D56*
X134000000Y-111283718D02*
X134483618Y-110800100D01*
D55*
X151400000Y-153600000D02*
X150200000Y-154800000D01*
X99500000Y-126400000D02*
X99500000Y-126200000D01*
X140000000Y-142100000D02*
X140000000Y-140700000D01*
X154200000Y-163100000D02*
X154200000Y-164000000D01*
X143700000Y-173700000D02*
X144100000Y-174100000D01*
X140600000Y-112400000D02*
X140600000Y-112187500D01*
X147500000Y-138400000D02*
X147500000Y-146400000D01*
X99000000Y-153500000D02*
X96200000Y-156300000D01*
X98400000Y-123600000D02*
X105000000Y-117000000D01*
X103800000Y-103900000D02*
X103800000Y-104000000D01*
X99500000Y-126200000D02*
X98400000Y-125100000D01*
X148500000Y-153400000D02*
X151400000Y-153400000D01*
X121500000Y-144000000D02*
X121300000Y-144000000D01*
X99000000Y-153500000D02*
X98950000Y-153525000D01*
X104100000Y-102100000D02*
X104000000Y-102100000D01*
X103400000Y-104400000D02*
X103000000Y-104400000D01*
X144100000Y-174100000D02*
X145300000Y-174100000D01*
X109400000Y-155700000D02*
X109360000Y-155700000D01*
X105200000Y-103700000D02*
X105000000Y-103900000D01*
X137400000Y-105300000D02*
X137000000Y-104900000D01*
X138100000Y-143200000D02*
X139200000Y-142100000D01*
X112200000Y-145100000D02*
X112200000Y-146100000D01*
X117500000Y-92500000D02*
X117500000Y-91500000D01*
X137000000Y-148200000D02*
X137000000Y-146100000D01*
X143800000Y-104500000D02*
X145000000Y-104500000D01*
X128000000Y-146000000D02*
X128000000Y-145950000D01*
X144300000Y-114000000D02*
X144300000Y-113700000D01*
X112100000Y-145000000D02*
X112200000Y-145100000D01*
X146900000Y-151800000D02*
X148500000Y-153400000D01*
X112200000Y-146100000D02*
X112300000Y-146200000D01*
X156300000Y-161400000D02*
X156600000Y-161400000D01*
X126500000Y-144500000D02*
X126500000Y-140700000D01*
X99500000Y-126400000D02*
X99500000Y-126450000D01*
X102000000Y-153500000D02*
X99000000Y-153500000D01*
X96500000Y-139500000D02*
X101800000Y-134200000D01*
X148500000Y-111600000D02*
X148500000Y-114000000D01*
X150700000Y-120600000D02*
X151900000Y-120600000D01*
X126500000Y-137200000D02*
X126500000Y-136900000D01*
X106900000Y-105000000D02*
X106930000Y-105030000D01*
X126500000Y-134300000D02*
X126500000Y-134325000D01*
X102700000Y-148400000D02*
X97700000Y-148400000D01*
X153000000Y-168200000D02*
X152980000Y-168150000D01*
X141000000Y-111700000D02*
X141000000Y-111675000D01*
X153000000Y-166800000D02*
X153000000Y-168200000D01*
X108300000Y-157200000D02*
X108200000Y-157300000D01*
X137000000Y-104900000D02*
X137000000Y-104600000D01*
X108200000Y-157300000D02*
X104700000Y-157300000D01*
%TO.N,Net-(Q2-G)*%
X151100000Y-119500000D02*
X151100000Y-117196948D01*
X114000000Y-154500000D02*
X114000000Y-153000000D01*
X113000000Y-155500000D02*
X114000000Y-154500000D01*
X151100000Y-117196948D02*
X151709448Y-116587500D01*
X152390552Y-116587500D02*
X155100000Y-119296948D01*
X151709448Y-116587500D02*
X152390552Y-116587500D01*
X155100000Y-119296948D02*
X155100000Y-121500000D01*
%TO.N,Net-(J3-In)*%
X133700000Y-113700000D02*
X133900000Y-113500000D01*
X107100000Y-113500000D02*
X114700000Y-113500000D01*
X116000000Y-113500000D02*
X132200000Y-113500000D01*
X103900000Y-115100000D02*
X103900000Y-114600000D01*
X135500000Y-113500000D02*
X135475000Y-113525000D01*
X102000000Y-117000000D02*
X103900000Y-115100000D01*
X103900000Y-114600000D02*
X104700000Y-113800000D01*
X133900000Y-113500000D02*
X135500000Y-113500000D01*
X106800000Y-113800000D02*
X107100000Y-113500000D01*
X132200000Y-113500000D02*
X132400000Y-113700000D01*
%TO.N,Net-(U5-INHI)*%
X102000000Y-115100000D02*
X104600000Y-112500000D01*
X104600000Y-106000000D02*
X104650000Y-106000000D01*
X104600000Y-112500000D02*
X104600000Y-106000000D01*
%TO.N,/GPIO_8*%
X137000000Y-125200000D02*
X136100000Y-126100000D01*
X135000000Y-151200000D02*
X135900000Y-152100000D01*
X135500000Y-141400000D02*
X135500000Y-148000000D01*
X135900000Y-141000000D02*
X135500000Y-141400000D01*
X135900000Y-126500000D02*
X135900000Y-141000000D01*
X135900000Y-152100000D02*
X136100000Y-152100000D01*
X136100000Y-126300000D02*
X135900000Y-126500000D01*
X136100000Y-126100000D02*
X136100000Y-126300000D01*
X135000000Y-148500000D02*
X135000000Y-151200000D01*
X135500000Y-148000000D02*
X135000000Y-148500000D01*
X137000000Y-125175000D02*
X137000000Y-125200000D01*
%TO.N,Net-(U5-CLPF)*%
X106100000Y-108600000D02*
X108400000Y-106300000D01*
X104100000Y-116000000D02*
X105700000Y-116000000D01*
X96490000Y-124550000D02*
X96500000Y-124600000D01*
X108400000Y-106000000D02*
X108500000Y-105900000D01*
X96500000Y-124600000D02*
X103900000Y-117200000D01*
X103900000Y-117200000D02*
X103900000Y-116200000D01*
X107000000Y-102100000D02*
X106000000Y-102100000D01*
X106100000Y-115600000D02*
X106100000Y-108600000D01*
X108500000Y-105900000D02*
X108500000Y-103600000D01*
X108500000Y-103600000D02*
X107000000Y-102100000D01*
X105700000Y-116000000D02*
X106100000Y-115600000D01*
X108400000Y-106300000D02*
X108400000Y-106000000D01*
X103900000Y-116200000D02*
X104100000Y-116000000D01*
X106000000Y-102100000D02*
X105960000Y-102100000D01*
%TO.N,Net-(U5-INLO)*%
X105000000Y-115100000D02*
X105300000Y-114800000D01*
X105300000Y-114800000D02*
X105300000Y-106000000D01*
%TO.N,Net-(D2-A)*%
X148300000Y-124800000D02*
X147700000Y-124800000D01*
X152800000Y-118400000D02*
X153400000Y-118400000D01*
X154500000Y-119500000D02*
X154500000Y-125900000D01*
X144900000Y-122200000D02*
X144900000Y-120600000D01*
X147300000Y-124600000D02*
X144900000Y-122200000D01*
X149600000Y-124700000D02*
X148400000Y-124700000D01*
X143400000Y-118500000D02*
X143000000Y-118100000D01*
X147500000Y-124700000D02*
X147400000Y-124600000D01*
X147600000Y-124700000D02*
X147500000Y-124700000D01*
X147700000Y-124800000D02*
X147600000Y-124700000D01*
X153400000Y-118400000D02*
X154500000Y-119500000D01*
X154500000Y-119800000D02*
X149600000Y-124700000D01*
X147400000Y-124600000D02*
X147300000Y-124600000D01*
X152000000Y-117600000D02*
X152800000Y-118400000D01*
X144900000Y-120600000D02*
X145200000Y-120300000D01*
X148400000Y-124700000D02*
X148300000Y-124800000D01*
X152050000Y-117625000D02*
X152000000Y-117600000D01*
%TO.N,Net-(D4-K)*%
X148500000Y-129037500D02*
X148500000Y-129000000D01*
X148000000Y-128500000D02*
X148000000Y-126000000D01*
X148500000Y-129000000D02*
X148000000Y-128500000D01*
%TO.N,/VBAT_SYS*%
X151100000Y-142700000D02*
X151900000Y-143500000D01*
X143000000Y-128400000D02*
X143000000Y-119900000D01*
X156000000Y-145300000D02*
X157500000Y-146800000D01*
X156000000Y-149400000D02*
X156000000Y-149450000D01*
X155600000Y-140900000D02*
X155300000Y-140900000D01*
X157500000Y-148200000D02*
X157500000Y-148300000D01*
X140300000Y-132100000D02*
X141600000Y-132100000D01*
X151100000Y-141300000D02*
X151100000Y-142700000D01*
X143300000Y-128700000D02*
X143000000Y-128400000D01*
X156000000Y-137600000D02*
X156000000Y-140500000D01*
X145200000Y-132100000D02*
X148100000Y-135000000D01*
X156000000Y-140500000D02*
X156800000Y-141300000D01*
X156000000Y-140500000D02*
X155600000Y-140900000D01*
X148500000Y-135000000D02*
X148500000Y-134962500D01*
X157600000Y-147100000D02*
X157600000Y-148100000D01*
X156400000Y-149400000D02*
X156000000Y-149400000D01*
X157500000Y-148300000D02*
X156400000Y-149400000D01*
X141600000Y-132100000D02*
X141550000Y-132137500D01*
X126800000Y-131600000D02*
X132200000Y-131600000D01*
X156800000Y-141300000D02*
X156800000Y-142700000D01*
X157600000Y-148100000D02*
X157500000Y-148200000D01*
X151800000Y-140600000D02*
X151100000Y-141300000D01*
X155000000Y-140600000D02*
X151800000Y-140600000D01*
X156000000Y-143500000D02*
X156000000Y-145300000D01*
X157500000Y-147000000D02*
X157600000Y-147100000D01*
X156800000Y-142700000D02*
X156000000Y-143500000D01*
X148100000Y-135000000D02*
X148500000Y-135000000D01*
X148500000Y-135000000D02*
X149600000Y-136100000D01*
X122100000Y-126900000D02*
X126800000Y-131600000D01*
X132200000Y-131600000D02*
X132400000Y-131800000D01*
X149600000Y-136100000D02*
X154500000Y-136100000D01*
X154500000Y-136100000D02*
X156000000Y-137600000D01*
X155300000Y-140900000D02*
X155000000Y-140600000D01*
X157500000Y-146800000D02*
X157500000Y-147000000D01*
%TO.N,Net-(BT1-+)*%
X153000000Y-149400000D02*
X152990000Y-149450000D01*
X158100000Y-154800000D02*
X158000000Y-154700000D01*
X153000000Y-154700000D02*
X153000000Y-149400000D01*
X158300000Y-154800000D02*
X158100000Y-154800000D01*
X157000000Y-147000000D02*
X157000000Y-146900000D01*
X159000000Y-161500000D02*
X158900000Y-161400000D01*
X157100000Y-147100000D02*
X157000000Y-147000000D01*
X158900000Y-161400000D02*
X158900000Y-155400000D01*
X152100000Y-154700000D02*
X151400000Y-155400000D01*
X158200000Y-164700000D02*
X158600000Y-164700000D01*
X157100000Y-148100000D02*
X157100000Y-147100000D01*
X154000000Y-143900000D02*
X156000000Y-141900000D01*
X153000000Y-149400000D02*
X154000000Y-148400000D01*
X156800000Y-148400000D02*
X157100000Y-148100000D01*
X157000000Y-146900000D02*
X152000000Y-141900000D01*
X158000000Y-154700000D02*
X152100000Y-154700000D01*
X158800000Y-162700000D02*
X159000000Y-162500000D01*
X158000000Y-164900000D02*
X158200000Y-164700000D01*
X158800000Y-164500000D02*
X158800000Y-162700000D01*
X158600000Y-164700000D02*
X158800000Y-164500000D01*
X154000000Y-148400000D02*
X156800000Y-148400000D01*
X159000000Y-162500000D02*
X159000000Y-161500000D01*
X158900000Y-155400000D02*
X158300000Y-154800000D01*
X152000000Y-141900000D02*
X151900000Y-141900000D01*
X158500000Y-164700000D02*
X158500000Y-164900000D01*
%TO.N,+5V*%
X157000000Y-164900000D02*
X157500000Y-164900000D01*
X113800000Y-140300000D02*
X113800000Y-140900000D01*
X122800000Y-140900000D02*
X122800000Y-140700000D01*
X127900000Y-143900000D02*
X127600000Y-143900000D01*
X141581800Y-161581800D02*
X142000000Y-162000000D01*
X157500000Y-166900000D02*
X159100000Y-168500000D01*
X158900000Y-169800000D02*
X158900000Y-169900000D01*
X140377210Y-161500000D02*
X140459010Y-161581800D01*
X142000000Y-164900000D02*
X155000000Y-164900000D01*
X134100000Y-155200000D02*
X132700000Y-153800000D01*
X159000000Y-169700000D02*
X158900000Y-169800000D01*
X122900000Y-138200000D02*
X122600000Y-137900000D01*
X118700000Y-140300000D02*
X118700000Y-140900000D01*
X157900000Y-170900000D02*
X157500000Y-170900000D01*
X118400000Y-139200000D02*
X118400000Y-140000000D01*
X114000000Y-139000000D02*
X114000000Y-139200000D01*
X133974591Y-161746823D02*
X134746823Y-161746823D01*
X158900000Y-169900000D02*
X157900000Y-170900000D01*
X140459010Y-161581800D02*
X141581800Y-161581800D01*
X119300000Y-137900000D02*
X118700000Y-138500000D01*
X159100000Y-168500000D02*
X159100000Y-169500000D01*
X135768200Y-161831800D02*
X137141800Y-161831800D01*
X122900000Y-140600000D02*
X122900000Y-138200000D01*
X114600000Y-138400000D02*
X114000000Y-139000000D01*
X128000000Y-144000000D02*
X127900000Y-143900000D01*
X128000000Y-144050000D02*
X128000000Y-144000000D01*
X159000000Y-169600000D02*
X159000000Y-169700000D01*
X159100000Y-169500000D02*
X159000000Y-169600000D01*
X114000000Y-139200000D02*
X114100000Y-139300000D01*
X137141800Y-161500000D02*
X140377210Y-161500000D01*
X114100000Y-140000000D02*
X113800000Y-140300000D01*
X118700000Y-138500000D02*
X118700000Y-138900000D01*
X113800000Y-140900000D02*
X113800000Y-140945000D01*
X122800000Y-140700000D02*
X122900000Y-140600000D01*
X132600000Y-148600000D02*
X128000000Y-144000000D01*
X118700000Y-140900000D02*
X118700000Y-140945000D01*
X156800000Y-164900000D02*
X157000000Y-164900000D01*
X134746823Y-161746823D02*
X135000000Y-162000000D01*
X114100000Y-139300000D02*
X114100000Y-140000000D01*
X137141800Y-161831800D02*
X137141800Y-161500000D01*
X132700000Y-153700000D02*
X132600000Y-153600000D01*
X157500000Y-164900000D02*
X157500000Y-166900000D01*
X135000000Y-162000000D02*
X135600000Y-162000000D01*
X118400000Y-139300000D02*
X117200000Y-138100000D01*
X142000000Y-162000000D02*
X142000000Y-164900000D01*
X135600000Y-162000000D02*
X135768200Y-161831800D01*
X118400000Y-140000000D02*
X118700000Y-140300000D01*
X132700000Y-153800000D02*
X132700000Y-153700000D01*
X134100000Y-159600000D02*
X134100000Y-155200000D01*
X118700000Y-138900000D02*
X118400000Y-139200000D01*
X132600000Y-153600000D02*
X132600000Y-148600000D01*
%TO.N,Net-(D1-K)*%
X158500000Y-162000000D02*
X158500000Y-158500000D01*
X158500000Y-158500000D02*
X157500000Y-157500000D01*
%TO.N,Net-(U1-PROG)*%
X158600000Y-168600000D02*
X158600000Y-169500000D01*
X158200000Y-170000000D02*
X147600000Y-170000000D01*
X158500000Y-169700000D02*
X158200000Y-170000000D01*
X157000000Y-162000000D02*
X156100000Y-162900000D01*
X156100000Y-162900000D02*
X156100000Y-166100000D01*
X156100000Y-166100000D02*
X158600000Y-168600000D01*
X158600000Y-169500000D02*
X158500000Y-169600000D01*
X147600000Y-170000000D02*
X144600000Y-173000000D01*
X158500000Y-169600000D02*
X158500000Y-169700000D01*
%TO.N,Net-(U5-TADJ)*%
X103000000Y-103700000D02*
X103030000Y-103720000D01*
X100500000Y-103700000D02*
X103000000Y-103700000D01*
X99000000Y-102175000D02*
X99000000Y-102200000D01*
X99000000Y-102200000D02*
X100500000Y-103700000D01*
%TO.N,+3V3*%
X126500000Y-90400000D02*
X126900000Y-90000000D01*
X142500000Y-147600000D02*
X142400000Y-147500000D01*
X108900000Y-120200000D02*
X108900000Y-119200000D01*
X140400000Y-160700000D02*
X140700000Y-161000000D01*
X145200000Y-153000000D02*
X145200000Y-149900000D01*
X103700000Y-101300000D02*
X103000000Y-102000000D01*
X112500000Y-121300000D02*
X112700000Y-121500000D01*
X104700000Y-152500000D02*
X103000000Y-150800000D01*
X109300000Y-98800000D02*
X109100000Y-99000000D01*
X117578200Y-161500000D02*
X117578200Y-161831800D01*
X106700000Y-109000000D02*
X106900000Y-108800000D01*
X137300000Y-99400000D02*
X137300000Y-101700000D01*
D56*
X94150000Y-108650000D02*
X94150000Y-108625000D01*
D55*
X143700000Y-147800000D02*
X143500000Y-147600000D01*
X106000000Y-99100000D02*
X103800000Y-101300000D01*
X103000000Y-150500000D02*
X103600000Y-149900000D01*
X120039946Y-160500000D02*
X120077210Y-160500000D01*
D56*
X94575000Y-107675000D02*
X94950000Y-107300000D01*
D55*
X117578200Y-161831800D02*
X119641800Y-161831800D01*
D56*
X94525000Y-107775000D02*
X94550000Y-107750000D01*
X94550000Y-107725000D02*
X94575000Y-107700000D01*
D55*
X113000000Y-121500000D02*
X112950000Y-121500000D01*
X110700000Y-118800000D02*
X111100000Y-119200000D01*
D56*
X94950000Y-107300000D02*
X95500000Y-107300000D01*
D55*
X111100000Y-120400000D02*
X110000000Y-121500000D01*
X106900000Y-103100000D02*
X106930000Y-103070000D01*
D56*
X95400000Y-110275000D02*
X94150000Y-109025000D01*
X94550000Y-107750000D02*
X94550000Y-107725000D01*
D55*
X137600000Y-102000000D02*
X140400000Y-104800000D01*
X108900000Y-111500000D02*
X106700000Y-109300000D01*
X103600000Y-144200000D02*
X100500000Y-141100000D01*
X103600000Y-149900000D02*
X103600000Y-144200000D01*
D56*
X94150000Y-108975000D02*
X94125000Y-108950000D01*
D55*
X106700000Y-109300000D02*
X106700000Y-109000000D01*
X103000000Y-102000000D02*
X103000000Y-103100000D01*
X132700000Y-91500000D02*
X137000000Y-95800000D01*
X140000000Y-145200000D02*
X140000000Y-144000000D01*
D56*
X94525000Y-107825000D02*
X94525000Y-107775000D01*
D55*
X120922790Y-160500000D02*
X136300000Y-160500000D01*
D56*
X94125000Y-108900000D02*
X94100000Y-108875000D01*
D55*
X126900000Y-90000000D02*
X131200000Y-90000000D01*
D56*
X103800000Y-108000000D02*
X96800000Y-108000000D01*
X94200000Y-108575000D02*
X94200000Y-108550000D01*
D55*
X119641800Y-161831800D02*
X119641800Y-160898146D01*
X106000000Y-107800000D02*
X106000000Y-106000000D01*
X140000000Y-104400000D02*
X140700000Y-103700000D01*
X108900000Y-119200000D02*
X109300000Y-118800000D01*
X109300000Y-118800000D02*
X108900000Y-118400000D01*
D56*
X94500000Y-108250000D02*
X94500000Y-107850000D01*
X94500000Y-107850000D02*
X94525000Y-107825000D01*
D55*
X145700000Y-103600000D02*
X146100000Y-104000000D01*
X146100000Y-104000000D02*
X146100000Y-105300000D01*
X109100000Y-99000000D02*
X106200000Y-99000000D01*
D56*
X96000000Y-107300000D02*
X95500000Y-107300000D01*
D55*
X143600000Y-156700000D02*
X142700000Y-155800000D01*
X104500000Y-124600000D02*
X108900000Y-120200000D01*
X137000000Y-106400000D02*
X137000000Y-106450000D01*
X103800000Y-101300000D02*
X103700000Y-101300000D01*
X114900000Y-91500000D02*
X115900000Y-91500000D01*
X142300000Y-147500000D02*
X140000000Y-145200000D01*
D56*
X96100000Y-107400000D02*
X96000000Y-107300000D01*
D55*
X109300000Y-98800000D02*
X110500000Y-97600000D01*
X116700000Y-160100000D02*
X116700000Y-161000000D01*
X131200000Y-90000000D02*
X132700000Y-91500000D01*
X144200000Y-103700000D02*
X144300000Y-103600000D01*
X137300000Y-101700000D02*
X137600000Y-102000000D01*
X142700000Y-155800000D02*
X142700000Y-155500000D01*
X144300000Y-103600000D02*
X145700000Y-103600000D01*
X106000000Y-106000000D02*
X105960000Y-106000000D01*
X120077210Y-160500000D02*
X120259010Y-160681800D01*
D56*
X94575000Y-107700000D02*
X94575000Y-107675000D01*
D55*
X106900000Y-103700000D02*
X106930000Y-103720000D01*
X146100000Y-105300000D02*
X145000000Y-106400000D01*
X105600000Y-151600000D02*
X105600000Y-150800000D01*
X137000000Y-106000000D02*
X137000000Y-106400000D01*
X102300000Y-156300000D02*
X102000000Y-156600000D01*
D56*
X94100000Y-108700000D02*
X94150000Y-108650000D01*
X100500000Y-141100000D02*
X104500000Y-137100000D01*
D55*
X137000000Y-99100000D02*
X137300000Y-99400000D01*
D56*
X96200000Y-107400000D02*
X96100000Y-107400000D01*
D55*
X136500000Y-160700000D02*
X140400000Y-160700000D01*
X104500000Y-137100000D02*
X104500000Y-124600000D01*
X102000000Y-156600000D02*
X105300000Y-159900000D01*
X106100000Y-99100000D02*
X106000000Y-99100000D01*
X103000000Y-103100000D02*
X103030000Y-103070000D01*
X120740990Y-160681800D02*
X120922790Y-160500000D01*
X110500000Y-97600000D02*
X114900000Y-93200000D01*
X142700000Y-155500000D02*
X145200000Y-153000000D01*
D56*
X94100000Y-108875000D02*
X94100000Y-108700000D01*
D55*
X104000000Y-107800000D02*
X103800000Y-108000000D01*
X109300000Y-118800000D02*
X110700000Y-118800000D01*
X105300000Y-159900000D02*
X116500000Y-159900000D01*
X137000000Y-95800000D02*
X137000000Y-99100000D01*
X105600000Y-150800000D02*
X105550000Y-150750000D01*
X103000000Y-150800000D02*
X103000000Y-150500000D01*
X117000000Y-90400000D02*
X126500000Y-90400000D01*
X140700000Y-159600000D02*
X143600000Y-156700000D01*
X136600000Y-105600000D02*
X137000000Y-106000000D01*
X117200000Y-161500000D02*
X117578200Y-161500000D01*
X116700000Y-161000000D02*
X117200000Y-161500000D01*
D56*
X95500000Y-107300000D02*
X95500000Y-106400000D01*
D55*
X106900000Y-103500000D02*
X106900000Y-103100000D01*
X143500000Y-147600000D02*
X142500000Y-147600000D01*
X140400000Y-105400000D02*
X141500000Y-106500000D01*
X114900000Y-93200000D02*
X114900000Y-91500000D01*
X116500000Y-159900000D02*
X116700000Y-160100000D01*
X106000000Y-106000000D02*
X106200000Y-105800000D01*
D56*
X94150000Y-108625000D02*
X94200000Y-108575000D01*
D55*
X136300000Y-160500000D02*
X136500000Y-160700000D01*
X112700000Y-121500000D02*
X113000000Y-121500000D01*
X108900000Y-118400000D02*
X108900000Y-115000000D01*
X143600000Y-156700000D02*
X143560000Y-156700000D01*
D56*
X94125000Y-108950000D02*
X94125000Y-108900000D01*
D55*
X145200000Y-149900000D02*
X145500000Y-149600000D01*
X111100000Y-119200000D02*
X111100000Y-120400000D01*
X140400000Y-104800000D02*
X140400000Y-105400000D01*
X115900000Y-91500000D02*
X117000000Y-90400000D01*
X119641800Y-160898146D02*
X120039946Y-160500000D01*
X120259010Y-160681800D02*
X120740990Y-160681800D01*
D56*
X94150000Y-109025000D02*
X94150000Y-108975000D01*
D55*
X106200000Y-99000000D02*
X106100000Y-99100000D01*
D56*
X94200000Y-108550000D02*
X94500000Y-108250000D01*
X96800000Y-108000000D02*
X96200000Y-107400000D01*
D55*
X142400000Y-147500000D02*
X142300000Y-147500000D01*
X140700000Y-103700000D02*
X144200000Y-103700000D01*
%TO.N,/BAT_SENSE*%
X118900000Y-159600000D02*
X118600000Y-159600000D01*
X120500000Y-159800000D02*
X120500000Y-159830000D01*
X123900000Y-127800000D02*
X123900000Y-126900000D01*
X108800000Y-114200000D02*
X108700000Y-114300000D01*
X99500000Y-124600000D02*
X99500000Y-124550000D01*
X108500000Y-114300000D02*
X106100000Y-116700000D01*
X109700000Y-115000000D02*
X109700000Y-114700000D01*
X126500000Y-130400000D02*
X123900000Y-127800000D01*
X123200000Y-155000000D02*
X122600000Y-155600000D01*
X106100000Y-118000000D02*
X99500000Y-124600000D01*
X119200000Y-159900000D02*
X118900000Y-159600000D01*
X122600000Y-155600000D02*
X122600000Y-157700000D01*
X123200000Y-143000000D02*
X123200000Y-155000000D01*
X109700000Y-114700000D02*
X109200000Y-114200000D01*
X122600000Y-157700000D02*
X120500000Y-159800000D01*
X113300000Y-118600000D02*
X109700000Y-115000000D01*
X106100000Y-116700000D02*
X106100000Y-118000000D01*
X126500000Y-132500000D02*
X126300000Y-132700000D01*
X109200000Y-114200000D02*
X108800000Y-114200000D01*
X123900000Y-126900000D02*
X121800000Y-124800000D01*
X123100000Y-142900000D02*
X123200000Y-143000000D01*
X108700000Y-114300000D02*
X108500000Y-114300000D01*
X126200000Y-139300000D02*
X123100000Y-142400000D01*
X123100000Y-142400000D02*
X123100000Y-142900000D01*
%TO.N,/GPIO_10*%
D56*
X118600000Y-149100000D02*
X119400000Y-148300000D01*
D55*
X102600000Y-147500000D02*
X102000000Y-147500000D01*
X103000000Y-147100000D02*
X102600000Y-147500000D01*
X120000000Y-116100000D02*
X118400000Y-114500000D01*
X117900000Y-112000000D02*
X117900000Y-111800000D01*
X117800000Y-93700000D02*
X120000000Y-91500000D01*
X121900000Y-128900000D02*
X120000000Y-127000000D01*
X118100000Y-112400000D02*
X118100000Y-112200000D01*
X119400000Y-145900000D02*
X119200000Y-145700000D01*
X103000000Y-147100000D02*
X102700000Y-147100000D01*
X118400000Y-114500000D02*
X118400000Y-114300000D01*
X119400000Y-148300000D02*
X119400000Y-145900000D01*
X117800000Y-111700000D02*
X117800000Y-93700000D01*
X122100000Y-140500000D02*
X121900000Y-140300000D01*
X121900000Y-140300000D02*
X121900000Y-128900000D01*
X120000000Y-127000000D02*
X120000000Y-116100000D01*
X118400000Y-114300000D02*
X118200000Y-114100000D01*
X118200000Y-112500000D02*
X118100000Y-112400000D01*
X117900000Y-111800000D02*
X117800000Y-111700000D01*
X118100000Y-112200000D02*
X117900000Y-112000000D01*
%TO.N,Net-(U3-RESET)*%
X133100000Y-153600000D02*
X135000000Y-155500000D01*
X135000000Y-155500000D02*
X135000000Y-155700000D01*
X135500000Y-104500000D02*
X135500000Y-108500000D01*
D56*
X122500000Y-91500000D02*
X135500000Y-104500000D01*
D55*
X135900000Y-156600000D02*
X136100000Y-156600000D01*
X133100000Y-110900000D02*
X133100000Y-153600000D01*
X135000000Y-155700000D02*
X135900000Y-156600000D01*
X135500000Y-108500000D02*
X133100000Y-110900000D01*
%TO.N,Net-(U3-D{slash}~{C})*%
X136900000Y-102200000D02*
X138500000Y-103800000D01*
X138500000Y-103800000D02*
X138500000Y-107000000D01*
X142900000Y-115800000D02*
X144500000Y-117400000D01*
X125100000Y-91500000D02*
X126000000Y-91500000D01*
X136500000Y-97200000D02*
X136500000Y-99200000D01*
X144800000Y-149400000D02*
X144800000Y-152800000D01*
X144500000Y-117400000D02*
X144500000Y-145000000D01*
X138500000Y-107000000D02*
X142500000Y-111000000D01*
X131600000Y-91400000D02*
X131600000Y-92300000D01*
X126000000Y-91500000D02*
X127100000Y-90400000D01*
X130700000Y-90500000D02*
X131600000Y-91400000D01*
X142500000Y-111000000D02*
X142500000Y-112000000D01*
X131600000Y-92300000D02*
X136500000Y-97200000D01*
X136500000Y-99200000D02*
X136900000Y-99600000D01*
X130600000Y-90500000D02*
X130700000Y-90500000D01*
X142900000Y-112400000D02*
X142900000Y-115800000D01*
X144500000Y-145000000D02*
X145200000Y-145700000D01*
X127100000Y-90400000D02*
X130500000Y-90400000D01*
X144800000Y-152800000D02*
X139500000Y-158100000D01*
X145200000Y-149000000D02*
X144800000Y-149400000D01*
X142500000Y-112000000D02*
X142900000Y-112400000D01*
X130500000Y-90400000D02*
X130600000Y-90500000D01*
X145200000Y-145700000D02*
X145200000Y-149000000D01*
X136900000Y-99600000D02*
X136900000Y-102200000D01*
X139500000Y-158100000D02*
X136100000Y-158100000D01*
%TO.N,Net-(U3-MOSI)*%
X135900000Y-104000000D02*
X135900000Y-108900000D01*
X135600000Y-126000000D02*
X135600000Y-126200000D01*
X135900000Y-153600000D02*
X136100000Y-153600000D01*
X135500000Y-140800000D02*
X135100000Y-141200000D01*
X135000000Y-152500000D02*
X135000000Y-152700000D01*
X134600000Y-152100000D02*
X135000000Y-152500000D01*
X127600000Y-91500000D02*
X136100000Y-100000000D01*
X135100000Y-141200000D02*
X135100000Y-147800000D01*
X135900000Y-125700000D02*
X135600000Y-126000000D01*
X135900000Y-124700000D02*
X135900000Y-125700000D01*
X137900000Y-110900000D02*
X137900000Y-124100000D01*
X135900000Y-108900000D02*
X137900000Y-110900000D01*
X136100000Y-103800000D02*
X135900000Y-104000000D01*
X135000000Y-152700000D02*
X135900000Y-153600000D01*
X134600000Y-148300000D02*
X134600000Y-152100000D01*
X135600000Y-126200000D02*
X135500000Y-126300000D01*
X135100000Y-147800000D02*
X134600000Y-148300000D01*
X136100000Y-100000000D02*
X136100000Y-103800000D01*
X137700000Y-124300000D02*
X136300000Y-124300000D01*
X135500000Y-126300000D02*
X135500000Y-140800000D01*
X136300000Y-124300000D02*
X135900000Y-124700000D01*
X137900000Y-124100000D02*
X137700000Y-124300000D01*
%TO.N,Net-(U3-SCK)*%
X136100000Y-99400000D02*
X136500000Y-99800000D01*
X136500000Y-102400000D02*
X138100000Y-104000000D01*
X144100000Y-117600000D02*
X144100000Y-145200000D01*
X138100000Y-104000000D02*
X138100000Y-107200000D01*
X136500000Y-99800000D02*
X136500000Y-102400000D01*
X144500000Y-147700000D02*
X144400000Y-147800000D01*
X141900000Y-155100000D02*
X136100000Y-155100000D01*
X142500000Y-112600000D02*
X142500000Y-116000000D01*
X142500000Y-116000000D02*
X144100000Y-117600000D01*
X138100000Y-107200000D02*
X142100000Y-111200000D01*
X144400000Y-147800000D02*
X144400000Y-152600000D01*
X144100000Y-145200000D02*
X144700000Y-145800000D01*
X142100000Y-111200000D02*
X142100000Y-112200000D01*
X142100000Y-112200000D02*
X142500000Y-112600000D01*
X130200000Y-91500000D02*
X136100000Y-97400000D01*
X136100000Y-97400000D02*
X136100000Y-99400000D01*
X144700000Y-147000000D02*
X144500000Y-147200000D01*
X144700000Y-145800000D02*
X144700000Y-147000000D01*
X144500000Y-147200000D02*
X144500000Y-147700000D01*
X144400000Y-152600000D02*
X141900000Y-155100000D01*
%TO.N,+3.3V*%
X137000000Y-134500000D02*
X137000000Y-140500000D01*
X141600000Y-129900000D02*
X137000000Y-134500000D01*
X137000000Y-140500000D02*
X135900000Y-141600000D01*
X141550000Y-129862500D02*
X141600000Y-129900000D01*
X135900000Y-142900000D02*
X137000000Y-144000000D01*
X135900000Y-141600000D02*
X135900000Y-142900000D01*
%TO.N,Net-(J1-CC2)*%
X114500000Y-144400000D02*
X114500000Y-140900000D01*
X114500000Y-140900000D02*
X114500000Y-140945000D01*
X113900000Y-145000000D02*
X114500000Y-144400000D01*
%TO.N,Net-(J1-CC1)*%
X117500000Y-140900000D02*
X117500000Y-140945000D01*
X117500000Y-142000000D02*
X117500000Y-140900000D01*
X119500000Y-144000000D02*
X117500000Y-142000000D01*
%TO.N,Net-(J2-Pin_5)*%
X121300000Y-116600000D02*
X121200000Y-116700000D01*
X119100000Y-114100000D02*
X121300000Y-116300000D01*
D56*
X96100000Y-111000000D02*
X96100000Y-111400000D01*
D55*
X125400000Y-131800000D02*
X125400000Y-133000000D01*
X142700000Y-146700000D02*
X142400000Y-146700000D01*
X96700000Y-110700000D02*
X96000000Y-110700000D01*
D56*
X96000000Y-110900000D02*
X96100000Y-111000000D01*
X96100000Y-110700000D02*
X96000000Y-110800000D01*
D55*
X121300000Y-116300000D02*
X121300000Y-116600000D01*
X140000000Y-149100000D02*
X138500000Y-150600000D01*
X143000000Y-138400000D02*
X143000000Y-146400000D01*
X138500000Y-150600000D02*
X136100000Y-150600000D01*
D56*
X96100000Y-111400000D02*
X95000000Y-112500000D01*
D55*
X103400000Y-110300000D02*
X97100000Y-110300000D01*
X121200000Y-116700000D02*
X121200000Y-127600000D01*
X125800000Y-133400000D02*
X132200000Y-133400000D01*
X125400000Y-133000000D02*
X125800000Y-133400000D01*
X143000000Y-146400000D02*
X142700000Y-146700000D01*
D56*
X96000000Y-110800000D02*
X96000000Y-110900000D01*
D55*
X137700000Y-134700000D02*
X141400000Y-138400000D01*
D56*
X96100000Y-110700000D02*
X96000000Y-110700000D01*
D55*
X132200000Y-133400000D02*
X132400000Y-133600000D01*
X143000000Y-138400000D02*
X143000000Y-138440000D01*
X97100000Y-110300000D02*
X96700000Y-110700000D01*
X121200000Y-127600000D02*
X125400000Y-131800000D01*
X141400000Y-138400000D02*
X143000000Y-138400000D01*
X103900000Y-110800000D02*
X103400000Y-110300000D01*
%TO.N,/SDA*%
X118600000Y-152100000D02*
X119300000Y-151400000D01*
X114000000Y-136900000D02*
X114000000Y-115300000D01*
X108400000Y-149400000D02*
X107700000Y-149400000D01*
X119600000Y-145100000D02*
X119000000Y-145100000D01*
X119800000Y-151200000D02*
X119800000Y-145300000D01*
X119000000Y-145100000D02*
X118100000Y-144200000D01*
X107700000Y-149400000D02*
X106800000Y-150300000D01*
X106800000Y-150800000D02*
X106820000Y-150750000D01*
X119800000Y-145300000D02*
X119600000Y-145100000D01*
X111500000Y-146300000D02*
X108400000Y-149400000D01*
X106800000Y-150300000D02*
X106800000Y-150800000D01*
X119600000Y-151400000D02*
X119800000Y-151200000D01*
X114000000Y-115300000D02*
X113200000Y-114500000D01*
X116700000Y-139600000D02*
X114000000Y-136900000D01*
X119300000Y-151400000D02*
X119600000Y-151400000D01*
X113200000Y-114500000D02*
X113200000Y-114300000D01*
%TO.N,/SCL*%
X114900000Y-130900000D02*
X114900000Y-129900000D01*
X116500000Y-138500000D02*
X116500000Y-132500000D01*
X117400000Y-143200000D02*
X117600000Y-143000000D01*
X114500000Y-129500000D02*
X114500000Y-114700000D01*
X118600000Y-150600000D02*
X117900000Y-149900000D01*
X108100000Y-150300000D02*
X108100000Y-150800000D01*
X109000000Y-149400000D02*
X108100000Y-150300000D01*
X108100000Y-150800000D02*
X108090000Y-150750000D01*
X116500000Y-132500000D02*
X114900000Y-130900000D01*
D56*
X117400000Y-147873016D02*
X117400000Y-147900000D01*
D55*
X117700000Y-149900000D02*
X117400000Y-149600000D01*
D56*
X117400000Y-147900000D02*
X117600000Y-147900000D01*
D55*
X114500000Y-114700000D02*
X113900000Y-114100000D01*
X111500000Y-147900000D02*
X110000000Y-149400000D01*
X114900000Y-129900000D02*
X114500000Y-129500000D01*
X117600000Y-139600000D02*
X116500000Y-138500000D01*
X110000000Y-149400000D02*
X109000000Y-149400000D01*
X117400000Y-149600000D02*
X117400000Y-143200000D01*
X117900000Y-149900000D02*
X117700000Y-149900000D01*
%TO.N,/IO1*%
X110000000Y-119700000D02*
X110000000Y-119675000D01*
X106800000Y-155700000D02*
X107400000Y-155100000D01*
X107400000Y-154300000D02*
X104900000Y-151800000D01*
X97600000Y-164300000D02*
X97600000Y-168000000D01*
X102000000Y-159900000D02*
X97600000Y-164300000D01*
X103700000Y-159200000D02*
X103000000Y-159900000D01*
X103000000Y-159900000D02*
X102000000Y-159900000D01*
X104900000Y-151800000D02*
X104900000Y-124800000D01*
X104900000Y-124800000D02*
X110000000Y-119700000D01*
X107400000Y-155100000D02*
X107400000Y-154300000D01*
X97600000Y-168000000D02*
X96200000Y-169400000D01*
%TO.N,Net-(Q1-G)*%
X96500000Y-149000000D02*
X96800000Y-149300000D01*
X97000000Y-153500000D02*
X97050000Y-153525000D01*
X96800000Y-149300000D02*
X102000000Y-149300000D01*
X97000000Y-149300000D02*
X97000000Y-149700000D01*
X97000000Y-151500000D02*
X97000000Y-153500000D01*
X97000000Y-149700000D02*
X97000000Y-149512500D01*
X102000000Y-149300000D02*
X102000000Y-149325000D01*
%TO.N,Net-(BZ1--)*%
X95800000Y-149900000D02*
X95400000Y-149500000D01*
X98000000Y-151600000D02*
X96300000Y-149900000D01*
X95400000Y-138600000D02*
X100500000Y-133500000D01*
X98000000Y-151650000D02*
X98000000Y-151600000D01*
X95400000Y-149500000D02*
X95400000Y-138600000D01*
X96300000Y-149900000D02*
X95800000Y-149900000D01*
%TO.N,Net-(D4-A)*%
X147600000Y-123100000D02*
X147600000Y-112100000D01*
X148000000Y-123500000D02*
X147600000Y-123100000D01*
X147600000Y-112100000D02*
X147550000Y-112125000D01*
%TO.N,/IO0*%
X102000000Y-158300000D02*
X102400000Y-157900000D01*
X103800000Y-156500000D02*
X104000000Y-156700000D01*
X102000000Y-158400000D02*
X102000000Y-158300000D01*
X102000000Y-158600000D02*
X102000000Y-158400000D01*
X105600000Y-155700000D02*
X105550000Y-155700000D01*
X96200000Y-164400000D02*
X102000000Y-158600000D01*
X104000000Y-156700000D02*
X104600000Y-156700000D01*
D56*
X104600000Y-156700000D02*
X105600000Y-155700000D01*
%TO.N,/IO2*%
D55*
X109600000Y-152100000D02*
X109700000Y-152100000D01*
X113000000Y-148800000D02*
X113000000Y-142900000D01*
X108100000Y-155700000D02*
X108300000Y-155900000D01*
X113000000Y-142900000D02*
X111100000Y-141000000D01*
X108100000Y-155700000D02*
X108700000Y-155100000D01*
X111900000Y-120800000D02*
X113000000Y-119700000D01*
X111000000Y-140700000D02*
X111000000Y-122100000D01*
X108300000Y-155900000D02*
X108300000Y-156200000D01*
X109100000Y-152400000D02*
X109300000Y-152200000D01*
X108700000Y-155100000D02*
X108700000Y-152600000D01*
X108900000Y-152400000D02*
X109100000Y-152400000D01*
X111000000Y-122100000D02*
X111900000Y-121200000D01*
X108300000Y-156200000D02*
X108100000Y-156400000D01*
X109400000Y-163800000D02*
X109400000Y-168000000D01*
X111900000Y-121200000D02*
X111900000Y-120800000D01*
X113000000Y-119700000D02*
X112950000Y-119675000D01*
X109400000Y-168000000D02*
X110800000Y-169400000D01*
X110200000Y-162700000D02*
X110200000Y-163000000D01*
X111100000Y-141000000D02*
X111100000Y-140800000D01*
X110200000Y-163000000D02*
X109400000Y-163800000D01*
X108700000Y-152600000D02*
X108900000Y-152400000D01*
X108100000Y-160600000D02*
X110200000Y-162700000D01*
X111100000Y-140800000D02*
X111000000Y-140700000D01*
X109300000Y-152200000D02*
X109500000Y-152200000D01*
X109700000Y-152100000D02*
X113000000Y-148800000D01*
X109500000Y-152200000D02*
X109600000Y-152100000D01*
%TO.N,Net-(D3-DIN)*%
X143600000Y-151800000D02*
X136700000Y-144900000D01*
X136400000Y-144900000D02*
X136200000Y-145100000D01*
X132400000Y-143800000D02*
X127500000Y-138900000D01*
X143560000Y-151800000D02*
X143600000Y-151800000D01*
X136700000Y-144900000D02*
X136400000Y-144900000D01*
%TO.N,/GPIO-2*%
X113800000Y-158100000D02*
X118600000Y-158100000D01*
X113000000Y-157325000D02*
X113000000Y-157300000D01*
X113000000Y-157300000D02*
X113800000Y-158100000D01*
%TO.N,/GPIO-3*%
X127500000Y-137100000D02*
X121700000Y-142900000D01*
X120400000Y-143300000D02*
X120400000Y-154800000D01*
X118900000Y-156600000D02*
X118600000Y-156600000D01*
X119700000Y-155800000D02*
X118900000Y-156600000D01*
X119700000Y-155700000D02*
X119700000Y-155800000D01*
X119800000Y-155600000D02*
X119700000Y-155700000D01*
X120900000Y-142900000D02*
X120800000Y-143000000D01*
X119800000Y-155400000D02*
X119800000Y-155600000D01*
X121700000Y-142900000D02*
X120900000Y-142900000D01*
X120700000Y-143000000D02*
X120400000Y-143300000D01*
X120400000Y-154800000D02*
X119800000Y-155400000D01*
X120800000Y-143000000D02*
X120700000Y-143000000D01*
%TO.N,Net-(U5-VOUT)*%
X115300000Y-127700000D02*
X114900000Y-128100000D01*
X115300000Y-111200000D02*
X115300000Y-127700000D01*
X115400000Y-111100000D02*
X115300000Y-111200000D01*
X105400000Y-101600000D02*
X105700000Y-101300000D01*
X114900000Y-128100000D02*
X114900000Y-129300000D01*
X105300000Y-102100000D02*
X105400000Y-102000000D01*
X115800000Y-110500000D02*
X115400000Y-110900000D01*
X115400000Y-110900000D02*
X115400000Y-111100000D01*
X107000000Y-101500000D02*
X115800000Y-110300000D01*
X114900000Y-129300000D02*
X116000000Y-130400000D01*
X106700000Y-101300000D02*
X106900000Y-101500000D01*
X106900000Y-101500000D02*
X107000000Y-101500000D01*
X105700000Y-101300000D02*
X106700000Y-101300000D01*
X105300000Y-102100000D02*
X104600000Y-102100000D01*
X105400000Y-102000000D02*
X105400000Y-101600000D01*
X104600000Y-102100000D02*
X104650000Y-102100000D01*
X115800000Y-110300000D02*
X115800000Y-110500000D01*
%TO.N,/USB D+*%
X115500000Y-152000000D02*
X117500000Y-154000000D01*
X118400000Y-155100000D02*
X118600000Y-155100000D01*
X117500000Y-154000000D02*
X117500000Y-154200000D01*
X117500000Y-154200000D02*
X118400000Y-155100000D01*
X115500000Y-140945000D02*
X115500000Y-140900000D01*
X115500000Y-140900000D02*
X115500000Y-152000000D01*
%TO.N,/USB D\u2212*%
X117000000Y-140945000D02*
X117000000Y-140900000D01*
X118400000Y-153600000D02*
X118600000Y-153600000D01*
X117000000Y-140900000D02*
X117000000Y-152200000D01*
X117000000Y-152200000D02*
X118400000Y-153600000D01*
%TO.N,Net-(U4-EN)*%
X136100000Y-159600000D02*
X136800000Y-160300000D01*
X96962500Y-109700000D02*
X98000000Y-109700000D01*
X95500000Y-108237500D02*
X96962500Y-109700000D01*
X141700000Y-160300000D02*
X145000000Y-163600000D01*
X136110000Y-159600000D02*
X136100000Y-159600000D01*
X145000000Y-163600000D02*
X145020000Y-163650000D01*
X136800000Y-160300000D02*
X141700000Y-160300000D01*
X145000000Y-163600000D02*
X153000000Y-163600000D01*
X153000000Y-163600000D02*
X152980000Y-163650000D01*
%TO.N,/GPIO-0*%
X122400000Y-143100000D02*
X122200000Y-143300000D01*
X116000000Y-128600000D02*
X118600000Y-131200000D01*
X118600000Y-131200000D02*
X118600000Y-136300000D01*
X121500000Y-139200000D02*
X121500000Y-142200000D01*
X119800000Y-159900000D02*
X119800000Y-160200000D01*
X122200000Y-157500000D02*
X119800000Y-159900000D01*
X118600000Y-136300000D02*
X121500000Y-139200000D01*
X122200000Y-143300000D02*
X122200000Y-157500000D01*
X119800000Y-160200000D02*
X118900000Y-161100000D01*
X118900000Y-161100000D02*
X118600000Y-161100000D01*
%TO.N,Net-(D1-A)*%
X155600000Y-161200000D02*
X155600000Y-167200000D01*
X157500000Y-155900000D02*
X156400000Y-157000000D01*
X157500000Y-155600000D02*
X157500000Y-155900000D01*
X155600000Y-167200000D02*
X157500000Y-169100000D01*
X156400000Y-157000000D02*
X156400000Y-160400000D01*
X156400000Y-160400000D02*
X155600000Y-161200000D01*
X157500000Y-155625000D02*
X157500000Y-155600000D01*
%TD*%
M02*
